{
.appVersion = "1075";
DisplayStrings = (
"/fehDotless-ar.fina"
);
copyright = "Copyright (c) 2016, Ek Type. All rights reserved.";
customParameters = (
{
name = macintoshFONDFamilyID;
value = 128;
},
{
name = macintoshFONDName;
value = "Baloo Bhaijaan";
},
{
name = note;
value = "";
},
{
name = openTypeHeadFlags;
value = (
);
},
{
name = description;
value = "";
},
{
name = openTypeNameSampleText;
value = "";
},
{
name = openTypeNameUniqueID;
value = "";
},
{
name = openTypeNameVersion;
value = "";
},
{
name = openTypeOS2FamilyClass;
value = (
0,
0
);
},
{
name = openTypeOS2Panose;
value = (
2,
0,
0,
0,
0,
0,
0,
0,
0,
0
);
},
{
name = openTypeOS2Selection;
value = (
);
},
{
name = openTypeOS2StrikeoutPosition;
value = 250;
},
{
name = openTypeOS2StrikeoutSize;
value = 50;
},
{
name = openTypeOS2SubscriptXOffset;
value = 0;
},
{
name = openTypeOS2SubscriptXSize;
value = 700;
},
{
name = openTypeOS2SubscriptYOffset;
value = 140;
},
{
name = openTypeOS2SubscriptYSize;
value = 650;
},
{
name = openTypeOS2SuperscriptXOffset;
value = 0;
},
{
name = openTypeOS2SuperscriptXSize;
value = 700;
},
{
name = openTypeOS2SuperscriptYOffset;
value = 477;
},
{
name = openTypeOS2SuperscriptYSize;
value = 650;
},
{
name = fsType;
value = (
);
},
{
name = openTypeOS2UnicodeRanges;
value = (
0,
1,
2,
3,
4,
5,
6,
7,
13,
29,
31,
32,
33,
35,
36,
37,
38,
45,
62,
63
);
},
{
name = vendorID;
value = PYRS;
},
{
name = postscriptBlueFuzz;
value = 1;
},
{
name = postscriptBlueScale;
value = 0.03963;
},
{
name = postscriptBlueShift;
value = 7;
},
{
name = postscriptForceBold;
value = 0;
},
{
name = postscriptIsFixedPitch;
value = 0;
},
{
name = postscriptUniqueID;
value = -1;
},
{
name = trademark;
value = "";
},
{
name = year;
value = 2016;
},
{
name = license;
value = "This Font Software is licensed under the SIL Open Font License, Version 1.1. This license is available with a FAQ at: http://scripts.sil.org/OFL";
},
{
name = licenseURL;
value = "http://scripts.sil.org/OFL";
},
{

glyphs = (
{
glyphname = A;
layers = (
{
layerId = "95F0E3FF-6822-4CFD-805E-5B95C02D9EC6";
paths = (
{
closed = 1;
nodes = (
"152 -10 OFFCURVE",
"172 -4 OFFCURVE",
"190 2 CURVE",
"200 42 OFFCURVE",
"211 86 OFFCURVE",
"222 126 CURVE",
"403 126 LINE",
"421 57 LINE SMOOTH",
"434 11 OFFCURVE",
"452 -10 OFFCURVE",
"517 -10 CURVE SMOOTH",
"561 -10 OFFCURVE",
"594 3 OFFCURVE",
"610 21 CURVE",
"569 169 OFFCURVE",
"500 418 OFFCURVE",
"453 556 CURVE SMOOTH",
"439 597 OFFCURVE",
"381 616 OFFCURVE",
"315 616 CURVE SMOOTH",
"269 616 OFFCURVE",
"216 601 OFFCURVE",
"194 588 CURVE",
"166 517 OFFCURVE",
"64 224 OFFCURVE",
"36 117 CURVE SMOOTH",
"29 92 OFFCURVE",
"23 75 OFFCURVE",
"23 56 CURVE SMOOTH",
"23 15 OFFCURVE",
"56 -10 OFFCURVE",
"123 -10 CURVE SMOOTH"
);
},
{
closed = 1;
nodes = (
"270 331 OFFCURVE",
"296 403 OFFCURVE",
"314 459 CURVE",
"320 459 LINE",
"336 405 OFFCURVE",
"356 333 OFFCURVE",
"375 261 CURVE",
"251 261 LINE"
);
}
);
width = 627;
}
);
leftKerningGroup = A;
rightKerningGroup = A;
unicode = 0041;
},
{
glyphname = Aacute;
layers = (
{
layerId = "95F0E3FF-6822-4CFD-805E-5B95C02D9EC6";
paths = (
{
closed = 1;
nodes = (
"152 -10 OFFCURVE",
"172 -4 OFFCURVE",
"190 2 CURVE",
"200 42 OFFCURVE",
"211 86 OFFCURVE",
"222 126 CURVE",
"403 126 LINE",
"421 57 LINE SMOOTH",
"434 11 OFFCURVE",
"452 -10 OFFCURVE",
"517 -10 CURVE SMOOTH",
"561 -10 OFFCURVE",
"594 3 OFFCURVE",
"610 21 CURVE",
"569 169 OFFCURVE",
"500 418 OFFCURVE",
"453 556 CURVE SMOOTH",
"439 597 OFFCURVE",
"381 616 OFFCURVE",
"315 616 CURVE SMOOTH",
"269 616 OFFCURVE",
"216 601 OFFCURVE",
"194 588 CURVE",
"166 517 OFFCURVE",
"64 224 OFFCURVE",
"36 117 CURVE SMOOTH",
"29 92 OFFCURVE",
"23 75 OFFCURVE",
"23 56 CURVE SMOOTH",
"23 15 OFFCURVE",
"56 -10 OFFCURVE",
"123 -10 CURVE SMOOTH"
);
},
{
closed = 1;
nodes = (
"270 331 OFFCURVE",
"296 403 OFFCURVE",
"314 459 CURVE",
"320 459 LINE",
"336 405 OFFCURVE",
"356 333 OFFCURVE",
"375 261 CURVE",
"251 261 LINE"
);
},
{
closed = 1;
nodes = (
"394 705 LINE SMOOTH",
"440 723 OFFCURVE",
"462 744 OFFCURVE",
"462 782 CURVE SMOOTH",
"462 816 OFFCURVE",
"436 846 OFFCURVE",
"371 851 CURVE",
"224 763 LINE",
"203 752 OFFCURVE",
"193 734 OFFCURVE",
"193 715 CURVE SMOOTH",
"193 686 OFFCURVE",
"219 659 OFFCURVE",
"257 651 CURVE"
);
}
);
width = 627;
}
);
leftKerningGroup = A;
rightKerningGroup = A;
unicode = 00C1;
},
{
glyphname = Abreve;
layers = (
{
layerId = "95F0E3FF-6822-4CFD-805E-5B95C02D9EC6";
paths = (
{
closed = 1;
nodes = (
"152 -10 OFFCURVE",
"172 -4 OFFCURVE",
"190 2 CURVE",
"200 42 OFFCURVE",
"211 86 OFFCURVE",
"222 126 CURVE",
"403 126 LINE",
"421 57 LINE SMOOTH",
"434 11 OFFCURVE",
"452 -10 OFFCURVE",
"517 -10 CURVE SMOOTH",
"561 -10 OFFCURVE",
"594 3 OFFCURVE",
"610 21 CURVE",
"569 169 OFFCURVE",
"500 418 OFFCURVE",
"453 556 CURVE SMOOTH",
"439 597 OFFCURVE",
"381 616 OFFCURVE",
"315 616 CURVE SMOOTH",
"269 616 OFFCURVE",
"216 601 OFFCURVE",
"194 588 CURVE",
"166 517 OFFCURVE",
"64 224 OFFCURVE",
"36 117 CURVE SMOOTH",
"29 92 OFFCURVE",
"23 75 OFFCURVE",
"23 56 CURVE SMOOTH",
"23 15 OFFCURVE",
"56 -10 OFFCURVE",
"123 -10 CURVE SMOOTH"
);
},
{
closed = 1;
nodes = (
"270 331 OFFCURVE",
"296 403 OFFCURVE",
"314 459 CURVE",
"320 459 LINE",
"336 405 OFFCURVE",
"356 333 OFFCURVE",
"375 261 CURVE",
"251 261 LINE"
);
},
{
closed = 1;
nodes = (
"427 661 OFFCURVE",
"490 707 OFFCURVE",
"490 767 CURVE SMOOTH",
"490 802 OFFCURVE",
"464 839 OFFCURVE",
"410 839 CURVE SMOOTH",
"404 839 OFFCURVE",
"399 839 OFFCURVE",
"392 838 CURVE",
"384 809 OFFCURVE",
"357 786 OFFCURVE",
"316 786 CURVE SMOOTH",
"275 786 OFFCURVE",
"247 809 OFFCURVE",
"240 838 CURVE",
"233 839 OFFCURVE",
"228 839 OFFCURVE",
"222 839 CURVE SMOOTH",
"168 839 OFFCURVE",
"142 802 OFFCURVE",
"142 767 CURVE SMOOTH",
"142 707 OFFCURVE",
"205 661 OFFCURVE",
"316 661 CURVE"
);
}
);
width = 627;
}
);
leftKerningGroup = A;
rightKerningGroup = A;
unicode = 0102;
},
{
glyphname = Acircumflex;
layers = (
{
layerId = "95F0E3FF-6822-4CFD-805E-5B95C02D9EC6";
paths = (
{
closed = 1;
nodes = (
"152 -10 OFFCURVE",
"172 -4 OFFCURVE",
"190 2 CURVE",
"200 42 OFFCURVE",
"211 86 OFFCURVE",
"222 126 CURVE",
"403 126 LINE",
"421 57 LINE SMOOTH",
"434 11 OFFCURVE",
"452 -10 OFFCURVE",
"517 -10 CURVE SMOOTH",
"561 -10 OFFCURVE",
"594 3 OFFCURVE",
"610 21 CURVE",
"569 169 OFFCURVE",
"500 418 OFFCURVE",
"453 556 CURVE SMOOTH",
"439 597 OFFCURVE",
"381 616 OFFCURVE",
"315 616 CURVE SMOOTH",
"269 616 OFFCURVE",
"216 601 OFFCURVE",
"194 588 CURVE",
"166 517 OFFCURVE",
"64 224 OFFCURVE",
"36 117 CURVE SMOOTH",
"29 92 OFFCURVE",
"23 75 OFFCURVE",
"23 56 CURVE SMOOTH",
"23 15 OFFCURVE",
"56 -10 OFFCURVE",
"123 -10 CURVE SMOOTH"
);
},
{
closed = 1;
nodes = (
"270 331 OFFCURVE",
"296 403 OFFCURVE",
"314 459 CURVE",
"320 459 LINE",
"336 405 OFFCURVE",
"356 333 OFFCURVE",
"375 261 CURVE",
"251 261 LINE"
);
},
{
closed = 1;
nodes = (
"252 683 OFFCURVE",
"283 703 OFFCURVE",
"324 734 CURVE",
"347 713 LINE",
"391 673 OFFCURVE",
"408 665 OFFCURVE",
"434 665 CURVE SMOOTH",
"475 665 OFFCURVE",
"494 697 OFFCURVE",
"494 742 CURVE",
"413 813 LINE",
"378 844 OFFCURVE",
"358 854 OFFCURVE",
"322 854 CURVE SMOOTH",
"296 854 OFFCURVE",
"267 841 OFFCURVE",
"234 818 CURVE SMOOTH",
"198 792 LINE SMOOTH",
"162 767 OFFCURVE",
"152 750 OFFCURVE",
"152 723 CURVE SMOOTH",
"152 688 OFFCURVE",
"183 662 OFFCURVE",
"223 662 CURVE"
);
}
);
width = 627;
}
);
leftKerningGroup = A;
rightKerningGroup = A;
unicode = 00C2;
},
{
glyphname = Adieresis;
layers = (
{
layerId = "95F0E3FF-6822-4CFD-805E-5B95C02D9EC6";
paths = (
{
closed = 1;
nodes = (
"152 -10 OFFCURVE",
"172 -4 OFFCURVE",
"190 2 CURVE",
"200 42 OFFCURVE",
"211 86 OFFCURVE",
"222 126 CURVE",
"403 126 LINE",
"421 57 LINE SMOOTH",
"434 11 OFFCURVE",
"452 -10 OFFCURVE",
"517 -10 CURVE SMOOTH",
"561 -10 OFFCURVE",
"594 3 OFFCURVE",
"610 21 CURVE",
"569 169 OFFCURVE",
"500 418 OFFCURVE",
"453 556 CURVE SMOOTH",
"439 597 OFFCURVE",
"381 616 OFFCURVE",
"315 616 CURVE SMOOTH",
"269 616 OFFCURVE",
"216 601 OFFCURVE",
"194 588 CURVE",
"166 517 OFFCURVE",
"64 224 OFFCURVE",
"36 117 CURVE SMOOTH",
"29 92 OFFCURVE",
"23 75 OFFCURVE",
"23 56 CURVE SMOOTH",
"23 15 OFFCURVE",
"56 -10 OFFCURVE",
"123 -10 CURVE SMOOTH"
);
},
{
closed = 1;
nodes = (
"270 331 OFFCURVE",
"296 403 OFFCURVE",
"314 459 CURVE",
"320 459 LINE",
"336 405 OFFCURVE",
"356 333 OFFCURVE",
"375 261 CURVE",
"251 261 LINE"
);
},
{
closed = 1;
nodes = (
"259 669 OFFCURVE",
"294 708 OFFCURVE",
"294 755 CURVE SMOOTH",
"294 801 OFFCURVE",
"259 841 OFFCURVE",
"204 841 CURVE SMOOTH",
"155 841 OFFCURVE",
"117 801 OFFCURVE",
"117 755 CURVE",
"117 708 OFFCURVE",
"155 669 OFFCURVE",
"204 669 CURVE SMOOTH"
);
},
{
closed = 1;
nodes = (
"481 669 OFFCURVE",
"518 708 OFFCURVE",
"518 755 CURVE SMOOTH",
"518 801 OFFCURVE",
"481 841 OFFCURVE",
"430 841 CURVE SMOOTH",
"375 841 OFFCURVE",
"341 801 OFFCURVE",
"341 755 CURVE",
"341 708 OFFCURVE",
"375 669 OFFCURVE",
"430 669 CURVE SMOOTH"
);
}
);
width = 627;
}
);
leftKerningGroup = A;
rightKerningGroup = A;
unicode = 00C4;
},
{
glyphname = Agrave;
layers = (
{
layerId = "95F0E3FF-6822-4CFD-805E-5B95C02D9EC6";
paths = (
{
closed = 1;
nodes = (
"152 -10 OFFCURVE",
"172 -4 OFFCURVE",
"190 2 CURVE",
"200 42 OFFCURVE",
"211 86 OFFCURVE",
"222 126 CURVE",
"403 126 LINE",
"421 57 LINE SMOOTH",
"434 11 OFFCURVE",
"452 -10 OFFCURVE",
"517 -10 CURVE SMOOTH",
"561 -10 OFFCURVE",
"594 3 OFFCURVE",
"610 21 CURVE",
"569 169 OFFCURVE",
"500 418 OFFCURVE",
"453 556 CURVE SMOOTH",
"439 597 OFFCURVE",
"381 616 OFFCURVE",
"315 616 CURVE SMOOTH",
"269 616 OFFCURVE",
"216 601 OFFCURVE",
"194 588 CURVE",
"166 517 OFFCURVE",
"64 224 OFFCURVE",
"36 117 CURVE SMOOTH",
"29 92 OFFCURVE",
"23 75 OFFCURVE",
"23 56 CURVE SMOOTH",
"23 15 OFFCURVE",
"56 -10 OFFCURVE",
"123 -10 CURVE SMOOTH"
);
},
{
closed = 1;
nodes = (
"270 331 OFFCURVE",
"296 403 OFFCURVE",
"314 459 CURVE",
"320 459 LINE",
"336 405 OFFCURVE",
"356 333 OFFCURVE",
"375 261 CURVE",
"251 261 LINE"
);
},
{
closed = 1;
nodes = (
"428 653 OFFCURVE",
"455 683 OFFCURVE",
"455 730 CURVE SMOOTH",
"455 735 OFFCURVE",
"455 741 OFFCURVE",
"454 746 CURVE",
"318 816 LINE SMOOTH",
"291 830 OFFCURVE",
"272 840 OFFCURVE",
"248 840 CURVE SMOOTH",
"203 840 OFFCURVE",
"175 810 OFFCURVE",
"175 768 CURVE SMOOTH",
"175 756 OFFCURVE",
"177 740 OFFCURVE",
"183 726 CURVE",
"337 666 LINE",
"357 658 OFFCURVE",
"376 653 OFFCURVE",
"394 653 CURVE SMOOTH"
);
}
);
width = 627;
}
);
leftKerningGroup = A;
rightKerningGroup = A;
unicode = 00C0;
},
{
glyphname = Amacron;
layers = (
{
layerId = "95F0E3FF-6822-4CFD-805E-5B95C02D9EC6";
paths = (
{
closed = 1;
nodes = (
"152 -10 OFFCURVE",
"172 -4 OFFCURVE",
"190 2 CURVE",
"200 42 OFFCURVE",
"211 86 OFFCURVE",
"222 126 CURVE",
"403 126 LINE",
"421 57 LINE SMOOTH",
"434 11 OFFCURVE",
"452 -10 OFFCURVE",
"517 -10 CURVE SMOOTH",
"561 -10 OFFCURVE",
"594 3 OFFCURVE",
"610 21 CURVE",
"569 169 OFFCURVE",
"500 418 OFFCURVE",
"453 556 CURVE SMOOTH",
"439 597 OFFCURVE",
"381 616 OFFCURVE",
"315 616 CURVE SMOOTH",
"269 616 OFFCURVE",
"216 601 OFFCURVE",
"194 588 CURVE",
"166 517 OFFCURVE",
"64 224 OFFCURVE",
"36 117 CURVE SMOOTH",
"29 92 OFFCURVE",
"23 75 OFFCURVE",
"23 56 CURVE SMOOTH",
"23 15 OFFCURVE",
"56 -10 OFFCURVE",
"123 -10 CURVE SMOOTH"
);
},
{
closed = 1;
nodes = (
"270 331 OFFCURVE",
"296 403 OFFCURVE",
"314 459 CURVE",
"320 459 LINE",
"336 405 OFFCURVE",
"356 333 OFFCURVE",
"375 261 CURVE",
"251 261 LINE"
);
},
{
closed = 1;
nodes = (
"425 693 LINE",
"458 693 OFFCURVE",
"479 710 OFFCURVE",
"479 759 CURVE SMOOTH",
"479 783 OFFCURVE",
"474 807 OFFCURVE",
"463 821 CURVE",
"198 821 LINE SMOOTH",
"165 821 OFFCURVE",
"143 804 OFFCURVE",
"143 755 CURVE SMOOTH",
"143 731 OFFCURVE",
"153 707 OFFCURVE",
"159 693 CURVE"
);
}
);
width = 627;
}
);
leftKerningGroup = A;
rightKerningGroup = A;
unicode = 0100;
},
{
glyphname = Aogonek;
layers = (
{
layerId = "95F0E3FF-6822-4CFD-805E-5B95C02D9EC6";
paths = (
{
closed = 1;
nodes = (
"599 -202 OFFCURVE",
"621 -166 OFFCURVE",
"621 -128 CURVE SMOOTH",
"621 -111 OFFCURVE",
"618 -98 OFFCURVE",
"614 -86 CURVE",
"576 -86 OFFCURVE",
"555 -70 OFFCURVE",
"555 -43 CURVE SMOOTH",
"555 -22 OFFCURVE",
"563 -11 OFFCURVE",
"573 -1 CURVE",
"589 4 OFFCURVE",
"602 12 OFFCURVE",
"610 21 CURVE",
"569 169 OFFCURVE",
"500 418 OFFCURVE",
"453 556 CURVE SMOOTH",
"439 597 OFFCURVE",
"381 616 OFFCURVE",
"315 616 CURVE SMOOTH",
"269 616 OFFCURVE",
"216 601 OFFCURVE",
"194 588 CURVE",
"166 517 OFFCURVE",
"64 224 OFFCURVE",
"36 117 CURVE SMOOTH",
"29 92 OFFCURVE",
"23 75 OFFCURVE",
"23 56 CURVE SMOOTH",
"23 15 OFFCURVE",
"56 -10 OFFCURVE",
"123 -10 CURVE SMOOTH",
"152 -10 OFFCURVE",
"172 -4 OFFCURVE",
"190 2 CURVE",
"200 42 OFFCURVE",
"211 86 OFFCURVE",
"222 126 CURVE",
"403 126 LINE",
"421 57 LINE SMOOTH",
"427 34 OFFCURVE",
"435 17 OFFCURVE",
"449 6 CURVE",
"419 -13 OFFCURVE",
"400 -44 OFFCURVE",
"400 -88 CURVE SMOOTH",
"400 -160 OFFCURVE",
"458 -202 OFFCURVE",
"529 -202 CURVE SMOOTH"
);
},
{
closed = 1;
nodes = (
"270 331 OFFCURVE",
"296 403 OFFCURVE",
"314 459 CURVE",
"320 459 LINE",
"336 405 OFFCURVE",
"356 333 OFFCURVE",
"375 261 CURVE",
"251 261 LINE"
);
}
);
width = 627;
}
);
leftKerningGroup = A;
rightKerningGroup = A;
unicode = 0104;
},
{
glyphname = Aring;
layers = (
{
layerId = "95F0E3FF-6822-4CFD-805E-5B95C02D9EC6";
paths = (
{
closed = 1;
nodes = (
"152 -10 OFFCURVE",
"172 -4 OFFCURVE",
"190 2 CURVE",
"200 42 OFFCURVE",
"211 86 OFFCURVE",
"222 126 CURVE",
"403 126 LINE",
"421 57 LINE SMOOTH",
"434 11 OFFCURVE",
"452 -10 OFFCURVE",
"517 -10 CURVE SMOOTH",
"561 -10 OFFCURVE",
"594 3 OFFCURVE",
"610 21 CURVE",
"569 169 OFFCURVE",
"500 418 OFFCURVE",
"453 556 CURVE SMOOTH",
"439 597 OFFCURVE",
"381 616 OFFCURVE",
"315 616 CURVE SMOOTH",
"269 616 OFFCURVE",
"216 601 OFFCURVE",
"194 588 CURVE",
"166 517 OFFCURVE",
"64 224 OFFCURVE",
"36 117 CURVE SMOOTH",
"29 92 OFFCURVE",
"23 75 OFFCURVE",
"23 56 CURVE SMOOTH",
"23 15 OFFCURVE",
"56 -10 OFFCURVE",
"123 -10 CURVE SMOOTH"
);
},
{
closed = 1;
nodes = (
"270 331 OFFCURVE",
"296 403 OFFCURVE",
"314 459 CURVE",
"320 459 LINE",
"336 405 OFFCURVE",
"356 333 OFFCURVE",
"375 261 CURVE",
"251 261 LINE"
);
},
{
closed = 1;
nodes = (
"405 646 OFFCURVE",
"458 692 OFFCURVE",
"458 754 CURVE SMOOTH",
"458 816 OFFCURVE",
"405 863 OFFCURVE",
"321 863 CURVE SMOOTH",
"242 863 OFFCURVE",
"189 816 OFFCURVE",
"189 754 CURVE",
"189 692 OFFCURVE",
"242 646 OFFCURVE",
"321 646 CURVE SMOOTH"
);
},
{
closed = 1;
nodes = (
"305 723 OFFCURVE",
"290 735 OFFCURVE",
"290 754 CURVE",
"290 773 OFFCURVE",
"305 785 OFFCURVE",
"322 785 CURVE SMOOTH",
"342 785 OFFCURVE",
"356 773 OFFCURVE",
"356 754 CURVE SMOOTH",
"356 735 OFFCURVE",
"342 723 OFFCURVE",
"322 723 CURVE SMOOTH"
);
}
);
width = 627;
}
);
leftKerningGroup = A;
rightKerningGroup = A;
unicode = 00C5;
},
{
glyphname = Atilde;
layers = (
{
layerId = "95F0E3FF-6822-4CFD-805E-5B95C02D9EC6";
paths = (
{
closed = 1;
nodes = (
"152 -10 OFFCURVE",
"172 -4 OFFCURVE",
"190 2 CURVE",
"200 42 OFFCURVE",
"211 86 OFFCURVE",
"222 126 CURVE",
"403 126 LINE",
"421 57 LINE SMOOTH",
"434 11 OFFCURVE",
"452 -10 OFFCURVE",
"517 -10 CURVE SMOOTH",
"561 -10 OFFCURVE",
"594 3 OFFCURVE",
"610 21 CURVE",
"569 169 OFFCURVE",
"500 418 OFFCURVE",
"453 556 CURVE SMOOTH",
"439 597 OFFCURVE",
"381 616 OFFCURVE",
"315 616 CURVE SMOOTH",
"269 616 OFFCURVE",
"216 601 OFFCURVE",
"194 588 CURVE",
"166 517 OFFCURVE",
"64 224 OFFCURVE",
"36 117 CURVE SMOOTH",
"29 92 OFFCURVE",
"23 75 OFFCURVE",
"23 56 CURVE SMOOTH",
"23 15 OFFCURVE",
"56 -10 OFFCURVE",
"123 -10 CURVE SMOOTH"
);
},
{
closed = 1;
nodes = (
"270 331 OFFCURVE",
"296 403 OFFCURVE",
"314 459 CURVE",
"320 459 LINE",
"336 405 OFFCURVE",
"356 333 OFFCURVE",
"375 261 CURVE",
"251 261 LINE"
);
},
{
closed = 1;
nodes = (
"223 689 OFFCURVE",
"237 711 OFFCURVE",
"266 711 CURVE SMOOTH",
"278 711 OFFCURVE",
"290 707 OFFCURVE",
"308 702 CURVE SMOOTH",
"348 690 LINE SMOOTH",
"370 684 OFFCURVE",
"389 682 OFFCURVE",
"407 682 CURVE SMOOTH",
"463 682 OFFCURVE",
"505 710 OFFCURVE",
"505 769 CURVE SMOOTH",
"505 816 OFFCURVE",
"470 849 OFFCURVE",
"423 849 CURVE",
"416 837 OFFCURVE",
"401 814 OFFCURVE",
"372 814 CURVE SMOOTH",
"361 814 OFFCURVE",
"346 818 OFFCURVE",
"322 825 CURVE",
"267 841 OFFCURVE",
"249 843 OFFCURVE",
"231 843 CURVE SMOOTH",
"184 843 OFFCURVE",
"133 816 OFFCURVE",
"133 756 CURVE SMOOTH",
"133 709 OFFCURVE",
"168 676 OFFCURVE",
"215 676 CURVE"
);
}
);
width = 627;
}
);
leftKerningGroup = A;
rightKerningGroup = A;
unicode = 00C3;
},
{
glyphname = AE;
layers = (
{
layerId = "95F0E3FF-6822-4CFD-805E-5B95C02D9EC6";
paths = (
{
closed = 1;
nodes = (
"144 -10 OFFCURVE",
"164 -4 OFFCURVE",
"182 2 CURVE",
"239 126 LINE",
"392 126 LINE",
"392 90 LINE SMOOTH",
"392 33 OFFCURVE",
"428 -3 OFFCURVE",
"485 -3 CURVE SMOOTH",
"777 -3 LINE SMOOTH",
"813 -3 OFFCURVE",
"837 17 OFFCURVE",
"837 68 CURVE SMOOTH",
"837 95 OFFCURVE",
"828 120 OFFCURVE",
"819 135 CURVE",
"562 135 LINE",
"562 240 LINE",
"746 240 LINE SMOOTH",
"782 240 OFFCURVE",
"805 260 OFFCURVE",
"805 310 CURVE SMOOTH",
"805 337 OFFCURVE",
"796 361 OFFCURVE",
"787 376 CURVE",
"562 376 LINE",
"562 469 LINE",
"773 469 LINE SMOOTH",
"809 469 OFFCURVE",
"833 489 OFFCURVE",
"833 539 CURVE SMOOTH",
"833 566 OFFCURVE",
"824 591 OFFCURVE",
"815 606 CURVE",
"524 606 LINE",
"504 606 OFFCURVE",
"487 601 OFFCURVE",
"473 592 CURVE",
"448 604 OFFCURVE",
"409 611 OFFCURVE",
"378 611 CURVE SMOOTH",
"331 611 OFFCURVE",
"292 595 OFFCURVE",
"272 581 CURVE",
"229 509 OFFCURVE",
"90 228 OFFCURVE",
"40 117 CURVE SMOOTH",
"29 93 OFFCURVE",
"25 75 OFFCURVE",
"25 56 CURVE SMOOTH",
"25 15 OFFCURVE",
"54 -10 OFFCURVE",
"115 -10 CURVE SMOOTH"
);
},
{
closed = 1;
nodes = (
"386 459 LINE",
"392 459 LINE",
"392 261 LINE",
"300 261 LINE"
);
}
);
width = 875;
}
);
rightKerningGroup = E;
unicode = 00C6;
},
{
glyphname = B;
layers = (
{
layerId = "95F0E3FF-6822-4CFD-805E-5B95C02D9EC6";
paths = (
{
closed = 1;
nodes = (
"483 -16 OFFCURVE",
"585 47 OFFCURVE",
"585 178 CURVE SMOOTH",
"585 252 OFFCURVE",
"534 304 OFFCURVE",
"468 322 CURVE",
"526 342 OFFCURVE",
"564 387 OFFCURVE",
"564 447 CURVE SMOOTH",
"564 566 OFFCURVE",
"467 623 OFFCURVE",
"298 623 CURVE SMOOTH",
"227 623 OFFCURVE",
"153 616 OFFCURVE",
"108 600 CURVE SMOOTH",
"82 591 OFFCURVE",
"65 577 OFFCURVE",
"65 549 CURVE SMOOTH",
"65 82 LINE SMOOTH",
"65 46 OFFCURVE",
"84 23 OFFCURVE",
"120 9 CURVE SMOOTH",
"173 -11 OFFCURVE",
"254 -16 OFFCURVE",
"300 -16 CURVE"
);
},
{
closed = 1;
nodes = (
"287 118 OFFCURVE",
"253 120 OFFCURVE",
"235 125 CURVE",
"235 247 LINE",
"317 247 LINE SMOOTH",
"376 247 OFFCURVE",
"406 230 OFFCURVE",
"406 186 CURVE SMOOTH",
"406 139 OFFCURVE",
"366 118 OFFCURVE",
"313 118 CURVE SMOOTH"
);
},
{
closed = 1;
nodes = (
"235 487 LINE",
"249 489 OFFCURVE",
"280 491 OFFCURVE",
"300 491 CURVE SMOOTH",
"360 491 OFFCURVE",
"390 468 OFFCURVE",
"390 432 CURVE SMOOTH",
"390 391 OFFCURVE",
"365 369 OFFCURVE",
"308 369 CURVE SMOOTH",
"235 369 LINE"
);
}
);
width = 619;
}
);
unicode = 0042;
},
{
glyphname = C;
layers = (
{
layerId = "95F0E3FF-6822-4CFD-805E-5B95C02D9EC6";
paths = (
{
closed = 1;
nodes = (
"483 -18 OFFCURVE",
"543 26 OFFCURVE",
"543 80 CURVE SMOOTH",
"543 114 OFFCURVE",
"529 141 OFFCURVE",
"507 159 CURVE",
"472 140 OFFCURVE",
"437 123 OFFCURVE",
"383 123 CURVE SMOOTH",
"281 123 OFFCURVE",
"215 189 OFFCURVE",
"215 304 CURVE SMOOTH",
"215 418 OFFCURVE",
"272 484 OFFCURVE",
"374 484 CURVE SMOOTH",
"426 484 OFFCURVE",
"464 465 OFFCURVE",
"498 443 CURVE",
"520 458 OFFCURVE",
"541 484 OFFCURVE",
"541 518 CURVE SMOOTH",
"541 580 OFFCURVE",
"470 625 OFFCURVE",
"348 625 CURVE SMOOTH",
"175 625 OFFCURVE",
"35 511 OFFCURVE",
"35 304 CURVE SMOOTH",
"35 81 OFFCURVE",
"181 -18 OFFCURVE",
"359 -18 CURVE SMOOTH"
);
}
);
width = 571;
}
);
leftKerningGroup = O;
rightKerningGroup = C;
unicode = 0043;
},
{
glyphname = Cacute;
layers = (
{
layerId = "95F0E3FF-6822-4CFD-805E-5B95C02D9EC6";
paths = (
{
closed = 1;
nodes = (
"483 -18 OFFCURVE",
"543 26 OFFCURVE",
"543 80 CURVE SMOOTH",
"543 114 OFFCURVE",
"529 141 OFFCURVE",
"507 159 CURVE",
"472 140 OFFCURVE",
"437 123 OFFCURVE",
"383 123 CURVE SMOOTH",
"281 123 OFFCURVE",
"215 189 OFFCURVE",
"215 304 CURVE SMOOTH",
"215 418 OFFCURVE",
"272 484 OFFCURVE",
"374 484 CURVE",
"426 484 OFFCURVE",
"464 465 OFFCURVE",
"498 443 CURVE",
"520 458 OFFCURVE",
"541 484 OFFCURVE",
"541 518 CURVE SMOOTH",
"541 580 OFFCURVE",
"470 625 OFFCURVE",
"348 625 CURVE SMOOTH",
"175 625 OFFCURVE",
"35 511 OFFCURVE",
"35 304 CURVE SMOOTH",
"35 81 OFFCURVE",
"181 -18 OFFCURVE",
"359 -18 CURVE SMOOTH"
);
},
{
closed = 1;
nodes = (
"418 705 LINE SMOOTH",
"464 723 OFFCURVE",
"486 744 OFFCURVE",
"486 782 CURVE SMOOTH",
"486 816 OFFCURVE",
"460 846 OFFCURVE",
"395 851 CURVE",
"248 763 LINE",
"227 752 OFFCURVE",
"217 734 OFFCURVE",
"217 715 CURVE SMOOTH",
"217 686 OFFCURVE",
"243 659 OFFCURVE",
"281 651 CURVE"
);
}
);
width = 571;
}
);
leftKerningGroup = O;
rightKerningGroup = C;
unicode = 0106;
},
{
glyphname = Ccaron;
layers = (
{
layerId = "95F0E3FF-6822-4CFD-805E-5B95C02D9EC6";
paths = (
{
closed = 1;
nodes = (
"483 -18 OFFCURVE",
"543 26 OFFCURVE",
"543 80 CURVE SMOOTH",
"543 114 OFFCURVE",
"529 141 OFFCURVE",
"507 159 CURVE",
"472 140 OFFCURVE",
"437 123 OFFCURVE",
"383 123 CURVE SMOOTH",
"281 123 OFFCURVE",
"215 189 OFFCURVE",
"215 304 CURVE SMOOTH",
"215 418 OFFCURVE",
"272 484 OFFCURVE",
"374 484 CURVE",
"426 484 OFFCURVE",
"464 465 OFFCURVE",
"498 443 CURVE",
"520 458 OFFCURVE",
"541 484 OFFCURVE",
"541 518 CURVE SMOOTH",
"541 580 OFFCURVE",
"470 625 OFFCURVE",
"348 625 CURVE SMOOTH",
"175 625 OFFCURVE",
"35 511 OFFCURVE",
"35 304 CURVE SMOOTH",
"35 81 OFFCURVE",
"181 -18 OFFCURVE",
"359 -18 CURVE SMOOTH"
);
},
{
closed = 1;
nodes = (
"363 662 OFFCURVE",
"385 670 OFFCURVE",
"401 682 CURVE SMOOTH",
"456 724 LINE SMOOTH",
"492 752 OFFCURVE",
"502 766 OFFCURVE",
"502 793 CURVE SMOOTH",
"502 828 OFFCURVE",
"472 854 OFFCURVE",
"428 854 CURVE",
"333 778 LINE",
"307 803 LINE",
"265 843 OFFCURVE",
"246 851 OFFCURVE",
"220 851 CURVE SMOOTH",
"179 851 OFFCURVE",
"160 819 OFFCURVE",
"160 774 CURVE",
"241 703 LINE SMOOTH",
"275 673 OFFCURVE",
"301 662 OFFCURVE",
"337 662 CURVE SMOOTH"
);
}
);
width = 571;
}
);
leftKerningGroup = O;
rightKerningGroup = C;
unicode = 010C;
},
{
glyphname = Ccedilla;
layers = (
{
layerId = "95F0E3FF-6822-4CFD-805E-5B95C02D9EC6";
paths = (
{
closed = 1;
nodes = (
"398 -207 OFFCURVE",
"443 -156 OFFCURVE",
"443 -87 CURVE SMOOTH",
"443 -64 OFFCURVE",
"437 -30 OFFCURVE",
"427 -12 CURVE",
"506 0 OFFCURVE",
"543 36 OFFCURVE",
"543 80 CURVE SMOOTH",
"543 114 OFFCURVE",
"529 141 OFFCURVE",
"507 159 CURVE",
"472 140 OFFCURVE",
"437 123 OFFCURVE",
"383 123 CURVE SMOOTH",
"281 123 OFFCURVE",
"215 189 OFFCURVE",
"215 304 CURVE SMOOTH",
"215 418 OFFCURVE",
"272 484 OFFCURVE",
"374 484 CURVE SMOOTH",
"426 484 OFFCURVE",
"464 465 OFFCURVE",
"498 443 CURVE",
"520 458 OFFCURVE",
"541 484 OFFCURVE",
"541 518 CURVE SMOOTH",
"541 580 OFFCURVE",
"470 625 OFFCURVE",
"348 625 CURVE SMOOTH",
"175 625 OFFCURVE",
"35 511 OFFCURVE",
"35 304 CURVE SMOOTH",
"35 112 OFFCURVE",
"144 10 OFFCURVE",
"289 -12 CURVE",
"295 -25 OFFCURVE",
"297 -39 OFFCURVE",
"297 -47 CURVE SMOOTH",
"297 -78 OFFCURVE",
"275 -94 OFFCURVE",
"232 -96 CURVE",
"229 -104 OFFCURVE",
"227 -112 OFFCURVE",
"227 -126 CURVE SMOOTH",
"227 -177 OFFCURVE",
"265 -207 OFFCURVE",
"320 -207 CURVE SMOOTH"
);
}
);
width = 571;
}
);
leftKerningGroup = O;
rightKerningGroup = C;
unicode = 00C7;
},
{
glyphname = Ccircumflex;
layers = (
{
layerId = "95F0E3FF-6822-4CFD-805E-5B95C02D9EC6";
paths = (
{
closed = 1;
nodes = (
"483 -18 OFFCURVE",
"543 26 OFFCURVE",
"543 80 CURVE SMOOTH",
"543 114 OFFCURVE",
"529 141 OFFCURVE",
"507 159 CURVE",
"472 140 OFFCURVE",
"437 123 OFFCURVE",
"383 123 CURVE SMOOTH",
"281 123 OFFCURVE",
"215 189 OFFCURVE",
"215 304 CURVE SMOOTH",
"215 418 OFFCURVE",
"272 484 OFFCURVE",
"374 484 CURVE",
"426 484 OFFCURVE",
"464 465 OFFCURVE",
"498 443 CURVE",
"520 458 OFFCURVE",
"541 484 OFFCURVE",
"541 518 CURVE SMOOTH",
"541 580 OFFCURVE",
"470 625 OFFCURVE",
"348 625 CURVE SMOOTH",
"175 625 OFFCURVE",
"35 511 OFFCURVE",
"35 304 CURVE SMOOTH",
"35 81 OFFCURVE",
"181 -18 OFFCURVE",
"359 -18 CURVE SMOOTH"
);
},
{
closed = 1;
nodes = (
"263 683 OFFCURVE",
"294 703 OFFCURVE",
"335 734 CURVE",
"358 713 LINE",
"402 673 OFFCURVE",
"419 665 OFFCURVE",
"445 665 CURVE SMOOTH",
"486 665 OFFCURVE",
"505 697 OFFCURVE",
"505 742 CURVE",
"424 813 LINE",
"389 844 OFFCURVE",
"369 854 OFFCURVE",
"333 854 CURVE SMOOTH",
"307 854 OFFCURVE",
"278 841 OFFCURVE",
"245 818 CURVE SMOOTH",
"209 792 LINE SMOOTH",
"173 767 OFFCURVE",
"163 750 OFFCURVE",
"163 723 CURVE SMOOTH",
"163 688 OFFCURVE",
"194 662 OFFCURVE",
"234 662 CURVE"
);
}
);
width = 571;
}
);
leftKerningGroup = O;
rightKerningGroup = C;
unicode = 0108;
},
{
glyphname = Cdotaccent;
layers = (
{
layerId = "95F0E3FF-6822-4CFD-805E-5B95C02D9EC6";
paths = (
{
closed = 1;
nodes = (
"483 -18 OFFCURVE",
"543 26 OFFCURVE",
"543 80 CURVE SMOOTH",
"543 114 OFFCURVE",
"529 141 OFFCURVE",
"507 159 CURVE",
"472 140 OFFCURVE",
"437 123 OFFCURVE",
"383 123 CURVE SMOOTH",
"281 123 OFFCURVE",
"215 189 OFFCURVE",
"215 304 CURVE SMOOTH",
"215 418 OFFCURVE",
"272 484 OFFCURVE",
"374 484 CURVE",
"426 484 OFFCURVE",
"464 465 OFFCURVE",
"498 443 CURVE",
"520 458 OFFCURVE",
"541 484 OFFCURVE",
"541 518 CURVE SMOOTH",
"541 580 OFFCURVE",
"470 625 OFFCURVE",
"348 625 CURVE SMOOTH",
"175 625 OFFCURVE",
"35 511 OFFCURVE",
"35 304 CURVE SMOOTH",
"35 81 OFFCURVE",
"181 -18 OFFCURVE",
"359 -18 CURVE SMOOTH"
);
},
{
closed = 1;
nodes = (
"393 667 OFFCURVE",
"429 705 OFFCURVE",
"429 754 CURVE SMOOTH",
"429 803 OFFCURVE",
"393 841 OFFCURVE",
"338 841 CURVE SMOOTH",
"285 841 OFFCURVE",
"249 803 OFFCURVE",
"249 754 CURVE",
"249 705 OFFCURVE",
"285 667 OFFCURVE",
"338 667 CURVE SMOOTH"
);
}
);
width = 571;
}
);
leftKerningGroup = O;
rightKerningGroup = C;
unicode = 010A;
},
{
glyphname = D;
layers = (
{
layerId = "95F0E3FF-6822-4CFD-805E-5B95C02D9EC6";
paths = (
{
closed = 1;
nodes = (
"496 -16 OFFCURVE",
"631 92 OFFCURVE",
"631 304 CURVE SMOOTH",
"631 522 OFFCURVE",
"492 623 OFFCURVE",
"285 623 CURVE SMOOTH",
"234 623 OFFCURVE",
"165 619 OFFCURVE",
"108 600 CURVE SMOOTH",
"82 591 OFFCURVE",
"65 577 OFFCURVE",
"65 549 CURVE SMOOTH",
"65 82 LINE SMOOTH",
"65 46 OFFCURVE",
"84 23 OFFCURVE",
"120 9 CURVE SMOOTH",
"173 -11 OFFCURVE",
"249 -16 OFFCURVE",
"295 -16 CURVE"
);
},
{
closed = 1;
nodes = (
"278 125 OFFCURVE",
"253 127 OFFCURVE",
"239 130 CURVE",
"239 478 LINE",
"259 481 OFFCURVE",
"278 482 OFFCURVE",
"297 482 CURVE SMOOTH",
"390 482 OFFCURVE",
"451 420 OFFCURVE",
"451 301 CURVE SMOOTH",
"451 176 OFFCURVE",
"387 125 OFFCURVE",
"296 125 CURVE SMOOTH"
);
}
);
width = 666;
}
);
rightKerningGroup = O;
unicode = 0044;
},
{
glyphname = Eth;
layers = (
{
layerId = "95F0E3FF-6822-4CFD-805E-5B95C02D9EC6";
paths = (
{
closed = 1;
nodes = (
"530 -16 OFFCURVE",
"665 92 OFFCURVE",
"665 304 CURVE SMOOTH",
"665 522 OFFCURVE",
"526 623 OFFCURVE",
"319 623 CURVE SMOOTH",
"268 623 OFFCURVE",
"199 619 OFFCURVE",
"142 600 CURVE SMOOTH",
"116 591 OFFCURVE",
"99 577 OFFCURVE",
"99 549 CURVE SMOOTH",
"99 375 LINE",
"80 375 LINE SMOOTH",
"45 375 OFFCURVE",
"20 355 OFFCURVE",
"20 305 CURVE SMOOTH",
"20 278 OFFCURVE",
"29 252 OFFCURVE",
"38 238 CURVE",
"99 238 LINE",
"99 82 LINE SMOOTH",
"99 46 OFFCURVE",
"118 23 OFFCURVE",
"154 9 CURVE SMOOTH",
"207 -11 OFFCURVE",
"283 -16 OFFCURVE",
"329 -16 CURVE SMOOTH"
);
},
{
closed = 1;
nodes = (
"312 125 OFFCURVE",
"287 127 OFFCURVE",
"273 130 CURVE",
"273 238 LINE",
"326 238 LINE SMOOTH",
"361 238 OFFCURVE",
"386 258 OFFCURVE",
"386 308 CURVE SMOOTH",
"386 335 OFFCURVE",
"377 361 OFFCURVE",
"368 375 CURVE",
"273 375 LINE",
"273 478 LINE",
"293 481 OFFCURVE",
"312 482 OFFCURVE",
"331 482 CURVE SMOOTH",
"424 482 OFFCURVE",
"485 420 OFFCURVE",
"485 301 CURVE SMOOTH",
"485 176 OFFCURVE",
"421 125 OFFCURVE",
"330 125 CURVE SMOOTH"
);
}
);
width = 700;
}
);
rightKerningGroup = O;
unicode = 00D0;
},
{
glyphname = Dcaron;
layers = (
{
layerId = "95F0E3FF-6822-4CFD-805E-5B95C02D9EC6";
paths = (
{
closed = 1;
nodes = (
"489 -16 OFFCURVE",
"624 92 OFFCURVE",
"624 304 CURVE SMOOTH",
"624 522 OFFCURVE",
"485 623 OFFCURVE",
"278 623 CURVE SMOOTH",
"227 623 OFFCURVE",
"158 619 OFFCURVE",
"101 600 CURVE SMOOTH",
"75 591 OFFCURVE",
"58 577 OFFCURVE",
"58 549 CURVE SMOOTH",
"58 82 LINE SMOOTH",
"58 46 OFFCURVE",
"77 23 OFFCURVE",
"113 9 CURVE SMOOTH",
"166 -11 OFFCURVE",
"242 -16 OFFCURVE",
"288 -16 CURVE"
);
},
{
closed = 1;
nodes = (
"271 125 OFFCURVE",
"246 127 OFFCURVE",
"232 130 CURVE",
"232 478 LINE",
"252 481 OFFCURVE",
"271 482 OFFCURVE",
"290 482 CURVE SMOOTH",
"383 482 OFFCURVE",
"444 420 OFFCURVE",
"444 301 CURVE SMOOTH",
"444 176 OFFCURVE",
"380 125 OFFCURVE",
"289 125 CURVE SMOOTH"
);
},
{
closed = 1;
nodes = (
"361 662 OFFCURVE",
"383 670 OFFCURVE",
"399 682 CURVE SMOOTH",
"454 724 LINE SMOOTH",
"490 752 OFFCURVE",
"500 766 OFFCURVE",
"500 793 CURVE SMOOTH",
"500 828 OFFCURVE",
"470 854 OFFCURVE",
"426 854 CURVE",
"331 778 LINE",
"305 803 LINE",
"263 843 OFFCURVE",
"244 851 OFFCURVE",
"218 851 CURVE SMOOTH",
"177 851 OFFCURVE",
"158 819 OFFCURVE",
"158 774 CURVE",
"239 703 LINE SMOOTH",
"273 673 OFFCURVE",
"299 662 OFFCURVE",
"335 662 CURVE SMOOTH"
);
}
);
width = 659;
}
);
rightKerningGroup = O;
unicode = 010E;
},
{
glyphname = Dcroat;
layers = (
{
layerId = "95F0E3FF-6822-4CFD-805E-5B95C02D9EC6";
paths = (
{
closed = 1;
nodes = (
"531 -16 OFFCURVE",
"666 92 OFFCURVE",
"666 304 CURVE SMOOTH",
"666 522 OFFCURVE",
"527 623 OFFCURVE",
"320 623 CURVE SMOOTH",
"269 623 OFFCURVE",
"200 619 OFFCURVE",
"143 600 CURVE SMOOTH",
"117 591 OFFCURVE",
"100 577 OFFCURVE",
"100 549 CURVE SMOOTH",
"100 371 LINE",
"74 371 LINE SMOOTH",
"39 371 OFFCURVE",
"15 352 OFFCURVE",
"15 301 CURVE SMOOTH",
"15 276 OFFCURVE",
"25 250 OFFCURVE",
"33 236 CURVE",
"100 236 LINE",
"100 82 LINE SMOOTH",
"100 46 OFFCURVE",
"119 23 OFFCURVE",
"155 9 CURVE SMOOTH",
"208 -11 OFFCURVE",
"284 -16 OFFCURVE",
"330 -16 CURVE"
);
},
{
closed = 1;
nodes = (
"313 125 OFFCURVE",
"288 127 OFFCURVE",
"274 130 CURVE",
"274 236 LINE",
"321 236 LINE SMOOTH",
"357 236 OFFCURVE",
"380 255 OFFCURVE",
"380 306 CURVE SMOOTH",
"380 331 OFFCURVE",
"373 357 OFFCURVE",
"362 371 CURVE",
"274 371 LINE",
"274 478 LINE",
"294 481 OFFCURVE",
"313 482 OFFCURVE",
"332 482 CURVE SMOOTH",
"425 482 OFFCURVE",
"486 420 OFFCURVE",
"486 301 CURVE SMOOTH",
"486 176 OFFCURVE",
"422 125 OFFCURVE",
"331 125 CURVE SMOOTH"
);
}
);
width = 701;
}
);
rightKerningGroup = O;
unicode = 0110;
},
{
glyphname = E;
layers = (
{
layerId = "95F0E3FF-6822-4CFD-805E-5B95C02D9EC6";
paths = (
{
closed = 1;
nodes = (
"450 -3 LINE SMOOTH",
"486 -3 OFFCURVE",
"510 17 OFFCURVE",
"510 68 CURVE SMOOTH",
"510 95 OFFCURVE",
"501 120 OFFCURVE",
"492 135 CURVE",
"235 135 LINE",
"235 240 LINE",
"419 240 LINE SMOOTH",
"455 240 OFFCURVE",
"478 260 OFFCURVE",
"478 310 CURVE SMOOTH",
"478 337 OFFCURVE",
"469 361 OFFCURVE",
"460 376 CURVE",
"235 376 LINE",
"235 469 LINE",
"446 469 LINE SMOOTH",
"482 469 OFFCURVE",
"506 489 OFFCURVE",
"506 539 CURVE SMOOTH",
"506 566 OFFCURVE",
"497 591 OFFCURVE",
"488 606 CURVE",
"158 606 LINE SMOOTH",
"101 606 OFFCURVE",
"65 570 OFFCURVE",
"65 513 CURVE SMOOTH",
"65 90 LINE SMOOTH",
"65 33 OFFCURVE",
"101 -3 OFFCURVE",
"158 -3 CURVE SMOOTH"
);
}
);
width = 548;
}
);
rightKerningGroup = E;
unicode = 0045;
},
{
glyphname = Eacute;
layers = (
{
layerId = "95F0E3FF-6822-4CFD-805E-5B95C02D9EC6";
paths = (
{
closed = 1;
nodes = (
"443 -3 LINE SMOOTH",
"479 -3 OFFCURVE",
"503 17 OFFCURVE",
"503 68 CURVE SMOOTH",
"503 95 OFFCURVE",
"494 120 OFFCURVE",
"485 135 CURVE",
"228 135 LINE",
"228 240 LINE",
"412 240 LINE SMOOTH",
"448 240 OFFCURVE",
"471 260 OFFCURVE",
"471 310 CURVE SMOOTH",
"471 337 OFFCURVE",
"462 361 OFFCURVE",
"453 376 CURVE",
"228 376 LINE",
"228 469 LINE",
"439 469 LINE SMOOTH",
"475 469 OFFCURVE",
"499 489 OFFCURVE",
"499 539 CURVE SMOOTH",
"499 566 OFFCURVE",
"490 591 OFFCURVE",
"481 606 CURVE",
"151 606 LINE SMOOTH",
"94 606 OFFCURVE",
"58 570 OFFCURVE",
"58 513 CURVE SMOOTH",
"58 90 LINE",
"58 33 OFFCURVE",
"94 -3 OFFCURVE",
"151 -3 CURVE SMOOTH"
);
},
{
closed = 1;
nodes = (
"351 705 LINE SMOOTH",
"397 723 OFFCURVE",
"419 744 OFFCURVE",
"419 782 CURVE SMOOTH",
"419 816 OFFCURVE",
"393 846 OFFCURVE",
"328 851 CURVE",
"181 763 LINE",
"160 752 OFFCURVE",
"150 734 OFFCURVE",
"150 715 CURVE SMOOTH",
"150 686 OFFCURVE",
"176 659 OFFCURVE",
"214 651 CURVE"
);
}
);
width = 541;
}
);
rightKerningGroup = E;
unicode = 00C9;
},
{
glyphname = Ebreve;
layers = (
{
layerId = "95F0E3FF-6822-4CFD-805E-5B95C02D9EC6";
paths = (
{
closed = 1;
nodes = (
"443 -3 LINE SMOOTH",
"479 -3 OFFCURVE",
"503 17 OFFCURVE",
"503 68 CURVE SMOOTH",
"503 95 OFFCURVE",
"494 120 OFFCURVE",
"485 135 CURVE",
"228 135 LINE",
"228 240 LINE",
"412 240 LINE SMOOTH",
"448 240 OFFCURVE",
"471 260 OFFCURVE",
"471 310 CURVE SMOOTH",
"471 337 OFFCURVE",
"462 361 OFFCURVE",
"453 376 CURVE",
"228 376 LINE",
"228 469 LINE",
"439 469 LINE SMOOTH",
"475 469 OFFCURVE",
"499 489 OFFCURVE",
"499 539 CURVE SMOOTH",
"499 566 OFFCURVE",
"490 591 OFFCURVE",
"481 606 CURVE",
"151 606 LINE SMOOTH",
"94 606 OFFCURVE",
"58 570 OFFCURVE",
"58 513 CURVE SMOOTH",
"58 90 LINE",
"58 33 OFFCURVE",
"94 -3 OFFCURVE",
"151 -3 CURVE SMOOTH"
);
},
{
closed = 1;
nodes = (
"379 683 OFFCURVE",
"442 729 OFFCURVE",
"442 789 CURVE SMOOTH",
"442 824 OFFCURVE",
"416 861 OFFCURVE",
"362 861 CURVE SMOOTH",
"356 861 OFFCURVE",
"351 861 OFFCURVE",
"344 860 CURVE",
"336 831 OFFCURVE",
"309 808 OFFCURVE",
"268 808 CURVE SMOOTH",
"227 808 OFFCURVE",
"199 831 OFFCURVE",
"192 860 CURVE",
"185 861 OFFCURVE",
"180 861 OFFCURVE",
"174 861 CURVE SMOOTH",
"120 861 OFFCURVE",
"94 824 OFFCURVE",
"94 789 CURVE SMOOTH",
"94 729 OFFCURVE",
"157 683 OFFCURVE",
"268 683 CURVE"
);
}
);
width = 541;
}
);
rightKerningGroup = E;
unicode = 0114;
},
{
glyphname = Ecaron;
layers = (
{
layerId = "95F0E3FF-6822-4CFD-805E-5B95C02D9EC6";
paths = (
{
closed = 1;
nodes = (
"443 -3 LINE SMOOTH",
"479 -3 OFFCURVE",
"503 17 OFFCURVE",
"503 68 CURVE SMOOTH",
"503 95 OFFCURVE",
"494 120 OFFCURVE",
"485 135 CURVE",
"228 135 LINE",
"228 240 LINE",
"412 240 LINE SMOOTH",
"448 240 OFFCURVE",
"471 260 OFFCURVE",
"471 310 CURVE SMOOTH",
"471 337 OFFCURVE",
"462 361 OFFCURVE",
"453 376 CURVE",
"228 376 LINE",
"228 469 LINE",
"439 469 LINE SMOOTH",
"475 469 OFFCURVE",
"499 489 OFFCURVE",
"499 539 CURVE SMOOTH",
"499 566 OFFCURVE",
"490 591 OFFCURVE",
"481 606 CURVE",
"151 606 LINE SMOOTH",
"94 606 OFFCURVE",
"58 570 OFFCURVE",
"58 513 CURVE SMOOTH",
"58 90 LINE",
"58 33 OFFCURVE",
"94 -3 OFFCURVE",
"151 -3 CURVE SMOOTH"
);
},
{
closed = 1;
nodes = (
"299 662 OFFCURVE",
"321 670 OFFCURVE",
"337 682 CURVE SMOOTH",
"392 724 LINE SMOOTH",
"428 752 OFFCURVE",
"438 766 OFFCURVE",
"438 793 CURVE SMOOTH",
"438 828 OFFCURVE",
"408 854 OFFCURVE",
"364 854 CURVE",
"269 778 LINE",
"243 803 LINE",
"201 843 OFFCURVE",
"182 851 OFFCURVE",
"156 851 CURVE SMOOTH",
"115 851 OFFCURVE",
"96 819 OFFCURVE",
"96 774 CURVE",
"177 703 LINE SMOOTH",
"211 673 OFFCURVE",
"237 662 OFFCURVE",
"273 662 CURVE SMOOTH"
);
}
);
width = 541;
}
);
rightKerningGroup = E;
unicode = 011A;
},
{
glyphname = Ecircumflex;
layers = (
{
layerId = "95F0E3FF-6822-4CFD-805E-5B95C02D9EC6";
paths = (
{
closed = 1;
nodes = (
"443 -3 LINE SMOOTH",
"479 -3 OFFCURVE",
"503 17 OFFCURVE",
"503 68 CURVE SMOOTH",
"503 95 OFFCURVE",
"494 120 OFFCURVE",
"485 135 CURVE",
"228 135 LINE",
"228 240 LINE",
"412 240 LINE SMOOTH",
"448 240 OFFCURVE",
"471 260 OFFCURVE",
"471 310 CURVE SMOOTH",
"471 337 OFFCURVE",
"462 361 OFFCURVE",
"453 376 CURVE",
"228 376 LINE",
"228 469 LINE",
"439 469 LINE SMOOTH",
"475 469 OFFCURVE",
"499 489 OFFCURVE",
"499 539 CURVE SMOOTH",
"499 566 OFFCURVE",
"490 591 OFFCURVE",
"481 606 CURVE",
"151 606 LINE SMOOTH",
"94 606 OFFCURVE",
"58 570 OFFCURVE",
"58 513 CURVE SMOOTH",
"58 90 LINE",
"58 33 OFFCURVE",
"94 -3 OFFCURVE",
"151 -3 CURVE SMOOTH"
);
},
{
closed = 1;
nodes = (
"200 683 OFFCURVE",
"231 703 OFFCURVE",
"272 734 CURVE",
"295 713 LINE",
"339 673 OFFCURVE",
"356 665 OFFCURVE",
"382 665 CURVE SMOOTH",
"423 665 OFFCURVE",
"442 697 OFFCURVE",
"442 742 CURVE",
"361 813 LINE",
"326 844 OFFCURVE",
"306 854 OFFCURVE",
"270 854 CURVE SMOOTH",
"244 854 OFFCURVE",
"215 841 OFFCURVE",
"182 818 CURVE SMOOTH",
"146 792 LINE SMOOTH",
"110 767 OFFCURVE",
"100 750 OFFCURVE",
"100 723 CURVE SMOOTH",
"100 688 OFFCURVE",
"131 662 OFFCURVE",
"171 662 CURVE"
);
}
);
width = 541;
}
);
rightKerningGroup = E;
unicode = 00CA;
},
{
glyphname = Edieresis;
layers = (
{
layerId = "95F0E3FF-6822-4CFD-805E-5B95C02D9EC6";
paths = (
{
closed = 1;
nodes = (
"443 -3 LINE SMOOTH",
"479 -3 OFFCURVE",
"503 17 OFFCURVE",
"503 68 CURVE SMOOTH",
"503 95 OFFCURVE",
"494 120 OFFCURVE",
"485 135 CURVE",
"228 135 LINE",
"228 240 LINE",
"412 240 LINE SMOOTH",
"448 240 OFFCURVE",
"471 260 OFFCURVE",
"471 310 CURVE SMOOTH",
"471 337 OFFCURVE",
"462 361 OFFCURVE",
"453 376 CURVE",
"228 376 LINE",
"228 469 LINE",
"439 469 LINE SMOOTH",
"475 469 OFFCURVE",
"499 489 OFFCURVE",
"499 539 CURVE SMOOTH",
"499 566 OFFCURVE",
"490 591 OFFCURVE",
"481 606 CURVE",
"151 606 LINE SMOOTH",
"94 606 OFFCURVE",
"58 570 OFFCURVE",
"58 513 CURVE SMOOTH",
"58 90 LINE",
"58 33 OFFCURVE",
"94 -3 OFFCURVE",
"151 -3 CURVE SMOOTH"
);
},
{
closed = 1;
nodes = (
"212 671 OFFCURVE",
"247 710 OFFCURVE",
"247 757 CURVE SMOOTH",
"247 803 OFFCURVE",
"212 843 OFFCURVE",
"157 843 CURVE SMOOTH",
"108 843 OFFCURVE",
"70 803 OFFCURVE",
"70 757 CURVE",
"70 710 OFFCURVE",
"108 671 OFFCURVE",
"157 671 CURVE SMOOTH"
);
},
{
closed = 1;
nodes = (
"434 671 OFFCURVE",
"471 710 OFFCURVE",
"471 757 CURVE SMOOTH",
"471 803 OFFCURVE",
"434 843 OFFCURVE",
"383 843 CURVE SMOOTH",
"328 843 OFFCURVE",
"294 803 OFFCURVE",
"294 757 CURVE",
"294 710 OFFCURVE",
"328 671 OFFCURVE",
"383 671 CURVE SMOOTH"
);
}
);
width = 541;
}
);
rightKerningGroup = E;
unicode = 00CB;
},
{
glyphname = Edotaccent;
layers = (
{
layerId = "95F0E3FF-6822-4CFD-805E-5B95C02D9EC6";
paths = (
{
closed = 1;
nodes = (
"443 -3 LINE SMOOTH",
"479 -3 OFFCURVE",
"503 17 OFFCURVE",
"503 68 CURVE SMOOTH",
"503 95 OFFCURVE",
"494 120 OFFCURVE",
"485 135 CURVE",
"228 135 LINE",
"228 240 LINE",
"412 240 LINE SMOOTH",
"448 240 OFFCURVE",
"471 260 OFFCURVE",
"471 310 CURVE SMOOTH",
"471 337 OFFCURVE",
"462 361 OFFCURVE",
"453 376 CURVE",
"228 376 LINE",
"228 469 LINE",
"439 469 LINE SMOOTH",
"475 469 OFFCURVE",
"499 489 OFFCURVE",
"499 539 CURVE SMOOTH",
"499 566 OFFCURVE",
"490 591 OFFCURVE",
"481 606 CURVE",
"151 606 LINE SMOOTH",
"94 606 OFFCURVE",
"58 570 OFFCURVE",
"58 513 CURVE SMOOTH",
"58 90 LINE",
"58 33 OFFCURVE",
"94 -3 OFFCURVE",
"151 -3 CURVE SMOOTH"
);
},
{
closed = 1;
nodes = (
"319 667 OFFCURVE",
"355 705 OFFCURVE",
"355 754 CURVE SMOOTH",
"355 803 OFFCURVE",
"319 841 OFFCURVE",
"264 841 CURVE SMOOTH",
"211 841 OFFCURVE",
"175 803 OFFCURVE",
"175 754 CURVE",
"175 705 OFFCURVE",
"211 667 OFFCURVE",
"264 667 CURVE SMOOTH"
);
}
);
width = 541;
}
);
rightKerningGroup = E;
unicode = 0116;
},
{
glyphname = Egrave;
layers = (
{
layerId = "95F0E3FF-6822-4CFD-805E-5B95C02D9EC6";
paths = (
{
closed = 1;
nodes = (
"443 -3 LINE SMOOTH",
"479 -3 OFFCURVE",
"503 17 OFFCURVE",
"503 68 CURVE SMOOTH",
"503 95 OFFCURVE",
"494 120 OFFCURVE",
"485 135 CURVE",
"228 135 LINE",
"228 240 LINE",
"412 240 LINE SMOOTH",
"448 240 OFFCURVE",
"471 260 OFFCURVE",
"471 310 CURVE SMOOTH",
"471 337 OFFCURVE",
"462 361 OFFCURVE",
"453 376 CURVE",
"228 376 LINE",
"228 469 LINE",
"439 469 LINE SMOOTH",
"475 469 OFFCURVE",
"499 489 OFFCURVE",
"499 539 CURVE SMOOTH",
"499 566 OFFCURVE",
"490 591 OFFCURVE",
"481 606 CURVE",
"151 606 LINE SMOOTH",
"94 606 OFFCURVE",
"58 570 OFFCURVE",
"58 513 CURVE SMOOTH",
"58 90 LINE",
"58 33 OFFCURVE",
"94 -3 OFFCURVE",
"151 -3 CURVE SMOOTH"
);
},
{
closed = 1;
nodes = (
"369 653 OFFCURVE",
"396 683 OFFCURVE",
"396 730 CURVE SMOOTH",
"396 735 OFFCURVE",
"396 741 OFFCURVE",
"395 746 CURVE",
"259 816 LINE SMOOTH",
"232 830 OFFCURVE",
"213 840 OFFCURVE",
"189 840 CURVE SMOOTH",
"144 840 OFFCURVE",
"116 810 OFFCURVE",
"116 768 CURVE SMOOTH",
"116 756 OFFCURVE",
"118 740 OFFCURVE",
"124 726 CURVE",
"278 666 LINE",
"298 658 OFFCURVE",
"317 653 OFFCURVE",
"335 653 CURVE SMOOTH"
);
}
);
width = 541;
}
);
rightKerningGroup = E;
unicode = 00C8;
},
{
glyphname = Emacron;
layers = (
{
layerId = "95F0E3FF-6822-4CFD-805E-5B95C02D9EC6";
paths = (
{
closed = 1;
nodes = (
"443 -3 LINE SMOOTH",
"479 -3 OFFCURVE",
"503 17 OFFCURVE",
"503 68 CURVE SMOOTH",
"503 95 OFFCURVE",
"494 120 OFFCURVE",
"485 135 CURVE",
"228 135 LINE",
"228 240 LINE",
"412 240 LINE SMOOTH",
"448 240 OFFCURVE",
"471 260 OFFCURVE",
"471 310 CURVE SMOOTH",
"471 337 OFFCURVE",
"462 361 OFFCURVE",
"453 376 CURVE",
"228 376 LINE",
"228 469 LINE",
"439 469 LINE SMOOTH",
"475 469 OFFCURVE",
"499 489 OFFCURVE",
"499 539 CURVE SMOOTH",
"499 566 OFFCURVE",
"490 591 OFFCURVE",
"481 606 CURVE",
"151 606 LINE SMOOTH",
"94 606 OFFCURVE",
"58 570 OFFCURVE",
"58 513 CURVE SMOOTH",
"58 90 LINE",
"58 33 OFFCURVE",
"94 -3 OFFCURVE",
"151 -3 CURVE SMOOTH"
);
},
{
closed = 1;
nodes = (
"414 694 LINE",
"447 694 OFFCURVE",
"468 711 OFFCURVE",
"468 760 CURVE SMOOTH",
"468 784 OFFCURVE",
"463 808 OFFCURVE",
"452 822 CURVE",
"187 822 LINE SMOOTH",
"154 822 OFFCURVE",
"132 805 OFFCURVE",
"132 756 CURVE SMOOTH",
"132 732 OFFCURVE",
"142 708 OFFCURVE",
"148 694 CURVE"
);
}
);
width = 541;
}
);
rightKerningGroup = E;
unicode = 0112;
},
{
glyphname = Eogonek;
layers = (
{
layerId = "95F0E3FF-6822-4CFD-805E-5B95C02D9EC6";
paths = (
{
closed = 1;
nodes = (
"459 -202 OFFCURVE",
"481 -166 OFFCURVE",
"481 -128 CURVE SMOOTH",
"481 -111 OFFCURVE",
"478 -98 OFFCURVE",
"474 -86 CURVE",
"436 -86 OFFCURVE",
"415 -70 OFFCURVE",
"415 -43 CURVE SMOOTH",
"415 -23 OFFCURVE",
"422 -13 OFFCURVE",
"431 -3 CURVE",
"446 -3 LINE",
"480 -2 OFFCURVE",
"503 18 OFFCURVE",
"503 68 CURVE SMOOTH",
"503 95 OFFCURVE",
"494 120 OFFCURVE",
"485 135 CURVE",
"228 135 LINE",
"228 240 LINE",
"412 240 LINE SMOOTH",
"448 240 OFFCURVE",
"471 260 OFFCURVE",
"471 310 CURVE SMOOTH",
"471 337 OFFCURVE",
"462 361 OFFCURVE",
"453 376 CURVE",
"228 376 LINE",
"228 469 LINE",
"439 469 LINE SMOOTH",
"475 469 OFFCURVE",
"499 489 OFFCURVE",
"499 539 CURVE SMOOTH",
"499 566 OFFCURVE",
"490 591 OFFCURVE",
"481 606 CURVE",
"151 606 LINE SMOOTH",
"94 606 OFFCURVE",
"58 570 OFFCURVE",
"58 513 CURVE SMOOTH",
"58 90 LINE SMOOTH",
"58 33 OFFCURVE",
"94 -3 OFFCURVE",
"151 -3 CURVE SMOOTH",
"297 -3 LINE",
"279 -18 OFFCURVE",
"260 -44 OFFCURVE",
"260 -88 CURVE SMOOTH",
"260 -160 OFFCURVE",
"318 -202 OFFCURVE",
"389 -202 CURVE SMOOTH"
);
}
);
width = 541;
}
);
rightKerningGroup = E;
unicode = 0118;
},
{
glyphname = F;
layers = (
{
layerId = "95F0E3FF-6822-4CFD-805E-5B95C02D9EC6";
paths = (
{
closed = 1;
nodes = (
"189 -5 OFFCURVE",
"226 0 OFFCURVE",
"240 4 CURVE",
"240 215 LINE",
"415 215 LINE SMOOTH",
"452 215 OFFCURVE",
"476 235 OFFCURVE",
"476 286 CURVE SMOOTH",
"476 313 OFFCURVE",
"467 338 OFFCURVE",
"457 353 CURVE",
"238 353 LINE",
"238 466 LINE",
"448 466 LINE SMOOTH",
"485 466 OFFCURVE",
"509 486 OFFCURVE",
"509 538 CURVE SMOOTH",
"509 565 OFFCURVE",
"500 591 OFFCURVE",
"491 606 CURVE",
"158 606 LINE SMOOTH",
"101 606 OFFCURVE",
"65 570 OFFCURVE",
"65 513 CURVE SMOOTH",
"65 78 LINE SMOOTH",
"65 9 OFFCURVE",
"97 -5 OFFCURVE",
"159 -5 CURVE SMOOTH"
);
}
);
width = 531;
}
);
unicode = 0046;
},
{
glyphname = G;
layers = (
{
layerId = "95F0E3FF-6822-4CFD-805E-5B95C02D9EC6";
paths = (
{
closed = 1;
nodes = (
"451 -16 OFFCURVE",
"531 2 OFFCURVE",
"568 24 CURVE SMOOTH",
"600 43 OFFCURVE",
"614 58 OFFCURVE",
"614 99 CURVE SMOOTH",
"614 303 LINE SMOOTH",
"614 343 OFFCURVE",
"591 366 OFFCURVE",
"551 366 CURVE SMOOTH",
"382 366 LINE SMOOTH",
"347 366 OFFCURVE",
"323 346 OFFCURVE",
"323 298 CURVE SMOOTH",
"323 271 OFFCURVE",
"332 246 OFFCURVE",
"340 231 CURVE",
"447 231 LINE",
"447 137 LINE",
"435 131 OFFCURVE",
"411 124 OFFCURVE",
"382 124 CURVE SMOOTH",
"292 124 OFFCURVE",
"215 178 OFFCURVE",
"215 301 CURVE SMOOTH",
"215 414 OFFCURVE",
"287 482 OFFCURVE",
"398 482 CURVE SMOOTH",
"460 482 OFFCURVE",
"512 458 OFFCURVE",
"545 438 CURVE",
"567 453 OFFCURVE",
"588 479 OFFCURVE",
"588 513 CURVE SMOOTH",
"588 578 OFFCURVE",
"508 623 OFFCURVE",
"382 623 CURVE SMOOTH",
"205 623 OFFCURVE",
"35 517 OFFCURVE",
"35 298 CURVE SMOOTH",
"35 89 OFFCURVE",
"188 -16 OFFCURVE",
"380 -16 CURVE SMOOTH"
);
}
);
width = 664;
}
);
leftKerningGroup = O;
rightKerningGroup = G;
unicode = 0047;
},
{
glyphname = Gbreve;
layers = (
{
layerId = "95F0E3FF-6822-4CFD-805E-5B95C02D9EC6";
paths = (
{
closed = 1;
nodes = (
"451 -16 OFFCURVE",
"531 2 OFFCURVE",
"568 24 CURVE SMOOTH",
"600 43 OFFCURVE",
"614 58 OFFCURVE",
"614 99 CURVE SMOOTH",
"614 303 LINE",
"614 343 OFFCURVE",
"591 366 OFFCURVE",
"551 366 CURVE SMOOTH",
"382 366 LINE SMOOTH",
"347 366 OFFCURVE",
"323 346 OFFCURVE",
"323 298 CURVE SMOOTH",
"323 271 OFFCURVE",
"332 246 OFFCURVE",
"340 231 CURVE",
"447 231 LINE",
"447 137 LINE",
"435 131 OFFCURVE",
"411 124 OFFCURVE",
"382 124 CURVE SMOOTH",
"292 124 OFFCURVE",
"215 178 OFFCURVE",
"215 301 CURVE SMOOTH",
"215 414 OFFCURVE",
"287 482 OFFCURVE",
"398 482 CURVE SMOOTH",
"460 482 OFFCURVE",
"512 458 OFFCURVE",
"545 438 CURVE",
"567 453 OFFCURVE",
"588 479 OFFCURVE",
"588 513 CURVE SMOOTH",
"588 578 OFFCURVE",
"508 623 OFFCURVE",
"382 623 CURVE SMOOTH",
"205 623 OFFCURVE",
"35 517 OFFCURVE",
"35 298 CURVE SMOOTH",
"35 89 OFFCURVE",
"188 -16 OFFCURVE",
"380 -16 CURVE SMOOTH"
);
},
{
closed = 1;
nodes = (
"462 681 OFFCURVE",
"525 727 OFFCURVE",
"525 787 CURVE SMOOTH",
"525 822 OFFCURVE",
"499 859 OFFCURVE",
"445 859 CURVE SMOOTH",
"439 859 OFFCURVE",
"434 859 OFFCURVE",
"427 858 CURVE",
"419 829 OFFCURVE",
"392 806 OFFCURVE",
"351 806 CURVE SMOOTH",
"310 806 OFFCURVE",
"282 829 OFFCURVE",
"275 858 CURVE",
"268 859 OFFCURVE",
"263 859 OFFCURVE",
"257 859 CURVE SMOOTH",
"203 859 OFFCURVE",
"177 822 OFFCURVE",
"177 787 CURVE SMOOTH",
"177 727 OFFCURVE",
"240 681 OFFCURVE",
"351 681 CURVE"
);
}
);
width = 664;
}
);
leftKerningGroup = O;
rightKerningGroup = G;
unicode = 011E;
},
{
glyphname = Gcaron;
layers = (
{
layerId = "95F0E3FF-6822-4CFD-805E-5B95C02D9EC6";
paths = (
{
closed = 1;
nodes = (
"451 -16 OFFCURVE",
"531 2 OFFCURVE",
"568 24 CURVE SMOOTH",
"600 43 OFFCURVE",
"614 58 OFFCURVE",
"614 99 CURVE SMOOTH",
"614 303 LINE",
"614 343 OFFCURVE",
"591 366 OFFCURVE",
"551 366 CURVE SMOOTH",
"382 366 LINE SMOOTH",
"347 366 OFFCURVE",
"323 346 OFFCURVE",
"323 298 CURVE SMOOTH",
"323 271 OFFCURVE",
"332 246 OFFCURVE",
"340 231 CURVE",
"447 231 LINE",
"447 137 LINE",
"435 131 OFFCURVE",
"411 124 OFFCURVE",
"382 124 CURVE SMOOTH",
"292 124 OFFCURVE",
"215 178 OFFCURVE",
"215 301 CURVE SMOOTH",
"215 414 OFFCURVE",
"287 482 OFFCURVE",
"398 482 CURVE SMOOTH",
"460 482 OFFCURVE",
"512 458 OFFCURVE",
"545 438 CURVE",
"567 453 OFFCURVE",
"588 479 OFFCURVE",
"588 513 CURVE SMOOTH",
"588 578 OFFCURVE",
"508 623 OFFCURVE",
"382 623 CURVE SMOOTH",
"205 623 OFFCURVE",
"35 517 OFFCURVE",
"35 298 CURVE SMOOTH",
"35 89 OFFCURVE",
"188 -16 OFFCURVE",
"380 -16 CURVE SMOOTH"
);
},
{
closed = 1;
nodes = (
"372 662 OFFCURVE",
"394 670 OFFCURVE",
"410 682 CURVE SMOOTH",
"465 724 LINE SMOOTH",
"501 752 OFFCURVE",
"511 766 OFFCURVE",
"511 793 CURVE SMOOTH",
"511 828 OFFCURVE",
"481 854 OFFCURVE",
"437 854 CURVE",
"342 778 LINE",
"316 803 LINE",
"274 843 OFFCURVE",
"255 851 OFFCURVE",
"229 851 CURVE SMOOTH",
"188 851 OFFCURVE",
"169 819 OFFCURVE",
"169 774 CURVE",
"250 703 LINE SMOOTH",
"284 673 OFFCURVE",
"310 662 OFFCURVE",
"346 662 CURVE SMOOTH"
);
}
);
width = 664;
}
);
leftKerningGroup = O;
rightKerningGroup = G;
unicode = 01E6;
},
{
glyphname = Gcircumflex;
layers = (
{
layerId = "95F0E3FF-6822-4CFD-805E-5B95C02D9EC6";
paths = (
{
closed = 1;
nodes = (
"451 -16 OFFCURVE",
"531 2 OFFCURVE",
"568 24 CURVE SMOOTH",
"600 43 OFFCURVE",
"614 58 OFFCURVE",
"614 99 CURVE SMOOTH",
"614 303 LINE",
"614 343 OFFCURVE",
"591 366 OFFCURVE",
"551 366 CURVE SMOOTH",
"382 366 LINE SMOOTH",
"347 366 OFFCURVE",
"323 346 OFFCURVE",
"323 298 CURVE SMOOTH",
"323 271 OFFCURVE",
"332 246 OFFCURVE",
"340 231 CURVE",
"447 231 LINE",
"447 137 LINE",
"435 131 OFFCURVE",
"411 124 OFFCURVE",
"382 124 CURVE SMOOTH",
"292 124 OFFCURVE",
"215 178 OFFCURVE",
"215 301 CURVE SMOOTH",
"215 414 OFFCURVE",
"287 482 OFFCURVE",
"398 482 CURVE SMOOTH",
"460 482 OFFCURVE",
"512 458 OFFCURVE",
"545 438 CURVE",
"567 453 OFFCURVE",
"588 479 OFFCURVE",
"588 513 CURVE SMOOTH",
"588 578 OFFCURVE",
"508 623 OFFCURVE",
"382 623 CURVE SMOOTH",
"205 623 OFFCURVE",
"35 517 OFFCURVE",
"35 298 CURVE SMOOTH",
"35 89 OFFCURVE",
"188 -16 OFFCURVE",
"380 -16 CURVE SMOOTH"
);
},
{
closed = 1;
nodes = (
"291 693 OFFCURVE",
"312 715 OFFCURVE",
"357 753 CURVE",
"391 721 LINE",
"432 678 OFFCURVE",
"445 673 OFFCURVE",
"471 673 CURVE SMOOTH",
"512 673 OFFCURVE",
"535 702 OFFCURVE",
"535 743 CURVE SMOOTH",
"535 749 OFFCURVE",
"534 755 OFFCURVE",
"533 761 CURVE",
"463 823 LINE SMOOTH",
"411 869 OFFCURVE",
"397 875 OFFCURVE",
"361 875 CURVE SMOOTH",
"335 875 OFFCURVE",
"310 866 OFFCURVE",
"278 843 CURVE SMOOTH",
"229 808 LINE SMOOTH",
"194 783 OFFCURVE",
"181 764 OFFCURVE",
"181 737 CURVE SMOOTH",
"181 699 OFFCURVE",
"214 671 OFFCURVE",
"266 671 CURVE"
);
}
);
width = 664;
}
);
leftKerningGroup = O;
rightKerningGroup = G;
unicode = 011C;
},
{
glyphname = Gcommaaccent;
layers = (
{
layerId = "95F0E3FF-6822-4CFD-805E-5B95C02D9EC6";
paths = (
{
closed = 1;
nodes = (
"451 -16 OFFCURVE",
"531 2 OFFCURVE",
"568 24 CURVE SMOOTH",
"600 43 OFFCURVE",
"614 58 OFFCURVE",
"614 99 CURVE SMOOTH",
"614 303 LINE",
"614 343 OFFCURVE",
"591 366 OFFCURVE",
"551 366 CURVE SMOOTH",
"382 366 LINE SMOOTH",
"347 366 OFFCURVE",
"323 346 OFFCURVE",
"323 298 CURVE SMOOTH",
"323 271 OFFCURVE",
"332 246 OFFCURVE",
"340 231 CURVE",
"447 231 LINE",
"447 137 LINE",
"435 131 OFFCURVE",
"411 124 OFFCURVE",
"382 124 CURVE SMOOTH",
"292 124 OFFCURVE",
"215 178 OFFCURVE",
"215 301 CURVE SMOOTH",
"215 414 OFFCURVE",
"287 482 OFFCURVE",
"398 482 CURVE SMOOTH",
"460 482 OFFCURVE",
"512 458 OFFCURVE",
"545 438 CURVE",
"567 453 OFFCURVE",
"588 479 OFFCURVE",
"588 513 CURVE SMOOTH",
"588 578 OFFCURVE",
"508 623 OFFCURVE",
"382 623 CURVE SMOOTH",
"205 623 OFFCURVE",
"35 517 OFFCURVE",
"35 298 CURVE SMOOTH",
"35 89 OFFCURVE",
"188 -16 OFFCURVE",
"380 -16 CURVE SMOOTH"
);
},
{
closed = 1;
nodes = (
"335 -256 OFFCURVE",
"362 -247 OFFCURVE",
"384 -223 CURVE",
"410 -195 OFFCURVE",
"441 -137 OFFCURVE",
"441 -104 CURVE SMOOTH",
"441 -67 OFFCURVE",
"411 -52 OFFCURVE",
"369 -52 CURVE SMOOTH",
"340 -52 OFFCURVE",
"309 -62 OFFCURVE",
"288 -73 CURVE",
"281 -125 OFFCURVE",
"269 -177 OFFCURVE",
"241 -233 CURVE",
"258 -248 OFFCURVE",
"279 -256 OFFCURVE",
"305 -256 CURVE SMOOTH"
);
}
);
width = 664;
}
);
leftKerningGroup = O;
rightKerningGroup = G;
unicode = 0122;
},
{
glyphname = Gdotaccent;
layers = (
{
layerId = "95F0E3FF-6822-4CFD-805E-5B95C02D9EC6";
paths = (
{
closed = 1;
nodes = (
"451 -16 OFFCURVE",
"531 2 OFFCURVE",
"568 24 CURVE SMOOTH",
"600 43 OFFCURVE",
"614 58 OFFCURVE",
"614 99 CURVE SMOOTH",
"614 303 LINE",
"614 343 OFFCURVE",
"591 366 OFFCURVE",
"551 366 CURVE SMOOTH",
"382 366 LINE SMOOTH",
"347 366 OFFCURVE",
"323 346 OFFCURVE",
"323 298 CURVE SMOOTH",
"323 271 OFFCURVE",
"332 246 OFFCURVE",
"340 231 CURVE",
"447 231 LINE",
"447 137 LINE",
"435 131 OFFCURVE",
"411 124 OFFCURVE",
"382 124 CURVE SMOOTH",
"292 124 OFFCURVE",
"215 178 OFFCURVE",
"215 301 CURVE SMOOTH",
"215 414 OFFCURVE",
"287 482 OFFCURVE",
"398 482 CURVE SMOOTH",
"460 482 OFFCURVE",
"512 458 OFFCURVE",
"545 438 CURVE",
"567 453 OFFCURVE",
"588 479 OFFCURVE",
"588 513 CURVE SMOOTH",
"588 578 OFFCURVE",
"508 623 OFFCURVE",
"382 623 CURVE SMOOTH",
"205 623 OFFCURVE",
"35 517 OFFCURVE",
"35 298 CURVE SMOOTH",
"35 89 OFFCURVE",
"188 -16 OFFCURVE",
"380 -16 CURVE SMOOTH"
);
},
{
closed = 1;
nodes = (
"423 670 OFFCURVE",
"459 708 OFFCURVE",
"459 757 CURVE SMOOTH",
"459 806 OFFCURVE",
"423 844 OFFCURVE",
"368 844 CURVE SMOOTH",
"315 844 OFFCURVE",
"279 806 OFFCURVE",
"279 757 CURVE",
"279 708 OFFCURVE",
"315 670 OFFCURVE",
"368 670 CURVE SMOOTH"
);
}
);
width = 664;
}
);
leftKerningGroup = O;
rightKerningGroup = G;
unicode = 0120;
},
{
glyphname = H;
layers = (
{
layerId = "95F0E3FF-6822-4CFD-805E-5B95C02D9EC6";
paths = (
{
closed = 1;
nodes = (
"189 -5 OFFCURVE",
"226 0 OFFCURVE",
"240 4 CURVE",
"240 234 LINE",
"432 234 LINE",
"432 78 LINE SMOOTH",
"432 9 OFFCURVE",
"464 -5 OFFCURVE",
"526 -5 CURVE SMOOTH",
"556 -5 OFFCURVE",
"593 0 OFFCURVE",
"607 4 CURVE",
"607 532 LINE SMOOTH",
"607 601 OFFCURVE",
"574 615 OFFCURVE",
"513 615 CURVE SMOOTH",
"484 615 OFFCURVE",
"446 609 OFFCURVE",
"432 606 CURVE",
"432 372 LINE",
"240 372 LINE",
"240 532 LINE SMOOTH",
"240 601 OFFCURVE",
"207 615 OFFCURVE",
"146 615 CURVE SMOOTH",
"117 615 OFFCURVE",
"79 609 OFFCURVE",
"65 606 CURVE",
"65 78 LINE SMOOTH",
"65 9 OFFCURVE",
"97 -5 OFFCURVE",
"159 -5 CURVE SMOOTH"
);
}
);
width = 672;
}
);
unicode = 0048;
},
{
glyphname = Hbar;
layers = (
{
layerId = "95F0E3FF-6822-4CFD-805E-5B95C02D9EC6";
paths = (
{
closed = 1;
nodes = (
"204 -5 OFFCURVE",
"241 0 OFFCURVE",
"255 4 CURVE",
"255 234 LINE",
"447 234 LINE",
"447 78 LINE SMOOTH",
"447 9 OFFCURVE",
"479 -5 OFFCURVE",
"541 -5 CURVE SMOOTH",
"571 -5 OFFCURVE",
"608 0 OFFCURVE",
"622 4 CURVE",
"622 432 LINE",
"639 432 LINE SMOOTH",
"665 432 OFFCURVE",
"681 447 OFFCURVE",
"681 480 CURVE SMOOTH",
"681 499 OFFCURVE",
"673 516 OFFCURVE",
"668 525 CURVE",
"622 525 LINE",
"622 532 LINE SMOOTH",
"622 601 OFFCURVE",
"589 615 OFFCURVE",
"528 615 CURVE SMOOTH",
"499 615 OFFCURVE",
"461 609 OFFCURVE",
"447 606 CURVE",
"447 525 LINE",
"255 525 LINE",
"255 532 LINE SMOOTH",
"255 601 OFFCURVE",
"222 615 OFFCURVE",
"161 615 CURVE SMOOTH",
"132 615 OFFCURVE",
"94 609 OFFCURVE",
"80 606 CURVE",
"80 525 LINE",
"62 525 LINE SMOOTH",
"36 525 OFFCURVE",
"20 511 OFFCURVE",
"20 478 CURVE SMOOTH",
"20 460 OFFCURVE",
"27 442 OFFCURVE",
"33 432 CURVE",
"80 432 LINE",
"80 78 LINE SMOOTH",
"80 9 OFFCURVE",
"112 -5 OFFCURVE",
"174 -5 CURVE SMOOTH"
);
},
{
closed = 1;
nodes = (
"255 432 LINE",
"447 432 LINE",
"447 372 LINE",
"255 372 LINE"
);
}
);
width = 701;
}
);
unicode = 0126;
},
{
glyphname = Hcircumflex;
layers = (
{
layerId = "95F0E3FF-6822-4CFD-805E-5B95C02D9EC6";
paths = (
{
closed = 1;
nodes = (
"198 -5 OFFCURVE",
"235 0 OFFCURVE",
"249 4 CURVE",
"249 234 LINE",
"441 234 LINE",
"441 78 LINE SMOOTH",
"441 9 OFFCURVE",
"473 -5 OFFCURVE",
"535 -5 CURVE SMOOTH",
"565 -5 OFFCURVE",
"602 0 OFFCURVE",
"616 4 CURVE",
"616 532 LINE",
"616 601 OFFCURVE",
"583 615 OFFCURVE",
"522 615 CURVE SMOOTH",
"493 615 OFFCURVE",
"455 609 OFFCURVE",
"441 606 CURVE",
"441 372 LINE",
"249 372 LINE",
"249 532 LINE SMOOTH",
"249 601 OFFCURVE",
"216 615 OFFCURVE",
"155 615 CURVE SMOOTH",
"126 615 OFFCURVE",
"88 609 OFFCURVE",
"74 606 CURVE",
"74 78 LINE SMOOTH",
"74 9 OFFCURVE",
"106 -5 OFFCURVE",
"168 -5 CURVE SMOOTH"
);
},
{
closed = 1;
nodes = (
"269 683 OFFCURVE",
"300 703 OFFCURVE",
"341 734 CURVE",
"364 713 LINE",
"408 673 OFFCURVE",
"425 665 OFFCURVE",
"451 665 CURVE SMOOTH",
"492 665 OFFCURVE",
"511 697 OFFCURVE",
"511 742 CURVE",
"430 813 LINE",
"395 844 OFFCURVE",
"375 854 OFFCURVE",
"339 854 CURVE SMOOTH",
"313 854 OFFCURVE",
"284 841 OFFCURVE",
"251 818 CURVE SMOOTH",
"215 792 LINE SMOOTH",
"179 767 OFFCURVE",
"169 750 OFFCURVE",
"169 723 CURVE SMOOTH",
"169 688 OFFCURVE",
"200 662 OFFCURVE",
"240 662 CURVE"
);
}
);
width = 643;
}
);
unicode = 0124;
},
{
glyphname = I;
layers = (
{
layerId = "95F0E3FF-6822-4CFD-805E-5B95C02D9EC6";
paths = (
{
closed = 1;
nodes = (
"189 -5 OFFCURVE",
"226 0 OFFCURVE",
"240 4 CURVE",
"240 532 LINE SMOOTH",
"240 601 OFFCURVE",
"207 615 OFFCURVE",
"146 615 CURVE SMOOTH",
"117 615 OFFCURVE",
"79 609 OFFCURVE",
"65 606 CURVE",
"65 78 LINE SMOOTH",
"65 9 OFFCURVE",
"97 -5 OFFCURVE",
"159 -5 CURVE SMOOTH"
);
}
);
width = 305;
}
);
unicode = 0049;
},
{
glyphname = Iacute;
layers = (
{
layerId = "95F0E3FF-6822-4CFD-805E-5B95C02D9EC6";
paths = (
{
closed = 1;
nodes = (
"189 -5 OFFCURVE",
"226 0 OFFCURVE",
"240 4 CURVE",
"240 532 LINE",
"240 601 OFFCURVE",
"207 615 OFFCURVE",
"146 615 CURVE SMOOTH",
"117 615 OFFCURVE",
"79 609 OFFCURVE",
"65 606 CURVE",
"65 78 LINE SMOOTH",
"65 9 OFFCURVE",
"97 -5 OFFCURVE",
"159 -5 CURVE SMOOTH"
);
},
{
closed = 1;
nodes = (
"243 705 LINE SMOOTH",
"289 723 OFFCURVE",
"311 744 OFFCURVE",
"311 782 CURVE SMOOTH",
"311 816 OFFCURVE",
"285 846 OFFCURVE",
"220 851 CURVE",
"73 763 LINE",
"52 752 OFFCURVE",
"42 734 OFFCURVE",
"42 715 CURVE SMOOTH",
"42 686 OFFCURVE",
"68 659 OFFCURVE",
"106 651 CURVE"
);
}
);
width = 305;
}
);
unicode = 00CD;
},
{
glyphname = Icircumflex;
layers = (
{
layerId = "95F0E3FF-6822-4CFD-805E-5B95C02D9EC6";
paths = (
{
closed = 1;
nodes = (
"189 -5 OFFCURVE",
"226 0 OFFCURVE",
"240 4 CURVE",
"240 532 LINE",
"240 601 OFFCURVE",
"207 615 OFFCURVE",
"146 615 CURVE SMOOTH",
"117 615 OFFCURVE",
"79 609 OFFCURVE",
"65 606 CURVE",
"65 78 LINE SMOOTH",
"65 9 OFFCURVE",
"97 -5 OFFCURVE",
"159 -5 CURVE SMOOTH"
);
},
{
closed = 1;
nodes = (
"81 683 OFFCURVE",
"112 703 OFFCURVE",
"153 734 CURVE",
"176 713 LINE",
"220 673 OFFCURVE",
"237 665 OFFCURVE",
"263 665 CURVE SMOOTH",
"304 665 OFFCURVE",
"323 697 OFFCURVE",
"323 742 CURVE",
"242 813 LINE",
"207 844 OFFCURVE",
"187 854 OFFCURVE",
"151 854 CURVE SMOOTH",
"125 854 OFFCURVE",
"96 841 OFFCURVE",
"63 818 CURVE SMOOTH",
"27 792 LINE SMOOTH",
"-9 767 OFFCURVE",
"-19 750 OFFCURVE",
"-19 723 CURVE SMOOTH",
"-19 688 OFFCURVE",
"12 662 OFFCURVE",
"52 662 CURVE"
);
}
);
width = 305;
}
);
unicode = 00CE;
},
{
glyphname = Idieresis;
layers = (
{
layerId = "95F0E3FF-6822-4CFD-805E-5B95C02D9EC6";
paths = (
{
closed = 1;
nodes = (
"189 -5 OFFCURVE",
"226 0 OFFCURVE",
"240 4 CURVE",
"240 532 LINE",
"240 601 OFFCURVE",
"207 615 OFFCURVE",
"146 615 CURVE SMOOTH",
"117 615 OFFCURVE",
"79 609 OFFCURVE",
"65 606 CURVE",
"65 78 LINE SMOOTH",
"65 9 OFFCURVE",
"97 -5 OFFCURVE",
"159 -5 CURVE SMOOTH"
);
},
{
closed = 1;
nodes = (
"89 669 OFFCURVE",
"124 708 OFFCURVE",
"124 755 CURVE SMOOTH",
"124 801 OFFCURVE",
"89 841 OFFCURVE",
"34 841 CURVE SMOOTH",
"-15 841 OFFCURVE",
"-53 801 OFFCURVE",
"-53 755 CURVE",
"-53 708 OFFCURVE",
"-15 669 OFFCURVE",
"34 669 CURVE SMOOTH"
);
},
{
closed = 1;
nodes = (
"311 669 OFFCURVE",
"348 708 OFFCURVE",
"348 755 CURVE SMOOTH",
"348 801 OFFCURVE",
"311 841 OFFCURVE",
"260 841 CURVE SMOOTH",
"205 841 OFFCURVE",
"171 801 OFFCURVE",
"171 755 CURVE",
"171 708 OFFCURVE",
"205 669 OFFCURVE",
"260 669 CURVE SMOOTH"
);
}
);
width = 305;
}
);
unicode = 00CF;
},
{
glyphname = Idotaccent;
layers = (
{
layerId = "95F0E3FF-6822-4CFD-805E-5B95C02D9EC6";
paths = (
{
closed = 1;
nodes = (
"189 -5 OFFCURVE",
"226 0 OFFCURVE",
"240 4 CURVE",
"240 532 LINE",
"240 601 OFFCURVE",
"207 615 OFFCURVE",
"146 615 CURVE SMOOTH",
"117 615 OFFCURVE",
"79 609 OFFCURVE",
"65 606 CURVE",
"65 78 LINE SMOOTH",
"65 9 OFFCURVE",
"97 -5 OFFCURVE",
"159 -5 CURVE SMOOTH"
);
},
{
closed = 1;
nodes = (
"201 668 OFFCURVE",
"237 706 OFFCURVE",
"237 755 CURVE SMOOTH",
"237 804 OFFCURVE",
"201 842 OFFCURVE",
"146 842 CURVE SMOOTH",
"93 842 OFFCURVE",
"57 804 OFFCURVE",
"57 755 CURVE",
"57 706 OFFCURVE",
"93 668 OFFCURVE",
"146 668 CURVE SMOOTH"
);
}
);
width = 305;
}
);
unicode = 0130;
},
{
glyphname = Igrave;
layers = (
{
layerId = "95F0E3FF-6822-4CFD-805E-5B95C02D9EC6";
paths = (
{
closed = 1;
nodes = (
"189 -5 OFFCURVE",
"226 0 OFFCURVE",
"240 4 CURVE",
"240 532 LINE",
"240 601 OFFCURVE",
"207 615 OFFCURVE",
"146 615 CURVE SMOOTH",
"117 615 OFFCURVE",
"79 609 OFFCURVE",
"65 606 CURVE",
"65 78 LINE SMOOTH",
"65 9 OFFCURVE",
"97 -5 OFFCURVE",
"159 -5 CURVE SMOOTH"
);
},
{
closed = 1;
nodes = (
"246 653 OFFCURVE",
"273 683 OFFCURVE",
"273 730 CURVE SMOOTH",
"273 735 OFFCURVE",
"273 741 OFFCURVE",
"272 746 CURVE",
"136 816 LINE SMOOTH",
"109 830 OFFCURVE",
"90 840 OFFCURVE",
"66 840 CURVE SMOOTH",
"21 840 OFFCURVE",
"-7 810 OFFCURVE",
"-7 768 CURVE SMOOTH",
"-7 756 OFFCURVE",
"-5 740 OFFCURVE",
"1 726 CURVE",
"155 666 LINE",
"175 658 OFFCURVE",
"194 653 OFFCURVE",
"212 653 CURVE SMOOTH"
);
}
);
width = 305;
}
);
unicode = 00CC;
},
{
glyphname = Imacron;
layers = (
{
layerId = "95F0E3FF-6822-4CFD-805E-5B95C02D9EC6";
paths = (
{
closed = 1;
nodes = (
"189 -5 OFFCURVE",
"226 0 OFFCURVE",
"240 4 CURVE",
"240 532 LINE",
"240 601 OFFCURVE",
"207 615 OFFCURVE",
"146 615 CURVE SMOOTH",
"117 615 OFFCURVE",
"79 609 OFFCURVE",
"65 606 CURVE",
"65 78 LINE SMOOTH",
"65 9 OFFCURVE",
"97 -5 OFFCURVE",
"159 -5 CURVE SMOOTH"
);
},
{
closed = 1;
nodes = (
"256 692 LINE",
"289 692 OFFCURVE",
"310 709 OFFCURVE",
"310 758 CURVE SMOOTH",
"310 782 OFFCURVE",
"305 806 OFFCURVE",
"294 820 CURVE",
"29 820 LINE SMOOTH",
"-4 820 OFFCURVE",
"-26 803 OFFCURVE",
"-26 754 CURVE SMOOTH",
"-26 730 OFFCURVE",
"-16 706 OFFCURVE",
"-10 692 CURVE"
);
}
);
width = 305;
}
);
unicode = 012A;
},
{
glyphname = Iogonek;
layers = (
{
layerId = "95F0E3FF-6822-4CFD-805E-5B95C02D9EC6";
paths = (
{
closed = 1;
nodes = (
"262 -202 OFFCURVE",
"284 -166 OFFCURVE",
"284 -128 CURVE SMOOTH",
"284 -111 OFFCURVE",
"281 -98 OFFCURVE",
"277 -86 CURVE",
"239 -86 OFFCURVE",
"218 -70 OFFCURVE",
"218 -43 CURVE SMOOTH",
"218 -23 OFFCURVE",
"227 -10 OFFCURVE",
"240 4 CURVE",
"240 532 LINE SMOOTH",
"240 601 OFFCURVE",
"207 615 OFFCURVE",
"146 615 CURVE SMOOTH",
"117 615 OFFCURVE",
"79 609 OFFCURVE",
"65 606 CURVE",
"65 78 LINE SMOOTH",
"65 32 OFFCURVE",
"79 11 OFFCURVE",
"106 1 CURVE",
"83 -14 OFFCURVE",
"63 -44 OFFCURVE",
"63 -88 CURVE SMOOTH",
"63 -160 OFFCURVE",
"121 -202 OFFCURVE",
"192 -202 CURVE SMOOTH"
);
}
);
width = 305;
}
);
unicode = 012E;
},
{
glyphname = Itilde;
layers = (
{
layerId = "95F0E3FF-6822-4CFD-805E-5B95C02D9EC6";
paths = (
{
closed = 1;
nodes = (
"189 -5 OFFCURVE",
"226 0 OFFCURVE",
"240 4 CURVE",
"240 532 LINE",
"240 601 OFFCURVE",
"207 615 OFFCURVE",
"146 615 CURVE SMOOTH",
"117 615 OFFCURVE",
"79 609 OFFCURVE",
"65 606 CURVE",
"65 78 LINE SMOOTH",
"65 9 OFFCURVE",
"97 -5 OFFCURVE",
"159 -5 CURVE SMOOTH"
);
},
{
closed = 1;
nodes = (
"46 692 OFFCURVE",
"60 714 OFFCURVE",
"89 714 CURVE SMOOTH",
"101 714 OFFCURVE",
"113 710 OFFCURVE",
"131 705 CURVE SMOOTH",
"171 693 LINE SMOOTH",
"193 687 OFFCURVE",
"212 685 OFFCURVE",
"230 685 CURVE SMOOTH",
"286 685 OFFCURVE",
"328 713 OFFCURVE",
"328 772 CURVE SMOOTH",
"328 819 OFFCURVE",
"293 852 OFFCURVE",
"246 852 CURVE",
"239 840 OFFCURVE",
"224 817 OFFCURVE",
"195 817 CURVE SMOOTH",
"184 817 OFFCURVE",
"169 821 OFFCURVE",
"145 828 CURVE",
"90 844 OFFCURVE",
"72 846 OFFCURVE",
"54 846 CURVE SMOOTH",
"7 846 OFFCURVE",
"-44 819 OFFCURVE",
"-44 759 CURVE SMOOTH",
"-44 712 OFFCURVE",
"-9 679 OFFCURVE",
"38 679 CURVE"
);
}
);
width = 305;
}
);
unicode = 0128;
},
{
glyphname = J;
layers = (
{
layerId = "95F0E3FF-6822-4CFD-805E-5B95C02D9EC6";
paths = (
{
closed = 1;
nodes = (
"280 -16 OFFCURVE",
"350 44 OFFCURVE",
"350 162 CURVE SMOOTH",
"350 532 LINE SMOOTH",
"350 601 OFFCURVE",
"317 615 OFFCURVE",
"256 615 CURVE SMOOTH",
"227 615 OFFCURVE",
"189 609 OFFCURVE",
"175 606 CURVE",
"175 202 LINE SMOOTH",
"175 151 OFFCURVE",
"154 125 OFFCURVE",
"102 125 CURVE SMOOTH",
"81 125 OFFCURVE",
"65 127 OFFCURVE",
"40 132 CURVE",
"30 120 OFFCURVE",
"21 99 OFFCURVE",
"21 73 CURVE SMOOTH",
"21 41 OFFCURVE",
"35 15 OFFCURVE",
"65 0 CURVE SMOOTH",
"85 -10 OFFCURVE",
"113 -16 OFFCURVE",
"149 -16 CURVE SMOOTH"
);
}
);
width = 412;
}
);
leftKerningGroup = J;
unicode = 004A;
},
{
glyphname = Jcircumflex;
layers = (
{
layerId = "95F0E3FF-6822-4CFD-805E-5B95C02D9EC6";
paths = (
{
closed = 1;
nodes = (
"280 -16 OFFCURVE",
"350 44 OFFCURVE",
"350 162 CURVE SMOOTH",
"350 532 LINE SMOOTH",
"350 601 OFFCURVE",
"317 615 OFFCURVE",
"256 615 CURVE SMOOTH",
"227 615 OFFCURVE",
"189 609 OFFCURVE",
"175 606 CURVE",
"175 202 LINE",
"175 151 OFFCURVE",
"154 125 OFFCURVE",
"102 125 CURVE SMOOTH",
"81 125 OFFCURVE",
"65 127 OFFCURVE",
"40 132 CURVE",
"30 120 OFFCURVE",
"21 99 OFFCURVE",
"21 73 CURVE SMOOTH",
"21 41 OFFCURVE",
"35 15 OFFCURVE",
"65 0 CURVE SMOOTH",
"85 -10 OFFCURVE",
"113 -16 OFFCURVE",
"149 -16 CURVE SMOOTH"
);
},
{
closed = 1;
nodes = (
"185 693 OFFCURVE",
"206 715 OFFCURVE",
"251 753 CURVE",
"285 721 LINE",
"326 678 OFFCURVE",
"339 673 OFFCURVE",
"365 673 CURVE SMOOTH",
"406 673 OFFCURVE",
"429 702 OFFCURVE",
"429 743 CURVE SMOOTH",
"429 749 OFFCURVE",
"428 755 OFFCURVE",
"427 761 CURVE",
"357 823 LINE SMOOTH",
"305 869 OFFCURVE",
"291 875 OFFCURVE",
"255 875 CURVE SMOOTH",
"229 875 OFFCURVE",
"204 866 OFFCURVE",
"172 843 CURVE SMOOTH",
"123 808 LINE SMOOTH",
"88 783 OFFCURVE",
"75 764 OFFCURVE",
"75 737 CURVE SMOOTH",
"75 699 OFFCURVE",
"108 671 OFFCURVE",
"160 671 CURVE"
);
}
);
width = 408;
}
);
leftKerningGroup = J;
unicode = 0134;
},
{
glyphname = K;
layers = (
{
layerId = "95F0E3FF-6822-4CFD-805E-5B95C02D9EC6";
paths = (
{
closed = 1;
nodes = (
"549 -8 OFFCURVE",
"595 26 OFFCURVE",
"595 84 CURVE",
"546 136 OFFCURVE",
"461 226 OFFCURVE",
"395 300 CURVE",
"520 425 LINE SMOOTH",
"559 464 OFFCURVE",
"575 491 OFFCURVE",
"575 526 CURVE SMOOTH",
"575 573 OFFCURVE",
"539 612 OFFCURVE",
"448 612 CURVE",
"240 373 LINE",
"240 532 LINE SMOOTH",
"240 601 OFFCURVE",
"207 615 OFFCURVE",
"146 615 CURVE SMOOTH",
"117 615 OFFCURVE",
"79 609 OFFCURVE",
"65 606 CURVE",
"65 78 LINE SMOOTH",
"65 9 OFFCURVE",
"97 -5 OFFCURVE",
"159 -5 CURVE SMOOTH",
"189 -5 OFFCURVE",
"226 0 OFFCURVE",
"241 4 CURVE",
"241 225 LINE",
"382 61 LINE SMOOTH",
"414 24 OFFCURVE",
"444 -8 OFFCURVE",
"499 -8 CURVE SMOOTH"
);
}
);
width = 615;
}
);
rightKerningGroup = K;
unicode = 004B;
},
{
glyphname = Kcommaaccent;
layers = (
{
layerId = "95F0E3FF-6822-4CFD-805E-5B95C02D9EC6";
paths = (
{
closed = 1;
nodes = (
"542 -8 OFFCURVE",
"588 26 OFFCURVE",
"588 84 CURVE",
"539 136 OFFCURVE",
"454 226 OFFCURVE",
"388 300 CURVE",
"513 425 LINE SMOOTH",
"552 464 OFFCURVE",
"568 491 OFFCURVE",
"568 526 CURVE SMOOTH",
"568 573 OFFCURVE",
"532 612 OFFCURVE",
"441 612 CURVE",
"233 373 LINE",
"233 532 LINE SMOOTH",
"233 601 OFFCURVE",
"200 615 OFFCURVE",
"139 615 CURVE SMOOTH",
"110 615 OFFCURVE",
"72 609 OFFCURVE",
"58 606 CURVE",
"58 78 LINE SMOOTH",
"58 9 OFFCURVE",
"90 -5 OFFCURVE",
"152 -5 CURVE SMOOTH",
"182 -5 OFFCURVE",
"219 0 OFFCURVE",
"234 4 CURVE",
"234 225 LINE",
"375 61 LINE",
"407 24 OFFCURVE",
"437 -8 OFFCURVE",
"492 -8 CURVE SMOOTH"
);
},
{
closed = 1;
nodes = (
"294 -256 OFFCURVE",
"321 -247 OFFCURVE",
"343 -223 CURVE",
"369 -195 OFFCURVE",
"400 -137 OFFCURVE",
"400 -104 CURVE SMOOTH",
"400 -67 OFFCURVE",
"370 -52 OFFCURVE",
"328 -52 CURVE SMOOTH",
"299 -52 OFFCURVE",
"268 -62 OFFCURVE",
"247 -73 CURVE",
"240 -125 OFFCURVE",
"228 -177 OFFCURVE",
"200 -233 CURVE",
"217 -248 OFFCURVE",
"238 -256 OFFCURVE",
"264 -256 CURVE SMOOTH"
);
}
);
width = 608;
}
);
rightKerningGroup = K;
unicode = 0136;
},
{
glyphname = L;
layers = (
{
layerId = "95F0E3FF-6822-4CFD-805E-5B95C02D9EC6";
paths = (
{
closed = 1;
nodes = (
"426 -3 LINE SMOOTH",
"463 -3 OFFCURVE",
"488 17 OFFCURVE",
"488 70 CURVE SMOOTH",
"488 97 OFFCURVE",
"478 123 OFFCURVE",
"469 138 CURVE",
"240 138 LINE",
"240 533 LINE SMOOTH",
"240 602 OFFCURVE",
"207 616 OFFCURVE",
"146 616 CURVE SMOOTH",
"117 616 OFFCURVE",
"79 610 OFFCURVE",
"65 607 CURVE",
"65 90 LINE SMOOTH",
"65 33 OFFCURVE",
"101 -3 OFFCURVE",
"158 -3 CURVE SMOOTH"
);
}
);
width = 513;
}
);
rightKerningGroup = L;
unicode = 004C;
},
{
glyphname = Lacute;
layers = (
{
layerId = "95F0E3FF-6822-4CFD-805E-5B95C02D9EC6";
paths = (
{
closed = 1;
nodes = (
"426 -3 LINE",
"463 -3 OFFCURVE",
"488 17 OFFCURVE",
"488 70 CURVE SMOOTH",
"488 97 OFFCURVE",
"478 123 OFFCURVE",
"469 138 CURVE",
"240 138 LINE",
"240 533 LINE SMOOTH",
"240 602 OFFCURVE",
"207 616 OFFCURVE",
"146 616 CURVE SMOOTH",
"117 616 OFFCURVE",
"79 610 OFFCURVE",
"65 607 CURVE",
"65 90 LINE SMOOTH",
"65 33 OFFCURVE",
"101 -3 OFFCURVE",
"158 -3 CURVE SMOOTH"
);
},
{
closed = 1;
nodes = (
"267 705 LINE SMOOTH",
"313 723 OFFCURVE",
"335 744 OFFCURVE",
"335 782 CURVE SMOOTH",
"335 816 OFFCURVE",
"309 846 OFFCURVE",
"244 851 CURVE",
"97 763 LINE",
"76 752 OFFCURVE",
"66 734 OFFCURVE",
"66 715 CURVE SMOOTH",
"66 686 OFFCURVE",
"92 659 OFFCURVE",
"130 651 CURVE"
);
}
);
width = 513;
}
);
rightKerningGroup = L;
unicode = 0139;
},
{
glyphname = Lcaron;
layers = (
{
layerId = "95F0E3FF-6822-4CFD-805E-5B95C02D9EC6";
paths = (
{
closed = 1;
nodes = (
"426 -3 LINE",
"463 -3 OFFCURVE",
"488 17 OFFCURVE",
"488 70 CURVE SMOOTH",
"488 97 OFFCURVE",
"478 123 OFFCURVE",
"469 138 CURVE",
"240 138 LINE",
"240 533 LINE SMOOTH",
"240 602 OFFCURVE",
"207 616 OFFCURVE",
"146 616 CURVE SMOOTH",
"117 616 OFFCURVE",
"79 610 OFFCURVE",
"65 607 CURVE",
"65 90 LINE SMOOTH",
"65 33 OFFCURVE",
"101 -3 OFFCURVE",
"158 -3 CURVE SMOOTH"
);
},
{
closed = 1;
nodes = (
"183 662 OFFCURVE",
"205 670 OFFCURVE",
"221 682 CURVE SMOOTH",
"276 724 LINE SMOOTH",
"312 752 OFFCURVE",
"322 766 OFFCURVE",
"322 793 CURVE SMOOTH",
"322 828 OFFCURVE",
"292 854 OFFCURVE",
"248 854 CURVE",
"153 778 LINE",
"127 803 LINE",
"85 843 OFFCURVE",
"66 851 OFFCURVE",
"40 851 CURVE SMOOTH",
"-1 851 OFFCURVE",
"-20 819 OFFCURVE",
"-20 774 CURVE",
"61 703 LINE SMOOTH",
"95 673 OFFCURVE",
"121 662 OFFCURVE",
"157 662 CURVE SMOOTH"
);
}
);
width = 513;
}
);
rightKerningGroup = L;
unicode = 013D;
},
{
glyphname = Lcommaaccent;
layers = (
{
layerId = "95F0E3FF-6822-4CFD-805E-5B95C02D9EC6";
paths = (
{
closed = 1;
nodes = (
"426 -3 LINE",
"463 -3 OFFCURVE",
"488 17 OFFCURVE",
"488 70 CURVE SMOOTH",
"488 97 OFFCURVE",
"478 123 OFFCURVE",
"469 138 CURVE",
"240 138 LINE",
"240 533 LINE SMOOTH",
"240 602 OFFCURVE",
"207 616 OFFCURVE",
"146 616 CURVE SMOOTH",
"117 616 OFFCURVE",
"79 610 OFFCURVE",
"65 607 CURVE",
"65 90 LINE SMOOTH",
"65 33 OFFCURVE",
"101 -3 OFFCURVE",
"158 -3 CURVE SMOOTH"
);
},
{
closed = 1;
nodes = (
"248 -256 OFFCURVE",
"275 -247 OFFCURVE",
"297 -223 CURVE",
"323 -195 OFFCURVE",
"354 -137 OFFCURVE",
"354 -104 CURVE SMOOTH",
"354 -67 OFFCURVE",
"324 -52 OFFCURVE",
"282 -52 CURVE SMOOTH",
"253 -52 OFFCURVE",
"222 -62 OFFCURVE",
"201 -73 CURVE",
"194 -125 OFFCURVE",
"182 -177 OFFCURVE",
"154 -233 CURVE",
"171 -248 OFFCURVE",
"192 -256 OFFCURVE",
"218 -256 CURVE SMOOTH"
);
}
);
width = 513;
}
);
rightKerningGroup = L;
unicode = 013B;
},
{
glyphname = Ldot;
layers = (
{
layerId = "95F0E3FF-6822-4CFD-805E-5B95C02D9EC6";
paths = (
{
closed = 1;
nodes = (
"426 -3 LINE",
"463 -3 OFFCURVE",
"488 17 OFFCURVE",
"488 70 CURVE SMOOTH",
"488 97 OFFCURVE",
"478 123 OFFCURVE",
"469 138 CURVE",
"240 138 LINE",
"240 533 LINE SMOOTH",
"240 602 OFFCURVE",
"207 616 OFFCURVE",
"146 616 CURVE SMOOTH",
"117 616 OFFCURVE",
"79 610 OFFCURVE",
"65 607 CURVE",
"65 90 LINE SMOOTH",
"65 33 OFFCURVE",
"101 -3 OFFCURVE",
"158 -3 CURVE SMOOTH"
);
},
{
closed = 1;
nodes = (
"464 243 OFFCURVE",
"502 286 OFFCURVE",
"502 341 CURVE SMOOTH",
"502 396 OFFCURVE",
"464 439 OFFCURVE",
"405 439 CURVE SMOOTH",
"346 439 OFFCURVE",
"308 396 OFFCURVE",
"308 341 CURVE",
"308 286 OFFCURVE",
"346 243 OFFCURVE",
"405 243 CURVE SMOOTH"
);
}
);
width = 527;
}
);
rightKerningGroup = L;
unicode = 013F;
},
{
glyphname = Lslash;
layers = (
{
layerId = "95F0E3FF-6822-4CFD-805E-5B95C02D9EC6";
paths = (
{
closed = 1;
nodes = (
"467 -3 LINE SMOOTH",
"504 -3 OFFCURVE",
"529 17 OFFCURVE",
"529 70 CURVE SMOOTH",
"529 97 OFFCURVE",
"519 123 OFFCURVE",
"510 138 CURVE",
"281 138 LINE",
"281 302 LINE",
"384 346 LINE SMOOTH",
"406 355 OFFCURVE",
"420 371 OFFCURVE",
"420 394 CURVE SMOOTH",
"420 430 OFFCURVE",
"390 465 OFFCURVE",
"372 480 CURVE",
"281 441 LINE",
"281 533 LINE SMOOTH",
"281 602 OFFCURVE",
"248 616 OFFCURVE",
"187 616 CURVE SMOOTH",
"158 616 OFFCURVE",
"120 610 OFFCURVE",
"106 607 CURVE",
"106 366 LINE",
"45 340 LINE SMOOTH",
"23 331 OFFCURVE",
"10 315 OFFCURVE",
"10 291 CURVE SMOOTH",
"10 254 OFFCURVE",
"39 221 OFFCURVE",
"57 206 CURVE",
"106 227 LINE",
"106 90 LINE SMOOTH",
"106 33 OFFCURVE",
"142 -3 OFFCURVE",
"199 -3 CURVE SMOOTH"
);
}
);
width = 544;
}
);
unicode = 0141;
},
{
glyphname = M;
layers = (
{
layerId = "95F0E3FF-6822-4CFD-805E-5B95C02D9EC6";
paths = (
{
closed = 1;
nodes = (
"173 -8 OFFCURVE",
"204 -2 OFFCURVE",
"221 4 CURVE",
"229 155 OFFCURVE",
"226 246 OFFCURVE",
"234 403 CURVE",
"239 403 LINE",
"252 348 OFFCURVE",
"276 283 OFFCURVE",
"313 165 CURVE SMOOTH",
"322 136 OFFCURVE",
"355 125 OFFCURVE",
"403 125 CURVE SMOOTH",
"439 125 OFFCURVE",
"467 135 OFFCURVE",
"484 149 CURVE",
"520 272 OFFCURVE",
"546 346 OFFCURVE",
"559 398 CURVE",
"564 398 LINE",
"568 320 OFFCURVE",
"568 201 OFFCURVE",
"576 56 CURVE SMOOTH",
"579 5 OFFCURVE",
"618 -8 OFFCURVE",
"668 -8 CURVE SMOOTH",
"707 -8 OFFCURVE",
"728 -2 OFFCURVE",
"751 11 CURVE",
"746 109 OFFCURVE",
"717 473 OFFCURVE",
"702 554 CURVE SMOOTH",
"695 590 OFFCURVE",
"651 610 OFFCURVE",
"586 610 CURVE SMOOTH",
"548 610 OFFCURVE",
"515 601 OFFCURVE",
"495 591 CURVE",
"469 521 OFFCURVE",
"435 408 OFFCURVE",
"403 297 CURVE",
"398 297 LINE",
"376 367 OFFCURVE",
"343 476 OFFCURVE",
"319 540 CURVE SMOOTH",
"301 589 OFFCURVE",
"262 610 OFFCURVE",
"192 610 CURVE SMOOTH",
"127 610 OFFCURVE",
"92 584 OFFCURVE",
"81 567 CURVE",
"52 57 LINE",
"52 8 OFFCURVE",
"87 -8 OFFCURVE",
"145 -8 CURVE SMOOTH"
);
}
);
width = 797;
}
);
leftKerningGroup = M;
rightKerningGroup = M;
unicode = 004D;
},
{
glyphname = N;
layers = (
{
layerId = "95F0E3FF-6822-4CFD-805E-5B95C02D9EC6";
paths = (
{
closed = 1;
nodes = (
"559 -8 OFFCURVE",
"595 3 OFFCURVE",
"614 21 CURVE",
"614 535 LINE SMOOTH",
"614 601 OFFCURVE",
"583 615 OFFCURVE",
"524 615 CURVE SMOOTH",
"495 615 OFFCURVE",
"460 610 OFFCURVE",
"446 606 CURVE",
"446 444 LINE SMOOTH",
"446 372 OFFCURVE",
"447 300 OFFCURVE",
"452 228 CURVE",
"447 227 LINE",
"428 275 OFFCURVE",
"414 308 OFFCURVE",
"394 349 CURVE SMOOTH",
"294 551 LINE SMOOTH",
"267 606 OFFCURVE",
"219 615 OFFCURVE",
"170 615 CURVE SMOOTH",
"126 615 OFFCURVE",
"83 601 OFFCURVE",
"65 575 CURVE",
"65 75 LINE SMOOTH",
"65 9 OFFCURVE",
"96 -5 OFFCURVE",
"155 -5 CURVE SMOOTH",
"184 -5 OFFCURVE",
"219 0 OFFCURVE",
"233 4 CURVE",
"233 159 LINE SMOOTH",
"233 230 OFFCURVE",
"233 307 OFFCURVE",
"228 379 CURVE",
"234 380 LINE",
"253 332 OFFCURVE",
"267 299 OFFCURVE",
"287 258 CURVE SMOOTH",
"386 56 LINE SMOOTH",
"414 0 OFFCURVE",
"461 -8 OFFCURVE",
"510 -8 CURVE SMOOTH"
);
}
);
width = 679;
}
);
unicode = 004E;
},
{
glyphname = Nacute;
layers = (
{
layerId = "95F0E3FF-6822-4CFD-805E-5B95C02D9EC6";
paths = (
{
closed = 1;
nodes = (
"552 -8 OFFCURVE",
"588 3 OFFCURVE",
"607 21 CURVE",
"607 535 LINE SMOOTH",
"607 601 OFFCURVE",
"576 615 OFFCURVE",
"517 615 CURVE SMOOTH",
"488 615 OFFCURVE",
"453 610 OFFCURVE",
"439 606 CURVE",
"439 444 LINE SMOOTH",
"439 372 OFFCURVE",
"440 300 OFFCURVE",
"445 228 CURVE",
"440 227 LINE",
"421 275 OFFCURVE",
"407 308 OFFCURVE",
"387 349 CURVE SMOOTH",
"287 551 LINE SMOOTH",
"260 606 OFFCURVE",
"212 615 OFFCURVE",
"163 615 CURVE SMOOTH",
"119 615 OFFCURVE",
"76 601 OFFCURVE",
"58 575 CURVE",
"58 75 LINE SMOOTH",
"58 9 OFFCURVE",
"89 -5 OFFCURVE",
"148 -5 CURVE SMOOTH",
"177 -5 OFFCURVE",
"212 0 OFFCURVE",
"226 4 CURVE",
"226 159 LINE SMOOTH",
"226 230 OFFCURVE",
"226 307 OFFCURVE",
"221 379 CURVE",
"227 380 LINE",
"246 332 OFFCURVE",
"260 299 OFFCURVE",
"280 258 CURVE SMOOTH",
"379 56 LINE SMOOTH",
"407 0 OFFCURVE",
"454 -8 OFFCURVE",
"503 -8 CURVE SMOOTH"
);
},
{
closed = 1;
nodes = (
"418 705 LINE SMOOTH",
"464 723 OFFCURVE",
"486 744 OFFCURVE",
"486 782 CURVE SMOOTH",
"486 816 OFFCURVE",
"460 846 OFFCURVE",
"395 851 CURVE",
"248 763 LINE",
"227 752 OFFCURVE",
"217 734 OFFCURVE",
"217 715 CURVE SMOOTH",
"217 686 OFFCURVE",
"243 659 OFFCURVE",
"281 651 CURVE"
);
}
);
width = 665;
}
);
unicode = 0143;
},
{
glyphname = Ncaron;
layers = (
{
layerId = "95F0E3FF-6822-4CFD-805E-5B95C02D9EC6";
paths = (
{
closed = 1;
nodes = (
"552 -8 OFFCURVE",
"588 3 OFFCURVE",
"607 21 CURVE",
"607 535 LINE SMOOTH",
"607 601 OFFCURVE",
"576 615 OFFCURVE",
"517 615 CURVE SMOOTH",
"488 615 OFFCURVE",
"453 610 OFFCURVE",
"439 606 CURVE",
"439 444 LINE SMOOTH",
"439 372 OFFCURVE",
"440 300 OFFCURVE",
"445 228 CURVE",
"440 227 LINE",
"421 275 OFFCURVE",
"407 308 OFFCURVE",
"387 349 CURVE SMOOTH",
"287 551 LINE SMOOTH",
"260 606 OFFCURVE",
"212 615 OFFCURVE",
"163 615 CURVE SMOOTH",
"119 615 OFFCURVE",
"76 601 OFFCURVE",
"58 575 CURVE",
"58 75 LINE SMOOTH",
"58 9 OFFCURVE",
"89 -5 OFFCURVE",
"148 -5 CURVE SMOOTH",
"177 -5 OFFCURVE",
"212 0 OFFCURVE",
"226 4 CURVE",
"226 159 LINE SMOOTH",
"226 230 OFFCURVE",
"226 307 OFFCURVE",
"221 379 CURVE",
"227 380 LINE",
"246 332 OFFCURVE",
"260 299 OFFCURVE",
"280 258 CURVE SMOOTH",
"379 56 LINE SMOOTH",
"407 0 OFFCURVE",
"454 -8 OFFCURVE",
"503 -8 CURVE SMOOTH"
);
},
{
closed = 1;
nodes = (
"367 662 OFFCURVE",
"389 670 OFFCURVE",
"405 682 CURVE SMOOTH",
"460 724 LINE SMOOTH",
"496 752 OFFCURVE",
"506 766 OFFCURVE",
"506 793 CURVE SMOOTH",
"506 828 OFFCURVE",
"476 854 OFFCURVE",
"432 854 CURVE",
"337 778 LINE",
"311 803 LINE",
"269 843 OFFCURVE",
"250 851 OFFCURVE",
"224 851 CURVE SMOOTH",
"183 851 OFFCURVE",
"164 819 OFFCURVE",
"164 774 CURVE",
"245 703 LINE SMOOTH",
"279 673 OFFCURVE",
"305 662 OFFCURVE",
"341 662 CURVE SMOOTH"
);
}
);
width = 665;
}
);
unicode = 0147;
},
{
glyphname = Ncommaaccent;
layers = (
{
layerId = "95F0E3FF-6822-4CFD-805E-5B95C02D9EC6";
paths = (
{
closed = 1;
nodes = (
"552 -8 OFFCURVE",
"588 3 OFFCURVE",
"607 21 CURVE",
"607 535 LINE SMOOTH",
"607 601 OFFCURVE",
"576 615 OFFCURVE",
"517 615 CURVE SMOOTH",
"488 615 OFFCURVE",
"453 610 OFFCURVE",
"439 606 CURVE",
"439 444 LINE SMOOTH",
"439 372 OFFCURVE",
"440 300 OFFCURVE",
"445 228 CURVE",
"440 227 LINE",
"421 275 OFFCURVE",
"407 308 OFFCURVE",
"387 349 CURVE SMOOTH",
"287 551 LINE SMOOTH",
"260 606 OFFCURVE",
"212 615 OFFCURVE",
"163 615 CURVE SMOOTH",
"119 615 OFFCURVE",
"76 601 OFFCURVE",
"58 575 CURVE",
"58 75 LINE SMOOTH",
"58 9 OFFCURVE",
"89 -5 OFFCURVE",
"148 -5 CURVE SMOOTH",
"177 -5 OFFCURVE",
"212 0 OFFCURVE",
"226 4 CURVE",
"226 159 LINE SMOOTH",
"226 230 OFFCURVE",
"226 307 OFFCURVE",
"221 379 CURVE",
"227 380 LINE",
"246 332 OFFCURVE",
"260 299 OFFCURVE",
"280 258 CURVE SMOOTH",
"379 56 LINE SMOOTH",
"407 0 OFFCURVE",
"454 -8 OFFCURVE",
"503 -8 CURVE SMOOTH"
);
},
{
closed = 1;
nodes = (
"314 -256 OFFCURVE",
"341 -247 OFFCURVE",
"363 -223 CURVE",
"389 -195 OFFCURVE",
"420 -137 OFFCURVE",
"420 -104 CURVE SMOOTH",
"420 -67 OFFCURVE",
"390 -52 OFFCURVE",
"348 -52 CURVE SMOOTH",
"319 -52 OFFCURVE",
"288 -62 OFFCURVE",
"267 -73 CURVE",
"260 -125 OFFCURVE",
"248 -177 OFFCURVE",
"220 -233 CURVE",
"237 -248 OFFCURVE",
"258 -256 OFFCURVE",
"284 -256 CURVE SMOOTH"
);
}
);
width = 665;
}
);
unicode = 0145;
},
{
glyphname = Ntilde;
layers = (
{
layerId = "95F0E3FF-6822-4CFD-805E-5B95C02D9EC6";
paths = (
{
closed = 1;
nodes = (
"552 -8 OFFCURVE",
"588 3 OFFCURVE",
"607 21 CURVE",
"607 535 LINE SMOOTH",
"607 601 OFFCURVE",
"576 615 OFFCURVE",
"517 615 CURVE SMOOTH",
"488 615 OFFCURVE",
"453 610 OFFCURVE",
"439 606 CURVE",
"439 444 LINE SMOOTH",
"439 372 OFFCURVE",
"440 300 OFFCURVE",
"445 228 CURVE",
"440 227 LINE",
"421 275 OFFCURVE",
"407 308 OFFCURVE",
"387 349 CURVE SMOOTH",
"287 551 LINE SMOOTH",
"260 606 OFFCURVE",
"212 615 OFFCURVE",
"163 615 CURVE SMOOTH",
"119 615 OFFCURVE",
"76 601 OFFCURVE",
"58 575 CURVE",
"58 75 LINE SMOOTH",
"58 9 OFFCURVE",
"89 -5 OFFCURVE",
"148 -5 CURVE SMOOTH",
"177 -5 OFFCURVE",
"212 0 OFFCURVE",
"226 4 CURVE",
"226 159 LINE SMOOTH",
"226 230 OFFCURVE",
"226 307 OFFCURVE",
"221 379 CURVE",
"227 380 LINE",
"246 332 OFFCURVE",
"260 299 OFFCURVE",
"280 258 CURVE SMOOTH",
"379 56 LINE SMOOTH",
"407 0 OFFCURVE",
"454 -8 OFFCURVE",
"503 -8 CURVE SMOOTH"
);
},
{
closed = 1;
nodes = (
"239 680 OFFCURVE",
"253 702 OFFCURVE",
"282 702 CURVE SMOOTH",
"294 702 OFFCURVE",
"306 698 OFFCURVE",
"324 693 CURVE SMOOTH",
"364 681 LINE SMOOTH",
"386 675 OFFCURVE",
"405 673 OFFCURVE",
"423 673 CURVE SMOOTH",
"479 673 OFFCURVE",
"521 701 OFFCURVE",
"521 760 CURVE SMOOTH",
"521 807 OFFCURVE",
"486 840 OFFCURVE",
"439 840 CURVE",
"432 828 OFFCURVE",
"417 805 OFFCURVE",
"388 805 CURVE SMOOTH",
"377 805 OFFCURVE",
"362 809 OFFCURVE",
"338 816 CURVE",
"283 832 OFFCURVE",
"265 834 OFFCURVE",
"247 834 CURVE SMOOTH",
"200 834 OFFCURVE",
"149 807 OFFCURVE",
"149 747 CURVE SMOOTH",
"149 700 OFFCURVE",
"184 667 OFFCURVE",
"231 667 CURVE"
);
}
);
width = 665;
}
);
unicode = 00D1;
},
{
glyphname = O;
layers = (
{
layerId = "95F0E3FF-6822-4CFD-805E-5B95C02D9EC6";
paths = (
{
closed = 1;
nodes = (
"533 -18 OFFCURVE",
"668 95 OFFCURVE",
"668 304 CURVE SMOOTH",
"668 512 OFFCURVE",
"529 625 OFFCURVE",
"351 625 CURVE SMOOTH",
"173 625 OFFCURVE",
"35 512 OFFCURVE",
"35 304 CURVE",
"35 99 OFFCURVE",
"169 -18 OFFCURVE",
"351 -18 CURVE SMOOTH"
);
},
{
closed = 1;
nodes = (
"269 123 OFFCURVE",
"215 183 OFFCURVE",
"215 304 CURVE",
"215 424 OFFCURVE",
"270 484 OFFCURVE",
"352 484 CURVE SMOOTH",
"435 484 OFFCURVE",
"488 423 OFFCURVE",
"488 304 CURVE SMOOTH",
"488 183 OFFCURVE",
"434 123 OFFCURVE",
"351 123 CURVE SMOOTH"
);
}
);
width = 703;
}
);
leftKerningGroup = O;
rightKerningGroup = O;
unicode = 004F;
},
{
glyphname = Oacute;
layers = (
{
layerId = "95F0E3FF-6822-4CFD-805E-5B95C02D9EC6";
paths = (
{
closed = 1;
nodes = (
"533 -18 OFFCURVE",
"668 95 OFFCURVE",
"668 304 CURVE SMOOTH",
"668 512 OFFCURVE",
"529 625 OFFCURVE",
"351 625 CURVE SMOOTH",
"173 625 OFFCURVE",
"35 512 OFFCURVE",
"35 304 CURVE",
"35 99 OFFCURVE",
"169 -18 OFFCURVE",
"351 -18 CURVE SMOOTH"
);
},
{
closed = 1;
nodes = (
"269 123 OFFCURVE",
"215 183 OFFCURVE",
"215 304 CURVE",
"215 424 OFFCURVE",
"270 484 OFFCURVE",
"352 484 CURVE SMOOTH",
"435 484 OFFCURVE",
"488 423 OFFCURVE",
"488 304 CURVE SMOOTH",
"488 183 OFFCURVE",
"434 123 OFFCURVE",
"351 123 CURVE SMOOTH"
);
},
{
closed = 1;
nodes = (
"429 705 LINE SMOOTH",
"475 723 OFFCURVE",
"497 744 OFFCURVE",
"497 782 CURVE SMOOTH",
"497 816 OFFCURVE",
"471 846 OFFCURVE",
"406 851 CURVE",
"259 763 LINE",
"238 752 OFFCURVE",
"228 734 OFFCURVE",
"228 715 CURVE SMOOTH",
"228 686 OFFCURVE",
"254 659 OFFCURVE",
"292 651 CURVE"
);
}
);
width = 703;
}
);
leftKerningGroup = O;
rightKerningGroup = O;
unicode = 00D3;
},
{
glyphname = Ocircumflex;
layers = (
{
layerId = "95F0E3FF-6822-4CFD-805E-5B95C02D9EC6";
paths = (
{
closed = 1;
nodes = (
"533 -18 OFFCURVE",
"668 95 OFFCURVE",
"668 304 CURVE SMOOTH",
"668 512 OFFCURVE",
"529 625 OFFCURVE",
"351 625 CURVE SMOOTH",
"173 625 OFFCURVE",
"35 512 OFFCURVE",
"35 304 CURVE",
"35 99 OFFCURVE",
"169 -18 OFFCURVE",
"351 -18 CURVE SMOOTH"
);
},
{
closed = 1;
nodes = (
"269 123 OFFCURVE",
"215 183 OFFCURVE",
"215 304 CURVE",
"215 424 OFFCURVE",
"270 484 OFFCURVE",
"352 484 CURVE SMOOTH",
"435 484 OFFCURVE",
"488 423 OFFCURVE",
"488 304 CURVE SMOOTH",
"488 183 OFFCURVE",
"434 123 OFFCURVE",
"351 123 CURVE SMOOTH"
);
},
{
closed = 1;
nodes = (
"284 683 OFFCURVE",
"315 703 OFFCURVE",
"356 734 CURVE",
"379 713 LINE",
"423 673 OFFCURVE",
"440 665 OFFCURVE",
"466 665 CURVE SMOOTH",
"507 665 OFFCURVE",
"526 697 OFFCURVE",
"526 742 CURVE",
"445 813 LINE",
"410 844 OFFCURVE",
"390 854 OFFCURVE",
"354 854 CURVE SMOOTH",
"328 854 OFFCURVE",
"299 841 OFFCURVE",
"266 818 CURVE SMOOTH",
"230 792 LINE SMOOTH",
"194 767 OFFCURVE",
"184 750 OFFCURVE",
"184 723 CURVE SMOOTH",
"184 688 OFFCURVE",
"215 662 OFFCURVE",
"255 662 CURVE"
);
}
);
width = 703;
}
);
leftKerningGroup = O;
rightKerningGroup = O;
unicode = 00D4;
},
{
glyphname = Odieresis;
layers = (
{
layerId = "95F0E3FF-6822-4CFD-805E-5B95C02D9EC6";
paths = (
{
closed = 1;
nodes = (
"533 -18 OFFCURVE",
"668 95 OFFCURVE",
"668 304 CURVE SMOOTH",
"668 512 OFFCURVE",
"529 625 OFFCURVE",
"351 625 CURVE SMOOTH",
"173 625 OFFCURVE",
"35 512 OFFCURVE",
"35 304 CURVE",
"35 99 OFFCURVE",
"169 -18 OFFCURVE",
"351 -18 CURVE SMOOTH"
);
},
{
closed = 1;
nodes = (
"269 123 OFFCURVE",
"215 183 OFFCURVE",
"215 304 CURVE",
"215 424 OFFCURVE",
"270 484 OFFCURVE",
"352 484 CURVE SMOOTH",
"435 484 OFFCURVE",
"488 423 OFFCURVE",
"488 304 CURVE SMOOTH",
"488 183 OFFCURVE",
"434 123 OFFCURVE",
"351 123 CURVE SMOOTH"
);
},
{
closed = 1;
nodes = (
"291 669 OFFCURVE",
"326 708 OFFCURVE",
"326 755 CURVE SMOOTH",
"326 801 OFFCURVE",
"291 841 OFFCURVE",
"236 841 CURVE SMOOTH",
"187 841 OFFCURVE",
"149 801 OFFCURVE",
"149 755 CURVE",
"149 708 OFFCURVE",
"187 669 OFFCURVE",
"236 669 CURVE SMOOTH"
);
},
{
closed = 1;
nodes = (
"513 669 OFFCURVE",
"550 708 OFFCURVE",
"550 755 CURVE SMOOTH",
"550 801 OFFCURVE",
"513 841 OFFCURVE",
"462 841 CURVE SMOOTH",
"407 841 OFFCURVE",
"373 801 OFFCURVE",
"373 755 CURVE",
"373 708 OFFCURVE",
"407 669 OFFCURVE",
"462 669 CURVE SMOOTH"
);
}
);
width = 703;
}
);
leftKerningGroup = O;
rightKerningGroup = O;
unicode = 00D6;
},
{
glyphname = Ograve;
layers = (
{
layerId = "95F0E3FF-6822-4CFD-805E-5B95C02D9EC6";
paths = (
{
closed = 1;
nodes = (
"533 -18 OFFCURVE",
"668 95 OFFCURVE",
"668 304 CURVE SMOOTH",
"668 512 OFFCURVE",
"529 625 OFFCURVE",
"351 625 CURVE SMOOTH",
"173 625 OFFCURVE",
"35 512 OFFCURVE",
"35 304 CURVE",
"35 99 OFFCURVE",
"169 -18 OFFCURVE",
"351 -18 CURVE SMOOTH"
);
},
{
closed = 1;
nodes = (
"269 123 OFFCURVE",
"215 183 OFFCURVE",
"215 304 CURVE",
"215 424 OFFCURVE",
"270 484 OFFCURVE",
"352 484 CURVE SMOOTH",
"435 484 OFFCURVE",
"488 423 OFFCURVE",
"488 304 CURVE SMOOTH",
"488 183 OFFCURVE",
"434 123 OFFCURVE",
"351 123 CURVE SMOOTH"
);
},
{
closed = 1;
nodes = (
"458 653 OFFCURVE",
"485 683 OFFCURVE",
"485 730 CURVE SMOOTH",
"485 735 OFFCURVE",
"485 741 OFFCURVE",
"484 746 CURVE",
"348 816 LINE SMOOTH",
"321 830 OFFCURVE",
"302 840 OFFCURVE",
"278 840 CURVE SMOOTH",
"233 840 OFFCURVE",
"205 810 OFFCURVE",
"205 768 CURVE SMOOTH",
"205 756 OFFCURVE",
"207 740 OFFCURVE",
"213 726 CURVE",
"367 666 LINE",
"387 658 OFFCURVE",
"406 653 OFFCURVE",
"424 653 CURVE SMOOTH"
);
}
);
width = 703;
}
);
leftKerningGroup = O;
rightKerningGroup = O;
unicode = 00D2;
},
{
glyphname = Ohorn;
layers = (
{
layerId = "95F0E3FF-6822-4CFD-805E-5B95C02D9EC6";
paths = (
{
closed = 1;
nodes = (
"533 -18 OFFCURVE",
"668 95 OFFCURVE",
"668 304 CURVE SMOOTH",
"668 337 OFFCURVE",
"664 368 OFFCURVE",
"658 396 CURVE",
"741 425 OFFCURVE",
"787 513 OFFCURVE",
"787 593 CURVE SMOOTH",
"787 642 OFFCURVE",
"749 661 OFFCURVE",
"706 661 CURVE SMOOTH",
"678 661 OFFCURVE",
"661 655 OFFCURVE",
"642 645 CURVE",
"638 577 OFFCURVE",
"630 536 OFFCURVE",
"612 500 CURVE",
"556 582 OFFCURVE",
"461 625 OFFCURVE",
"351 625 CURVE SMOOTH",
"173 625 OFFCURVE",
"35 512 OFFCURVE",
"35 304 CURVE",
"35 99 OFFCURVE",
"169 -18 OFFCURVE",
"351 -18 CURVE SMOOTH"
);
},
{
closed = 1;
nodes = (
"269 123 OFFCURVE",
"215 183 OFFCURVE",
"215 304 CURVE",
"215 424 OFFCURVE",
"270 484 OFFCURVE",
"352 484 CURVE SMOOTH",
"435 484 OFFCURVE",
"488 423 OFFCURVE",
"488 304 CURVE SMOOTH",
"488 183 OFFCURVE",
"434 123 OFFCURVE",
"351 123 CURVE SMOOTH"
);
}
);
width = 767;
}
);
leftKerningGroup = O;
rightKerningGroup = Ohorn;
unicode = 01A0;
},
{
glyphname = Ohungarumlaut;
layers = (
{
layerId = "95F0E3FF-6822-4CFD-805E-5B95C02D9EC6";
paths = (
{
closed = 1;
nodes = (
"533 -18 OFFCURVE",
"668 95 OFFCURVE",
"668 304 CURVE SMOOTH",
"668 512 OFFCURVE",
"529 625 OFFCURVE",
"351 625 CURVE SMOOTH",
"173 625 OFFCURVE",
"35 512 OFFCURVE",
"35 304 CURVE",
"35 99 OFFCURVE",
"169 -18 OFFCURVE",
"351 -18 CURVE SMOOTH"
);
},
{
closed = 1;
nodes = (
"269 123 OFFCURVE",
"215 183 OFFCURVE",
"215 304 CURVE",
"215 424 OFFCURVE",
"270 484 OFFCURVE",
"352 484 CURVE SMOOTH",
"435 484 OFFCURVE",
"488 423 OFFCURVE",
"488 304 CURVE SMOOTH",
"488 183 OFFCURVE",
"434 123 OFFCURVE",
"351 123 CURVE SMOOTH"
);
},
{
closed = 1;
nodes = (
"322 720 LINE SMOOTH",
"347 741 OFFCURVE",
"358 762 OFFCURVE",
"358 782 CURVE SMOOTH",
"358 821 OFFCURVE",
"319 846 OFFCURVE",
"269 846 CURVE SMOOTH",
"257 846 OFFCURVE",
"243 845 OFFCURVE",
"231 843 CURVE",
"157 743 LINE",
"151 735 OFFCURVE",
"148 725 OFFCURVE",
"148 716 CURVE SMOOTH",
"148 676 OFFCURVE",
"207 653 OFFCURVE",
"245 653 CURVE"
);
},
{
closed = 1;
nodes = (
"548 720 LINE SMOOTH",
"573 741 OFFCURVE",
"584 762 OFFCURVE",
"584 782 CURVE SMOOTH",
"584 821 OFFCURVE",
"545 846 OFFCURVE",
"495 846 CURVE SMOOTH",
"483 846 OFFCURVE",
"469 845 OFFCURVE",
"457 843 CURVE",
"383 743 LINE",
"377 735 OFFCURVE",
"374 725 OFFCURVE",
"374 716 CURVE SMOOTH",
"374 676 OFFCURVE",
"433 653 OFFCURVE",
"471 653 CURVE"
);
}
);
width = 703;
}
);
leftKerningGroup = O;
rightKerningGroup = O;
unicode = 0150;
},
{
glyphname = Omacron;
layers = (
{
layerId = "95F0E3FF-6822-4CFD-805E-5B95C02D9EC6";
paths = (
{
closed = 1;
nodes = (
"533 -18 OFFCURVE",
"668 95 OFFCURVE",
"668 304 CURVE SMOOTH",
"668 512 OFFCURVE",
"529 625 OFFCURVE",
"351 625 CURVE SMOOTH",
"173 625 OFFCURVE",
"35 512 OFFCURVE",
"35 304 CURVE",
"35 99 OFFCURVE",
"169 -18 OFFCURVE",
"351 -18 CURVE SMOOTH"
);
},
{
closed = 1;
nodes = (
"269 123 OFFCURVE",
"215 183 OFFCURVE",
"215 304 CURVE",
"215 424 OFFCURVE",
"270 484 OFFCURVE",
"352 484 CURVE SMOOTH",
"435 484 OFFCURVE",
"488 423 OFFCURVE",
"488 304 CURVE SMOOTH",
"488 183 OFFCURVE",
"434 123 OFFCURVE",
"351 123 CURVE SMOOTH"
);
},
{
closed = 1;
nodes = (
"459 693 LINE",
"492 693 OFFCURVE",
"513 710 OFFCURVE",
"513 759 CURVE SMOOTH",
"513 783 OFFCURVE",
"508 807 OFFCURVE",
"497 821 CURVE",
"232 821 LINE SMOOTH",
"199 821 OFFCURVE",
"177 804 OFFCURVE",
"177 755 CURVE SMOOTH",
"177 731 OFFCURVE",
"187 707 OFFCURVE",
"193 693 CURVE"
);
}
);
width = 703;
}
);
leftKerningGroup = O;
rightKerningGroup = O;
unicode = 014C;
},
{
glyphname = Oslash;
layers = (
{
layerId = "95F0E3FF-6822-4CFD-805E-5B95C02D9EC6";
paths = (
{
closed = 1;
nodes = (
"234 0 LINE",
"270 -12 OFFCURVE",
"309 -18 OFFCURVE",
"351 -18 CURVE SMOOTH",
"533 -18 OFFCURVE",
"668 95 OFFCURVE",
"668 304 CURVE SMOOTH",
"668 412 OFFCURVE",
"630 494 OFFCURVE",
"569 549 CURVE",
"583 571 OFFCURVE",
"597 598 OFFCURVE",
"597 619 CURVE SMOOTH",
"597 649 OFFCURVE",
"560 677 OFFCURVE",
"507 677 CURVE",
"465 607 LINE",
"430 619 OFFCURVE",
"391 625 OFFCURVE",
"351 625 CURVE SMOOTH",
"173 625 OFFCURVE",
"35 512 OFFCURVE",
"35 304 CURVE",
"35 198 OFFCURVE",
"71 116 OFFCURVE",
"130 61 CURVE",
"117 39 OFFCURVE",
"103 10 OFFCURVE",
"103 -8 CURVE SMOOTH",
"103 -41 OFFCURVE",
"138 -69 OFFCURVE",
"193 -69 CURVE"
);
},
{
closed = 1;
nodes = (
"216 234 OFFCURVE",
"210 266 OFFCURVE",
"210 304 CURVE",
"210 424 OFFCURVE",
"270 484 OFFCURVE",
"352 484 CURVE SMOOTH",
"365 484 OFFCURVE",
"377 482 OFFCURVE",
"389 479 CURVE",
"226 208 LINE"
);
},
{
closed = 1;
nodes = (
"338 123 OFFCURVE",
"325 124 OFFCURVE",
"313 127 CURVE",
"477 398 LINE",
"487 372 OFFCURVE",
"493 341 OFFCURVE",
"493 304 CURVE SMOOTH",
"493 183 OFFCURVE",
"434 123 OFFCURVE",
"351 123 CURVE"
);
}
);
width = 703;
}
);
leftKerningGroup = O;
rightKerningGroup = O;
unicode = 00D8;
},
{
glyphname = Otilde;
layers = (
{
layerId = "95F0E3FF-6822-4CFD-805E-5B95C02D9EC6";
paths = (
{
closed = 1;
nodes = (
"533 -18 OFFCURVE",
"668 95 OFFCURVE",
"668 304 CURVE SMOOTH",
"668 512 OFFCURVE",
"529 625 OFFCURVE",
"351 625 CURVE SMOOTH",
"173 625 OFFCURVE",
"35 512 OFFCURVE",
"35 304 CURVE",
"35 99 OFFCURVE",
"169 -18 OFFCURVE",
"351 -18 CURVE SMOOTH"
);
},
{
closed = 1;
nodes = (
"269 123 OFFCURVE",
"215 183 OFFCURVE",
"215 304 CURVE",
"215 424 OFFCURVE",
"270 484 OFFCURVE",
"352 484 CURVE SMOOTH",
"435 484 OFFCURVE",
"488 423 OFFCURVE",
"488 304 CURVE SMOOTH",
"488 183 OFFCURVE",
"434 123 OFFCURVE",
"351 123 CURVE SMOOTH"
);
},
{
closed = 1;
nodes = (
"258 689 OFFCURVE",
"272 711 OFFCURVE",
"301 711 CURVE SMOOTH",
"313 711 OFFCURVE",
"325 707 OFFCURVE",
"343 702 CURVE SMOOTH",
"383 690 LINE SMOOTH",
"405 684 OFFCURVE",
"424 682 OFFCURVE",
"442 682 CURVE SMOOTH",
"498 682 OFFCURVE",
"540 710 OFFCURVE",
"540 769 CURVE SMOOTH",
"540 816 OFFCURVE",
"505 849 OFFCURVE",
"458 849 CURVE",
"451 837 OFFCURVE",
"436 814 OFFCURVE",
"407 814 CURVE SMOOTH",
"396 814 OFFCURVE",
"381 818 OFFCURVE",
"357 825 CURVE",
"302 841 OFFCURVE",
"284 843 OFFCURVE",
"266 843 CURVE SMOOTH",
"219 843 OFFCURVE",
"168 816 OFFCURVE",
"168 756 CURVE SMOOTH",
"168 709 OFFCURVE",
"203 676 OFFCURVE",
"250 676 CURVE"
);
}
);
width = 703;
}
);
leftKerningGroup = O;
rightKerningGroup = O;
unicode = 00D5;
},
{
glyphname = OE;
layers = (
{
layerId = "95F0E3FF-6822-4CFD-805E-5B95C02D9EC6";
paths = (
{
closed = 1;
nodes = (
"407 -18 OFFCURVE",
"459 -3 OFFCURVE",
"502 24 CURVE",
"518 7 OFFCURVE",
"542 -3 OFFCURVE",
"572 -3 CURVE SMOOTH",
"854 -3 LINE SMOOTH",
"890 -3 OFFCURVE",
"914 17 OFFCURVE",
"914 68 CURVE SMOOTH",
"914 95 OFFCURVE",
"905 120 OFFCURVE",
"896 135 CURVE",
"639 135 LINE",
"639 240 LINE",
"823 240 LINE SMOOTH",
"859 240 OFFCURVE",
"882 260 OFFCURVE",
"882 310 CURVE SMOOTH",
"882 337 OFFCURVE",
"873 361 OFFCURVE",
"864 376 CURVE",
"639 376 LINE",
"639 469 LINE",
"850 469 LINE SMOOTH",
"886 469 OFFCURVE",
"910 489 OFFCURVE",
"910 539 CURVE SMOOTH",
"910 566 OFFCURVE",
"901 591 OFFCURVE",
"892 606 CURVE",
"572 606 LINE SMOOTH",
"543 606 OFFCURVE",
"519 597 OFFCURVE",
"503 580 CURVE",
"460 610 OFFCURVE",
"407 625 OFFCURVE",
"351 625 CURVE SMOOTH",
"174 625 OFFCURVE",
"37 512 OFFCURVE",
"37 304 CURVE",
"37 99 OFFCURVE",
"170 -18 OFFCURVE",
"351 -18 CURVE SMOOTH"
);
},
{
closed = 1;
nodes = (
"271 123 OFFCURVE",
"217 183 OFFCURVE",
"217 304 CURVE",
"217 424 OFFCURVE",
"272 484 OFFCURVE",
"354 484 CURVE SMOOTH",
"406 484 OFFCURVE",
"446 464 OFFCURVE",
"469 426 CURVE",
"469 181 LINE",
"446 143 OFFCURVE",
"405 123 OFFCURVE",
"353 123 CURVE SMOOTH"
);
}
);
width = 952;
}
);
rightKerningGroup = E;
unicode = 0152;
},
{
glyphname = P;
layers = (
{
layerId = "95F0E3FF-6822-4CFD-805E-5B95C02D9EC6";
paths = (
{
closed = 1;
nodes = (
"189 -5 OFFCURVE",
"226 0 OFFCURVE",
"240 4 CURVE",
"240 188 LINE",
"311 188 LINE SMOOTH",
"475 188 OFFCURVE",
"557 274 OFFCURVE",
"557 404 CURVE SMOOTH",
"557 538 OFFCURVE",
"456 623 OFFCURVE",
"273 623 CURVE SMOOTH",
"215 623 OFFCURVE",
"153 616 OFFCURVE",
"108 600 CURVE SMOOTH",
"82 591 OFFCURVE",
"65 577 OFFCURVE",
"65 549 CURVE SMOOTH",
"65 78 LINE SMOOTH",
"65 9 OFFCURVE",
"97 -5 OFFCURVE",
"159 -5 CURVE SMOOTH"
);
},
{
closed = 1;
nodes = (
"239 480 LINE",
"253 482 OFFCURVE",
"266 483 OFFCURVE",
"287 483 CURVE SMOOTH",
"347 483 OFFCURVE",
"379 454 OFFCURVE",
"379 404 CURVE SMOOTH",
"379 351 OFFCURVE",
"347 325 OFFCURVE",
"292 325 CURVE SMOOTH",
"239 325 LINE"
);
}
);
width = 581;
}
);
unicode = 0050;
},
{
glyphname = Thorn;
layers = (
{
layerId = "95F0E3FF-6822-4CFD-805E-5B95C02D9EC6";
paths = (
{
closed = 1;
nodes = (
"184 -8 OFFCURVE",
"221 -3 OFFCURVE",
"235 1 CURVE",
"235 91 LINE",
"306 91 LINE SMOOTH",
"470 91 OFFCURVE",
"552 177 OFFCURVE",
"552 307 CURVE SMOOTH",
"552 437 OFFCURVE",
"470 523 OFFCURVE",
"306 523 CURVE SMOOTH",
"235 523 LINE",
"235 540 LINE",
"235 609 OFFCURVE",
"203 623 OFFCURVE",
"141 623 CURVE SMOOTH",
"111 623 OFFCURVE",
"74 618 OFFCURVE",
"60 614 CURVE",
"60 75 LINE SMOOTH",
"60 6 OFFCURVE",
"92 -8 OFFCURVE",
"154 -8 CURVE SMOOTH"
);
},
{
closed = 1;
nodes = (
"234 386 LINE",
"287 386 LINE",
"342 386 OFFCURVE",
"374 360 OFFCURVE",
"374 307 CURVE SMOOTH",
"374 254 OFFCURVE",
"342 228 OFFCURVE",
"287 228 CURVE SMOOTH",
"234 228 LINE"
);
}
);
width = 597;
}
);
unicode = 00DE;
},
{
glyphname = Q;
layers = (
{
layerId = "95F0E3FF-6822-4CFD-805E-5B95C02D9EC6";
paths = (
{
closed = 1;
nodes = (
"662 -158 OFFCURVE",
"705 -125 OFFCURVE",
"705 -49 CURVE SMOOTH",
"705 -44 OFFCURVE",
"705 -38 OFFCURVE",
"704 -30 CURVE",
"647 -13 OFFCURVE",
"574 11 OFFCURVE",
"534 30 CURVE",
"616 82 OFFCURVE",
"668 174 OFFCURVE",
"668 304 CURVE SMOOTH",
"668 512 OFFCURVE",
"529 625 OFFCURVE",
"351 625 CURVE SMOOTH",
"173 625 OFFCURVE",
"35 512 OFFCURVE",
"35 304 CURVE",
"35 99 OFFCURVE",
"169 -18 OFFCURVE",
"351 -18 CURVE SMOOTH",
"359 -18 LINE",
"403 -59 LINE SMOOTH",
"471 -123 OFFCURVE",
"537 -158 OFFCURVE",
"598 -158 CURVE SMOOTH"
);
},
{
closed = 1;
nodes = (
"269 123 OFFCURVE",
"215 183 OFFCURVE",
"215 304 CURVE",
"215 424 OFFCURVE",
"270 484 OFFCURVE",
"352 484 CURVE SMOOTH",
"435 484 OFFCURVE",
"488 423 OFFCURVE",
"488 304 CURVE SMOOTH",
"488 183 OFFCURVE",
"434 123 OFFCURVE",
"351 123 CURVE SMOOTH"
);
}
);
width = 705;
}
);
leftKerningGroup = O;
rightKerningGroup = O;
unicode = 0051;
},
{
glyphname = R;
layers = (
{
layerId = "95F0E3FF-6822-4CFD-805E-5B95C02D9EC6";
paths = (
{
closed = 1;
nodes = (
"527 -8 OFFCURVE",
"566 18 OFFCURVE",
"579 64 CURVE",
"552 110 OFFCURVE",
"501 169 OFFCURVE",
"453 234 CURVE",
"512 266 OFFCURVE",
"561 325 OFFCURVE",
"561 408 CURVE SMOOTH",
"561 540 OFFCURVE",
"467 623 OFFCURVE",
"283 623 CURVE SMOOTH",
"215 623 OFFCURVE",
"153 616 OFFCURVE",
"108 600 CURVE SMOOTH",
"82 591 OFFCURVE",
"65 577 OFFCURVE",
"65 549 CURVE SMOOTH",
"65 78 LINE SMOOTH",
"65 9 OFFCURVE",
"97 -5 OFFCURVE",
"158 -5 CURVE SMOOTH",
"188 -5 OFFCURVE",
"225 0 OFFCURVE",
"239 4 CURVE",
"239 196 LINE",
"292 196 LINE",
"376 61 LINE SMOOTH",
"401 20 OFFCURVE",
"425 -8 OFFCURVE",
"483 -8 CURVE SMOOTH"
);
},
{
closed = 1;
nodes = (
"238 479 LINE",
"252 481 OFFCURVE",
"262 483 OFFCURVE",
"282 483 CURVE SMOOTH",
"352 483 OFFCURVE",
"384 457 OFFCURVE",
"384 406 CURVE SMOOTH",
"384 355 OFFCURVE",
"352 329 OFFCURVE",
"302 329 CURVE SMOOTH",
"238 329 LINE"
);
}
);
width = 609;
}
);
rightKerningGroup = R;
unicode = 0052;
},
{
glyphname = Racute;
layers = (
{
layerId = "95F0E3FF-6822-4CFD-805E-5B95C02D9EC6";
paths = (
{
closed = 1;
nodes = (
"520 -8 OFFCURVE",
"559 18 OFFCURVE",
"572 64 CURVE",
"545 110 OFFCURVE",
"494 169 OFFCURVE",
"446 234 CURVE",
"505 266 OFFCURVE",
"554 325 OFFCURVE",
"554 408 CURVE SMOOTH",
"554 540 OFFCURVE",
"460 623 OFFCURVE",
"276 623 CURVE SMOOTH",
"208 623 OFFCURVE",
"146 616 OFFCURVE",
"101 600 CURVE SMOOTH",
"75 591 OFFCURVE",
"58 577 OFFCURVE",
"58 549 CURVE SMOOTH",
"58 78 LINE SMOOTH",
"58 9 OFFCURVE",
"90 -5 OFFCURVE",
"151 -5 CURVE SMOOTH",
"181 -5 OFFCURVE",
"218 0 OFFCURVE",
"232 4 CURVE",
"232 196 LINE",
"285 196 LINE",
"369 61 LINE SMOOTH",
"394 20 OFFCURVE",
"418 -8 OFFCURVE",
"476 -8 CURVE SMOOTH"
);
},
{
closed = 1;
nodes = (
"231 479 LINE",
"245 481 OFFCURVE",
"255 483 OFFCURVE",
"275 483 CURVE SMOOTH",
"345 483 OFFCURVE",
"377 457 OFFCURVE",
"377 406 CURVE SMOOTH",
"377 355 OFFCURVE",
"345 329 OFFCURVE",
"295 329 CURVE SMOOTH",
"231 329 LINE"
);
},
{
closed = 1;
nodes = (
"378 705 LINE SMOOTH",
"424 723 OFFCURVE",
"446 744 OFFCURVE",
"446 782 CURVE SMOOTH",
"446 816 OFFCURVE",
"420 846 OFFCURVE",
"355 851 CURVE",
"208 763 LINE",
"187 752 OFFCURVE",
"177 734 OFFCURVE",
"177 715 CURVE SMOOTH",
"177 686 OFFCURVE",
"203 659 OFFCURVE",
"241 651 CURVE"
);
}
);
width = 602;
}
);
rightKerningGroup = R;
unicode = 0154;
},
{
glyphname = Rcaron;
layers = (
{
layerId = "95F0E3FF-6822-4CFD-805E-5B95C02D9EC6";
paths = (
{
closed = 1;
nodes = (
"520 -8 OFFCURVE",
"559 18 OFFCURVE",
"572 64 CURVE",
"545 110 OFFCURVE",
"494 169 OFFCURVE",
"446 234 CURVE",
"505 266 OFFCURVE",
"554 325 OFFCURVE",
"554 408 CURVE SMOOTH",
"554 540 OFFCURVE",
"460 623 OFFCURVE",
"276 623 CURVE SMOOTH",
"208 623 OFFCURVE",
"146 616 OFFCURVE",
"101 600 CURVE SMOOTH",
"75 591 OFFCURVE",
"58 577 OFFCURVE",
"58 549 CURVE SMOOTH",
"58 78 LINE SMOOTH",
"58 9 OFFCURVE",
"90 -5 OFFCURVE",
"151 -5 CURVE SMOOTH",
"181 -5 OFFCURVE",
"218 0 OFFCURVE",
"232 4 CURVE",
"232 196 LINE",
"285 196 LINE",
"369 61 LINE SMOOTH",
"394 20 OFFCURVE",
"418 -8 OFFCURVE",
"476 -8 CURVE SMOOTH"
);
},
{
closed = 1;
nodes = (
"231 479 LINE",
"245 481 OFFCURVE",
"255 483 OFFCURVE",
"275 483 CURVE SMOOTH",
"345 483 OFFCURVE",
"377 457 OFFCURVE",
"377 406 CURVE SMOOTH",
"377 355 OFFCURVE",
"345 329 OFFCURVE",
"295 329 CURVE SMOOTH",
"231 329 LINE"
);
},
{
closed = 1;
nodes = (
"334 662 OFFCURVE",
"356 670 OFFCURVE",
"372 682 CURVE SMOOTH",
"427 724 LINE SMOOTH",
"463 752 OFFCURVE",
"473 766 OFFCURVE",
"473 793 CURVE SMOOTH",
"473 828 OFFCURVE",
"443 854 OFFCURVE",
"399 854 CURVE",
"304 778 LINE",
"278 803 LINE",
"236 843 OFFCURVE",
"217 851 OFFCURVE",
"191 851 CURVE SMOOTH",
"150 851 OFFCURVE",
"131 819 OFFCURVE",
"131 774 CURVE",
"212 703 LINE SMOOTH",
"246 673 OFFCURVE",
"272 662 OFFCURVE",
"308 662 CURVE SMOOTH"
);
}
);
width = 602;
}
);
rightKerningGroup = R;
unicode = 0158;
},
{
glyphname = Rcommaaccent;
layers = (
{
layerId = "95F0E3FF-6822-4CFD-805E-5B95C02D9EC6";
paths = (
{
closed = 1;
nodes = (
"520 -8 OFFCURVE",
"559 18 OFFCURVE",
"572 64 CURVE",
"545 110 OFFCURVE",
"494 169 OFFCURVE",
"446 234 CURVE",
"505 266 OFFCURVE",
"554 325 OFFCURVE",
"554 408 CURVE SMOOTH",
"554 540 OFFCURVE",
"460 623 OFFCURVE",
"276 623 CURVE SMOOTH",
"208 623 OFFCURVE",
"146 616 OFFCURVE",
"101 600 CURVE SMOOTH",
"75 591 OFFCURVE",
"58 577 OFFCURVE",
"58 549 CURVE SMOOTH",
"58 78 LINE SMOOTH",
"58 9 OFFCURVE",
"90 -5 OFFCURVE",
"151 -5 CURVE SMOOTH",
"181 -5 OFFCURVE",
"218 0 OFFCURVE",
"232 4 CURVE",
"232 196 LINE",
"285 196 LINE",
"369 61 LINE SMOOTH",
"394 20 OFFCURVE",
"418 -8 OFFCURVE",
"476 -8 CURVE SMOOTH"
);
},
{
closed = 1;
nodes = (
"284 -256 OFFCURVE",
"311 -247 OFFCURVE",
"333 -223 CURVE",
"359 -195 OFFCURVE",
"390 -137 OFFCURVE",
"390 -104 CURVE SMOOTH",
"390 -67 OFFCURVE",
"360 -52 OFFCURVE",
"318 -52 CURVE SMOOTH",
"289 -52 OFFCURVE",
"258 -62 OFFCURVE",
"237 -73 CURVE",
"230 -125 OFFCURVE",
"218 -177 OFFCURVE",
"190 -233 CURVE",
"207 -248 OFFCURVE",
"228 -256 OFFCURVE",
"254 -256 CURVE SMOOTH"
);
},
{
closed = 1;
nodes = (
"231 479 LINE",
"245 481 OFFCURVE",
"255 483 OFFCURVE",
"275 483 CURVE SMOOTH",
"345 483 OFFCURVE",
"377 457 OFFCURVE",
"377 406 CURVE SMOOTH",
"377 355 OFFCURVE",
"345 329 OFFCURVE",
"295 329 CURVE SMOOTH",
"231 329 LINE"
);
}
);
width = 602;
}
);
rightKerningGroup = R;
unicode = 0156;
},
{
glyphname = S;
layers = (
{
layerId = "95F0E3FF-6822-4CFD-805E-5B95C02D9EC6";
paths = (
{
closed = 1;
nodes = (
"429 -16 OFFCURVE",
"521 61 OFFCURVE",
"521 174 CURVE SMOOTH",
"521 281 OFFCURVE",
"452 337 OFFCURVE",
"326 377 CURVE SMOOTH",
"273 394 LINE SMOOTH",
"239 405 OFFCURVE",
"221 416 OFFCURVE",
"221 436 CURVE SMOOTH",
"221 461 OFFCURVE",
"248 480 OFFCURVE",
"308 480 CURVE SMOOTH",
"366 480 OFFCURVE",
"419 464 OFFCURVE",
"448 445 CURVE",
"470 462 OFFCURVE",
"489 487 OFFCURVE",
"489 521 CURVE SMOOTH",
"489 591 OFFCURVE",
"405 623 OFFCURVE",
"289 623 CURVE SMOOTH",
"132 623 OFFCURVE",
"40 549 OFFCURVE",
"40 436 CURVE SMOOTH",
"40 319 OFFCURVE",
"120 280 OFFCURVE",
"237 241 CURVE SMOOTH",
"279 227 LINE SMOOTH",
"318 214 OFFCURVE",
"340 203 OFFCURVE",
"340 176 CURVE SMOOTH",
"340 149 OFFCURVE",
"316 126 OFFCURVE",
"251 126 CURVE SMOOTH",
"187 126 OFFCURVE",
"131 151 OFFCURVE",
"94 180 CURVE",
"67 165 OFFCURVE",
"40 138 OFFCURVE",
"40 99 CURVE SMOOTH",
"40 24 OFFCURVE",
"135 -16 OFFCURVE",
"257 -16 CURVE SMOOTH"
);
}
);
width = 551;
}
);
leftKerningGroup = S;
rightKerningGroup = S;
unicode = 0053;
},
{
glyphname = Sacute;
layers = (
{
layerId = "95F0E3FF-6822-4CFD-805E-5B95C02D9EC6";
paths = (
{
closed = 1;
nodes = (
"429 -16 OFFCURVE",
"521 61 OFFCURVE",
"521 174 CURVE SMOOTH",
"521 281 OFFCURVE",
"452 337 OFFCURVE",
"326 377 CURVE SMOOTH",
"273 394 LINE SMOOTH",
"239 405 OFFCURVE",
"221 416 OFFCURVE",
"221 436 CURVE SMOOTH",
"221 461 OFFCURVE",
"248 480 OFFCURVE",
"308 480 CURVE SMOOTH",
"366 480 OFFCURVE",
"419 464 OFFCURVE",
"448 445 CURVE",
"470 462 OFFCURVE",
"489 487 OFFCURVE",
"489 521 CURVE SMOOTH",
"489 591 OFFCURVE",
"405 623 OFFCURVE",
"289 623 CURVE SMOOTH",
"132 623 OFFCURVE",
"40 549 OFFCURVE",
"40 436 CURVE SMOOTH",
"40 319 OFFCURVE",
"120 280 OFFCURVE",
"237 241 CURVE SMOOTH",
"279 227 LINE",
"318 214 OFFCURVE",
"340 203 OFFCURVE",
"340 176 CURVE SMOOTH",
"340 149 OFFCURVE",
"316 126 OFFCURVE",
"251 126 CURVE SMOOTH",
"187 126 OFFCURVE",
"131 151 OFFCURVE",
"94 180 CURVE",
"67 165 OFFCURVE",
"40 138 OFFCURVE",
"40 99 CURVE SMOOTH",
"40 24 OFFCURVE",
"135 -16 OFFCURVE",
"257 -16 CURVE SMOOTH"
);
},
{
closed = 1;
nodes = (
"359 705 LINE SMOOTH",
"405 723 OFFCURVE",
"427 744 OFFCURVE",
"427 782 CURVE SMOOTH",
"427 816 OFFCURVE",
"401 846 OFFCURVE",
"336 851 CURVE",
"189 763 LINE",
"168 752 OFFCURVE",
"158 734 OFFCURVE",
"158 715 CURVE SMOOTH",
"158 686 OFFCURVE",
"184 659 OFFCURVE",
"222 651 CURVE"
);
}
);
width = 551;
}
);
leftKerningGroup = S;
rightKerningGroup = S;
unicode = 015A;
},
{
glyphname = Scaron;
layers = (
{
layerId = "95F0E3FF-6822-4CFD-805E-5B95C02D9EC6";
paths = (
{
closed = 1;
nodes = (
"429 -16 OFFCURVE",
"521 61 OFFCURVE",
"521 174 CURVE SMOOTH",
"521 281 OFFCURVE",
"452 337 OFFCURVE",
"326 377 CURVE SMOOTH",
"273 394 LINE SMOOTH",
"239 405 OFFCURVE",
"221 416 OFFCURVE",
"221 436 CURVE SMOOTH",
"221 461 OFFCURVE",
"248 480 OFFCURVE",
"308 480 CURVE SMOOTH",
"366 480 OFFCURVE",
"419 464 OFFCURVE",
"448 445 CURVE",
"470 462 OFFCURVE",
"489 487 OFFCURVE",
"489 521 CURVE SMOOTH",
"489 591 OFFCURVE",
"405 623 OFFCURVE",
"289 623 CURVE SMOOTH",
"132 623 OFFCURVE",
"40 549 OFFCURVE",
"40 436 CURVE SMOOTH",
"40 319 OFFCURVE",
"120 280 OFFCURVE",
"237 241 CURVE SMOOTH",
"279 227 LINE",
"318 214 OFFCURVE",
"340 203 OFFCURVE",
"340 176 CURVE SMOOTH",
"340 149 OFFCURVE",
"316 126 OFFCURVE",
"251 126 CURVE SMOOTH",
"187 126 OFFCURVE",
"131 151 OFFCURVE",
"94 180 CURVE",
"67 165 OFFCURVE",
"40 138 OFFCURVE",
"40 99 CURVE SMOOTH",
"40 24 OFFCURVE",
"135 -16 OFFCURVE",
"257 -16 CURVE SMOOTH"
);
},
{
closed = 1;
nodes = (
"303 662 OFFCURVE",
"325 670 OFFCURVE",
"341 682 CURVE SMOOTH",
"396 724 LINE SMOOTH",
"432 752 OFFCURVE",
"442 766 OFFCURVE",
"442 793 CURVE SMOOTH",
"442 828 OFFCURVE",
"412 854 OFFCURVE",
"368 854 CURVE",
"273 778 LINE",
"247 803 LINE",
"205 843 OFFCURVE",
"186 851 OFFCURVE",
"160 851 CURVE SMOOTH",
"119 851 OFFCURVE",
"100 819 OFFCURVE",
"100 774 CURVE",
"181 703 LINE SMOOTH",
"215 673 OFFCURVE",
"241 662 OFFCURVE",
"277 662 CURVE SMOOTH"
);
}
);
width = 551;
}
);
leftKerningGroup = S;
rightKerningGroup = S;
unicode = 0160;
},
{
glyphname = Scedilla;
layers = (
{
layerId = "95F0E3FF-6822-4CFD-805E-5B95C02D9EC6";
paths = (
{
closed = 1;
nodes = (
"321 -207 OFFCURVE",
"366 -156 OFFCURVE",
"366 -87 CURVE SMOOTH",
"366 -51 OFFCURVE",
"353 -23 OFFCURVE",
"344 -8 CURVE",
"460 14 OFFCURVE",
"521 82 OFFCURVE",
"521 174 CURVE SMOOTH",
"521 281 OFFCURVE",
"452 337 OFFCURVE",
"326 377 CURVE SMOOTH",
"273 394 LINE SMOOTH",
"239 405 OFFCURVE",
"221 416 OFFCURVE",
"221 436 CURVE SMOOTH",
"221 461 OFFCURVE",
"248 480 OFFCURVE",
"308 480 CURVE SMOOTH",
"366 480 OFFCURVE",
"419 464 OFFCURVE",
"448 445 CURVE",
"470 462 OFFCURVE",
"489 487 OFFCURVE",
"489 521 CURVE SMOOTH",
"489 591 OFFCURVE",
"405 623 OFFCURVE",
"289 623 CURVE SMOOTH",
"132 623 OFFCURVE",
"40 549 OFFCURVE",
"40 436 CURVE SMOOTH",
"40 319 OFFCURVE",
"120 280 OFFCURVE",
"237 241 CURVE SMOOTH",
"279 227 LINE SMOOTH",
"318 214 OFFCURVE",
"340 203 OFFCURVE",
"340 176 CURVE SMOOTH",
"340 149 OFFCURVE",
"316 126 OFFCURVE",
"251 126 CURVE SMOOTH",
"187 126 OFFCURVE",
"131 151 OFFCURVE",
"94 180 CURVE",
"67 165 OFFCURVE",
"40 138 OFFCURVE",
"40 99 CURVE SMOOTH",
"40 33 OFFCURVE",
"113 -6 OFFCURVE",
"213 -14 CURVE",
"218 -25 OFFCURVE",
"220 -39 OFFCURVE",
"220 -47 CURVE SMOOTH",
"220 -78 OFFCURVE",
"198 -94 OFFCURVE",
"155 -96 CURVE",
"152 -104 OFFCURVE",
"150 -112 OFFCURVE",
"150 -126 CURVE SMOOTH",
"150 -177 OFFCURVE",
"188 -207 OFFCURVE",
"243 -207 CURVE SMOOTH"
);
}
);
width = 551;
}
);
leftKerningGroup = S;
rightKerningGroup = S;
unicode = 015E;
},
{
glyphname = Scircumflex;
layers = (
{
layerId = "95F0E3FF-6822-4CFD-805E-5B95C02D9EC6";
paths = (
{
closed = 1;
nodes = (
"429 -16 OFFCURVE",
"521 61 OFFCURVE",
"521 174 CURVE SMOOTH",
"521 281 OFFCURVE",
"452 337 OFFCURVE",
"326 377 CURVE SMOOTH",
"273 394 LINE SMOOTH",
"239 405 OFFCURVE",
"221 416 OFFCURVE",
"221 436 CURVE SMOOTH",
"221 461 OFFCURVE",
"248 480 OFFCURVE",
"308 480 CURVE SMOOTH",
"366 480 OFFCURVE",
"419 464 OFFCURVE",
"448 445 CURVE",
"470 462 OFFCURVE",
"489 487 OFFCURVE",
"489 521 CURVE SMOOTH",
"489 591 OFFCURVE",
"405 623 OFFCURVE",
"289 623 CURVE SMOOTH",
"132 623 OFFCURVE",
"40 549 OFFCURVE",
"40 436 CURVE SMOOTH",
"40 319 OFFCURVE",
"120 280 OFFCURVE",
"237 241 CURVE SMOOTH",
"279 227 LINE",
"318 214 OFFCURVE",
"340 203 OFFCURVE",
"340 176 CURVE SMOOTH",
"340 149 OFFCURVE",
"316 126 OFFCURVE",
"251 126 CURVE SMOOTH",
"187 126 OFFCURVE",
"131 151 OFFCURVE",
"94 180 CURVE",
"67 165 OFFCURVE",
"40 138 OFFCURVE",
"40 99 CURVE SMOOTH",
"40 24 OFFCURVE",
"135 -16 OFFCURVE",
"257 -16 CURVE SMOOTH"
);
},
{
closed = 1;
nodes = (
"207 683 OFFCURVE",
"238 703 OFFCURVE",
"279 734 CURVE",
"302 713 LINE",
"346 673 OFFCURVE",
"363 665 OFFCURVE",
"389 665 CURVE SMOOTH",
"430 665 OFFCURVE",
"449 697 OFFCURVE",
"449 742 CURVE",
"368 813 LINE",
"333 844 OFFCURVE",
"313 854 OFFCURVE",
"277 854 CURVE SMOOTH",
"251 854 OFFCURVE",
"222 841 OFFCURVE",
"189 818 CURVE SMOOTH",
"153 792 LINE SMOOTH",
"117 767 OFFCURVE",
"107 750 OFFCURVE",
"107 723 CURVE SMOOTH",
"107 688 OFFCURVE",
"138 662 OFFCURVE",
"178 662 CURVE"
);
}
);
width = 551;
}
);
leftKerningGroup = S;
rightKerningGroup = S;
unicode = 015C;
},
{
glyphname = Scommaaccent;
layers = (
{
layerId = "95F0E3FF-6822-4CFD-805E-5B95C02D9EC6";
paths = (
{
closed = 1;
nodes = (
"429 -16 OFFCURVE",
"521 61 OFFCURVE",
"521 174 CURVE SMOOTH",
"521 281 OFFCURVE",
"452 337 OFFCURVE",
"326 377 CURVE SMOOTH",
"273 394 LINE SMOOTH",
"239 405 OFFCURVE",
"221 416 OFFCURVE",
"221 436 CURVE SMOOTH",
"221 461 OFFCURVE",
"248 480 OFFCURVE",
"308 480 CURVE SMOOTH",
"366 480 OFFCURVE",
"419 464 OFFCURVE",
"448 445 CURVE",
"470 462 OFFCURVE",
"489 487 OFFCURVE",
"489 521 CURVE SMOOTH",
"489 591 OFFCURVE",
"405 623 OFFCURVE",
"289 623 CURVE SMOOTH",
"132 623 OFFCURVE",
"40 549 OFFCURVE",
"40 436 CURVE SMOOTH",
"40 319 OFFCURVE",
"120 280 OFFCURVE",
"237 241 CURVE SMOOTH",
"279 227 LINE",
"318 214 OFFCURVE",
"340 203 OFFCURVE",
"340 176 CURVE SMOOTH",
"340 149 OFFCURVE",
"316 126 OFFCURVE",
"251 126 CURVE SMOOTH",
"187 126 OFFCURVE",
"131 151 OFFCURVE",
"94 180 CURVE",
"67 165 OFFCURVE",
"40 138 OFFCURVE",
"40 99 CURVE SMOOTH",
"40 24 OFFCURVE",
"135 -16 OFFCURVE",
"257 -16 CURVE SMOOTH"
);
},
{
closed = 1;
nodes = (
"272 -256 OFFCURVE",
"299 -247 OFFCURVE",
"321 -223 CURVE",
"347 -195 OFFCURVE",
"378 -137 OFFCURVE",
"378 -104 CURVE SMOOTH",
"378 -67 OFFCURVE",
"348 -52 OFFCURVE",
"306 -52 CURVE SMOOTH",
"277 -52 OFFCURVE",
"246 -62 OFFCURVE",
"225 -73 CURVE",
"218 -125 OFFCURVE",
"206 -177 OFFCURVE",
"178 -233 CURVE",
"195 -248 OFFCURVE",
"216 -256 OFFCURVE",
"242 -256 CURVE SMOOTH"
);
}
);
width = 551;
}
);
leftKerningGroup = S;
rightKerningGroup = S;
unicode = 0218;
},
{
glyphname = uni1E9E;
layers = (
{
layerId = "95F0E3FF-6822-4CFD-805E-5B95C02D9EC6";
paths = (
{
closed = 1;
nodes = (
"503 -17 OFFCURVE",
"594 32 OFFCURVE",
"594 139 CURVE SMOOTH",
"594 217 OFFCURVE",
"548 256 OFFCURVE",
"476 289 CURVE SMOOTH",
"460 296 OFFCURVE",
"449 306 OFFCURVE",
"449 320 CURVE SMOOTH",
"449 335 OFFCURVE",
"459 347 OFFCURVE",
"477 354 CURVE SMOOTH",
"521 372 LINE SMOOTH",
"547 383 OFFCURVE",
"556 405 OFFCURVE",
"556 438 CURVE SMOOTH",
"556 572 OFFCURVE",
"450 651 OFFCURVE",
"304 651 CURVE SMOOTH",
"163 651 OFFCURVE",
"54 581 OFFCURVE",
"54 436 CURVE SMOOTH",
"54 72 LINE SMOOTH",
"54 5 OFFCURVE",
"89 -8 OFFCURVE",
"148 -8 CURVE SMOOTH",
"178 -8 OFFCURVE",
"211 -3 OFFCURVE",
"224 1 CURVE",
"224 426 LINE SMOOTH",
"224 483 OFFCURVE",
"258 513 OFFCURVE",
"306 513 CURVE SMOOTH",
"351 513 OFFCURVE",
"382 487 OFFCURVE",
"386 443 CURVE",
"319 421 OFFCURVE",
"275 380 OFFCURVE",
"275 322 CURVE SMOOTH",
"275 253 OFFCURVE",
"311 215 OFFCURVE",
"380 178 CURVE SMOOTH",
"406 164 OFFCURVE",
"420 154 OFFCURVE",
"420 135 CURVE SMOOTH",
"420 116 OFFCURVE",
"401 106 OFFCURVE",
"374 106 CURVE SMOOTH",
"348 106 OFFCURVE",
"324 114 OFFCURVE",
"306 124 CURVE",
"287 111 OFFCURVE",
"273 90 OFFCURVE",
"273 59 CURVE SMOOTH",
"273 8 OFFCURVE",
"327 -17 OFFCURVE",
"406 -17 CURVE SMOOTH"
);
}
);
width = 614;
}
);
unicode = 1E9E;
},
{
glyphname = uni018F;
layers = (
{
layerId = "95F0E3FF-6822-4CFD-805E-5B95C02D9EC6";
paths = (
{
closed = 1;
nodes = (
"510 -16 OFFCURVE",
"637 82 OFFCURVE",
"637 288 CURVE SMOOTH",
"637 509 OFFCURVE",
"480 626 OFFCURVE",
"303 626 CURVE SMOOTH",
"167 626 OFFCURVE",
"66 583 OFFCURVE",
"66 507 CURVE SMOOTH",
"66 473 OFFCURVE",
"82 450 OFFCURVE",
"112 429 CURVE",
"147 456 OFFCURVE",
"213 485 OFFCURVE",
"285 485 CURVE SMOOTH",
"367 485 OFFCURVE",
"424 451 OFFCURVE",
"451 390 CURVE",
"127 341 LINE SMOOTH",
"74 333 OFFCURVE",
"38 306 OFFCURVE",
"38 254 CURVE SMOOTH",
"38 82 OFFCURVE",
"178 -16 OFFCURVE",
"336 -16 CURVE SMOOTH"
);
},
{
closed = 1;
nodes = (
"263 123 OFFCURVE",
"220 168 OFFCURVE",
"213 223 CURVE",
"469 263 LINE",
"468 181 OFFCURVE",
"433 123 OFFCURVE",
"333 123 CURVE SMOOTH"
);
}
);
width = 676;
}
);
rightKerningGroup = O;
unicode = 018F;
},
{
glyphname = T;
layers = (
{
layerId = "95F0E3FF-6822-4CFD-805E-5B95C02D9EC6";
paths = (
{
closed = 1;
nodes = (
"311 -5 OFFCURVE",
"348 0 OFFCURVE",
"362 4 CURVE",
"362 466 LINE",
"473 466 LINE SMOOTH",
"510 466 OFFCURVE",
"536 487 OFFCURVE",
"536 539 CURVE SMOOTH",
"536 567 OFFCURVE",
"526 594 OFFCURVE",
"517 609 CURVE",
"81 609 LINE SMOOTH",
"44 609 OFFCURVE",
"18 588 OFFCURVE",
"18 536 CURVE SMOOTH",
"18 508 OFFCURVE",
"28 481 OFFCURVE",
"37 466 CURVE",
"187 466 LINE",
"187 78 LINE SMOOTH",
"187 9 OFFCURVE",
"219 -5 OFFCURVE",
"281 -5 CURVE SMOOTH"
);
}
);
width = 556;
}
);
leftKerningGroup = T;
rightKerningGroup = T;
unicode = 0054;
},
{
glyphname = Tcaron;
layers = (
{
layerId = "95F0E3FF-6822-4CFD-805E-5B95C02D9EC6";
paths = (
{
closed = 1;
nodes = (
"311 -5 OFFCURVE",
"348 0 OFFCURVE",
"362 4 CURVE",
"362 466 LINE",
"473 466 LINE SMOOTH",
"510 466 OFFCURVE",
"536 487 OFFCURVE",
"536 539 CURVE SMOOTH",
"536 567 OFFCURVE",
"526 594 OFFCURVE",
"517 609 CURVE",
"81 609 LINE SMOOTH",
"44 609 OFFCURVE",
"18 588 OFFCURVE",
"18 536 CURVE SMOOTH",
"18 508 OFFCURVE",
"28 481 OFFCURVE",
"37 466 CURVE",
"187 466 LINE",
"187 78 LINE SMOOTH",
"187 9 OFFCURVE",
"219 -5 OFFCURVE",
"281 -5 CURVE SMOOTH"
);
},
{
closed = 1;
nodes = (
"314 662 OFFCURVE",
"336 670 OFFCURVE",
"352 682 CURVE SMOOTH",
"407 724 LINE SMOOTH",
"443 752 OFFCURVE",
"453 766 OFFCURVE",
"453 793 CURVE SMOOTH",
"453 828 OFFCURVE",
"423 854 OFFCURVE",
"379 854 CURVE",
"284 778 LINE",
"258 803 LINE",
"216 843 OFFCURVE",
"197 851 OFFCURVE",
"171 851 CURVE SMOOTH",
"130 851 OFFCURVE",
"111 819 OFFCURVE",
"111 774 CURVE",
"192 703 LINE SMOOTH",
"226 673 OFFCURVE",
"252 662 OFFCURVE",
"288 662 CURVE SMOOTH"
);
}
);
width = 556;
}
);
leftKerningGroup = T;
rightKerningGroup = T;
unicode = 0164;
},
{
glyphname = Tcommaaccent;
layers = (
{
layerId = "95F0E3FF-6822-4CFD-805E-5B95C02D9EC6";
paths = (
{
closed = 1;
nodes = (
"311 -5 OFFCURVE",
"348 0 OFFCURVE",
"362 4 CURVE",
"362 466 LINE",
"473 466 LINE SMOOTH",
"510 466 OFFCURVE",
"536 487 OFFCURVE",
"536 539 CURVE SMOOTH",
"536 567 OFFCURVE",
"526 594 OFFCURVE",
"517 609 CURVE",
"81 609 LINE SMOOTH",
"44 609 OFFCURVE",
"18 588 OFFCURVE",
"18 536 CURVE SMOOTH",
"18 508 OFFCURVE",
"28 481 OFFCURVE",
"37 466 CURVE",
"187 466 LINE",
"187 78 LINE SMOOTH",
"187 9 OFFCURVE",
"219 -5 OFFCURVE",
"281 -5 CURVE SMOOTH"
);
},
{
closed = 1;
nodes = (
"262 -256 OFFCURVE",
"289 -247 OFFCURVE",
"311 -223 CURVE",
"337 -195 OFFCURVE",
"368 -137 OFFCURVE",
"368 -104 CURVE SMOOTH",
"368 -67 OFFCURVE",
"338 -52 OFFCURVE",
"296 -52 CURVE SMOOTH",
"267 -52 OFFCURVE",
"236 -62 OFFCURVE",
"215 -73 CURVE",
"208 -125 OFFCURVE",
"196 -177 OFFCURVE",
"168 -233 CURVE",
"185 -248 OFFCURVE",
"206 -256 OFFCURVE",
"232 -256 CURVE SMOOTH"
);
}
);
width = 556;
}
);
leftKerningGroup = T;
rightKerningGroup = T;
unicode = 0162;
},
{
glyphname = U;
layers = (
{
layerId = "95F0E3FF-6822-4CFD-805E-5B95C02D9EC6";
paths = (
{
closed = 1;
nodes = (
"500 -16 OFFCURVE",
"602 79 OFFCURVE",
"602 224 CURVE SMOOTH",
"602 532 LINE SMOOTH",
"602 601 OFFCURVE",
"569 615 OFFCURVE",
"508 615 CURVE SMOOTH",
"479 615 OFFCURVE",
"441 609 OFFCURVE",
"427 606 CURVE",
"427 227 LINE SMOOTH",
"427 164 OFFCURVE",
"389 125 OFFCURVE",
"332 125 CURVE SMOOTH",
"276 125 OFFCURVE",
"237 164 OFFCURVE",
"237 227 CURVE SMOOTH",
"237 532 LINE SMOOTH",
"237 601 OFFCURVE",
"204 615 OFFCURVE",
"143 615 CURVE SMOOTH",
"114 615 OFFCURVE",
"76 609 OFFCURVE",
"62 606 CURVE",
"62 224 LINE SMOOTH",
"62 79 OFFCURVE",
"164 -16 OFFCURVE",
"332 -16 CURVE SMOOTH"
);
}
);
width = 664;
}
);
leftKerningGroup = U;
rightKerningGroup = U;
unicode = 0055;
},
{
glyphname = Uacute;
layers = (
{
layerId = "95F0E3FF-6822-4CFD-805E-5B95C02D9EC6";
paths = (
{
closed = 1;
nodes = (
"500 -16 OFFCURVE",
"602 79 OFFCURVE",
"602 224 CURVE SMOOTH",
"602 532 LINE",
"602 601 OFFCURVE",
"569 615 OFFCURVE",
"508 615 CURVE SMOOTH",
"479 615 OFFCURVE",
"441 609 OFFCURVE",
"427 606 CURVE",
"427 227 LINE SMOOTH",
"427 164 OFFCURVE",
"389 125 OFFCURVE",
"332 125 CURVE SMOOTH",
"276 125 OFFCURVE",
"237 164 OFFCURVE",
"237 227 CURVE SMOOTH",
"237 532 LINE SMOOTH",
"237 601 OFFCURVE",
"204 615 OFFCURVE",
"143 615 CURVE SMOOTH",
"114 615 OFFCURVE",
"76 609 OFFCURVE",
"62 606 CURVE",
"62 224 LINE SMOOTH",
"62 79 OFFCURVE",
"164 -16 OFFCURVE",
"332 -16 CURVE SMOOTH"
);
},
{
closed = 1;
nodes = (
"412 705 LINE SMOOTH",
"458 723 OFFCURVE",
"480 744 OFFCURVE",
"480 782 CURVE SMOOTH",
"480 816 OFFCURVE",
"454 846 OFFCURVE",
"389 851 CURVE",
"242 763 LINE",
"221 752 OFFCURVE",
"211 734 OFFCURVE",
"211 715 CURVE SMOOTH",
"211 686 OFFCURVE",
"237 659 OFFCURVE",
"275 651 CURVE"
);
}
);
width = 664;
}
);
leftKerningGroup = U;
rightKerningGroup = U;
unicode = 00DA;
},
{
glyphname = Ubreve;
layers = (
{
layerId = "95F0E3FF-6822-4CFD-805E-5B95C02D9EC6";
paths = (
{
closed = 1;
nodes = (
"500 -16 OFFCURVE",
"602 79 OFFCURVE",
"602 224 CURVE SMOOTH",
"602 532 LINE",
"602 601 OFFCURVE",
"569 615 OFFCURVE",
"508 615 CURVE SMOOTH",
"479 615 OFFCURVE",
"441 609 OFFCURVE",
"427 606 CURVE",
"427 227 LINE SMOOTH",
"427 164 OFFCURVE",
"389 125 OFFCURVE",
"332 125 CURVE SMOOTH",
"276 125 OFFCURVE",
"237 164 OFFCURVE",
"237 227 CURVE SMOOTH",
"237 532 LINE SMOOTH",
"237 601 OFFCURVE",
"204 615 OFFCURVE",
"143 615 CURVE SMOOTH",
"114 615 OFFCURVE",
"76 609 OFFCURVE",
"62 606 CURVE",
"62 224 LINE SMOOTH",
"62 79 OFFCURVE",
"164 -16 OFFCURVE",
"332 -16 CURVE SMOOTH"
);
},
{
closed = 1;
nodes = (
"445 684 OFFCURVE",
"508 730 OFFCURVE",
"508 790 CURVE SMOOTH",
"508 825 OFFCURVE",
"482 862 OFFCURVE",
"428 862 CURVE SMOOTH",
"422 862 OFFCURVE",
"417 862 OFFCURVE",
"410 861 CURVE",
"402 832 OFFCURVE",
"375 809 OFFCURVE",
"334 809 CURVE SMOOTH",
"293 809 OFFCURVE",
"265 832 OFFCURVE",
"258 861 CURVE",
"251 862 OFFCURVE",
"246 862 OFFCURVE",
"240 862 CURVE SMOOTH",
"186 862 OFFCURVE",
"160 825 OFFCURVE",
"160 790 CURVE SMOOTH",
"160 730 OFFCURVE",
"223 684 OFFCURVE",
"334 684 CURVE"
);
}
);
width = 664;
}
);
leftKerningGroup = U;
rightKerningGroup = U;
unicode = 016C;
},
{
glyphname = Ucircumflex;
layers = (
{
layerId = "95F0E3FF-6822-4CFD-805E-5B95C02D9EC6";
paths = (
{
closed = 1;
nodes = (
"500 -16 OFFCURVE",
"602 79 OFFCURVE",
"602 224 CURVE SMOOTH",
"602 532 LINE",
"602 601 OFFCURVE",
"569 615 OFFCURVE",
"508 615 CURVE SMOOTH",
"479 615 OFFCURVE",
"441 609 OFFCURVE",
"427 606 CURVE",
"427 227 LINE SMOOTH",
"427 164 OFFCURVE",
"389 125 OFFCURVE",
"332 125 CURVE SMOOTH",
"276 125 OFFCURVE",
"237 164 OFFCURVE",
"237 227 CURVE SMOOTH",
"237 532 LINE SMOOTH",
"237 601 OFFCURVE",
"204 615 OFFCURVE",
"143 615 CURVE SMOOTH",
"114 615 OFFCURVE",
"76 609 OFFCURVE",
"62 606 CURVE",
"62 224 LINE SMOOTH",
"62 79 OFFCURVE",
"164 -16 OFFCURVE",
"332 -16 CURVE SMOOTH"
);
},
{
closed = 1;
nodes = (
"265 683 OFFCURVE",
"296 703 OFFCURVE",
"337 734 CURVE",
"360 713 LINE",
"404 673 OFFCURVE",
"421 665 OFFCURVE",
"447 665 CURVE SMOOTH",
"488 665 OFFCURVE",
"507 697 OFFCURVE",
"507 742 CURVE",
"426 813 LINE",
"391 844 OFFCURVE",
"371 854 OFFCURVE",
"335 854 CURVE SMOOTH",
"309 854 OFFCURVE",
"280 841 OFFCURVE",
"247 818 CURVE SMOOTH",
"211 792 LINE SMOOTH",
"175 767 OFFCURVE",
"165 750 OFFCURVE",
"165 723 CURVE SMOOTH",
"165 688 OFFCURVE",
"196 662 OFFCURVE",
"236 662 CURVE"
);
}
);
width = 664;
}
);
leftKerningGroup = U;
rightKerningGroup = U;
unicode = 00DB;
},
{
glyphname = Udieresis;
layers = (
{
layerId = "95F0E3FF-6822-4CFD-805E-5B95C02D9EC6";
paths = (
{
closed = 1;
nodes = (
"500 -16 OFFCURVE",
"602 79 OFFCURVE",
"602 224 CURVE SMOOTH",
"602 532 LINE",
"602 601 OFFCURVE",
"569 615 OFFCURVE",
"508 615 CURVE SMOOTH",
"479 615 OFFCURVE",
"441 609 OFFCURVE",
"427 606 CURVE",
"427 227 LINE SMOOTH",
"427 164 OFFCURVE",
"389 125 OFFCURVE",
"332 125 CURVE SMOOTH",
"276 125 OFFCURVE",
"237 164 OFFCURVE",
"237 227 CURVE SMOOTH",
"237 532 LINE SMOOTH",
"237 601 OFFCURVE",
"204 615 OFFCURVE",
"143 615 CURVE SMOOTH",
"114 615 OFFCURVE",
"76 609 OFFCURVE",
"62 606 CURVE",
"62 224 LINE SMOOTH",
"62 79 OFFCURVE",
"164 -16 OFFCURVE",
"332 -16 CURVE SMOOTH"
);
},
{
closed = 1;
nodes = (
"271 669 OFFCURVE",
"306 708 OFFCURVE",
"306 755 CURVE SMOOTH",
"306 801 OFFCURVE",
"271 841 OFFCURVE",
"216 841 CURVE SMOOTH",
"167 841 OFFCURVE",
"129 801 OFFCURVE",
"129 755 CURVE",
"129 708 OFFCURVE",
"167 669 OFFCURVE",
"216 669 CURVE SMOOTH"
);
},
{
closed = 1;
nodes = (
"493 669 OFFCURVE",
"530 708 OFFCURVE",
"530 755 CURVE SMOOTH",
"530 801 OFFCURVE",
"493 841 OFFCURVE",
"442 841 CURVE SMOOTH",
"387 841 OFFCURVE",
"353 801 OFFCURVE",
"353 755 CURVE",
"353 708 OFFCURVE",
"387 669 OFFCURVE",
"442 669 CURVE SMOOTH"
);
}
);
width = 664;
}
);
leftKerningGroup = U;
rightKerningGroup = U;
unicode = 00DC;
},
{
glyphname = Ugrave;
layers = (
{
layerId = "95F0E3FF-6822-4CFD-805E-5B95C02D9EC6";
paths = (
{
closed = 1;
nodes = (
"500 -16 OFFCURVE",
"602 79 OFFCURVE",
"602 224 CURVE SMOOTH",
"602 532 LINE",
"602 601 OFFCURVE",
"569 615 OFFCURVE",
"508 615 CURVE SMOOTH",
"479 615 OFFCURVE",
"441 609 OFFCURVE",
"427 606 CURVE",
"427 227 LINE SMOOTH",
"427 164 OFFCURVE",
"389 125 OFFCURVE",
"332 125 CURVE SMOOTH",
"276 125 OFFCURVE",
"237 164 OFFCURVE",
"237 227 CURVE SMOOTH",
"237 532 LINE SMOOTH",
"237 601 OFFCURVE",
"204 615 OFFCURVE",
"143 615 CURVE SMOOTH",
"114 615 OFFCURVE",
"76 609 OFFCURVE",
"62 606 CURVE",
"62 224 LINE SMOOTH",
"62 79 OFFCURVE",
"164 -16 OFFCURVE",
"332 -16 CURVE SMOOTH"
);
},
{
closed = 1;
nodes = (
"426 653 OFFCURVE",
"453 683 OFFCURVE",
"453 730 CURVE SMOOTH",
"453 735 OFFCURVE",
"453 741 OFFCURVE",
"452 746 CURVE",
"316 816 LINE SMOOTH",
"289 830 OFFCURVE",
"270 840 OFFCURVE",
"246 840 CURVE SMOOTH",
"201 840 OFFCURVE",
"173 810 OFFCURVE",
"173 768 CURVE SMOOTH",
"173 756 OFFCURVE",
"175 740 OFFCURVE",
"181 726 CURVE",
"335 666 LINE",
"355 658 OFFCURVE",
"374 653 OFFCURVE",
"392 653 CURVE SMOOTH"
);
}
);
width = 664;
}
);
leftKerningGroup = U;
rightKerningGroup = U;
unicode = 00D9;
},
{
glyphname = Uhorn;
layers = (
{
layerId = "95F0E3FF-6822-4CFD-805E-5B95C02D9EC6";
paths = (
{
closed = 1;
nodes = (
"496 -16 OFFCURVE",
"598 79 OFFCURVE",
"598 224 CURVE SMOOTH",
"598 362 LINE",
"696 383 OFFCURVE",
"799 469 OFFCURVE",
"799 593 CURVE SMOOTH",
"799 642 OFFCURVE",
"761 661 OFFCURVE",
"718 661 CURVE SMOOTH",
"690 661 OFFCURVE",
"673 655 OFFCURVE",
"654 645 CURVE",
"650 568 OFFCURVE",
"631 524 OFFCURVE",
"598 494 CURVE",
"598 532 LINE SMOOTH",
"598 601 OFFCURVE",
"565 615 OFFCURVE",
"504 615 CURVE SMOOTH",
"475 615 OFFCURVE",
"437 609 OFFCURVE",
"423 606 CURVE",
"423 227 LINE SMOOTH",
"423 164 OFFCURVE",
"385 125 OFFCURVE",
"328 125 CURVE SMOOTH",
"272 125 OFFCURVE",
"233 164 OFFCURVE",
"233 227 CURVE SMOOTH",
"233 532 LINE SMOOTH",
"233 601 OFFCURVE",
"200 615 OFFCURVE",
"139 615 CURVE SMOOTH",
"110 615 OFFCURVE",
"72 609 OFFCURVE",
"58 606 CURVE",
"58 224 LINE SMOOTH",
"58 79 OFFCURVE",
"160 -16 OFFCURVE",
"328 -16 CURVE SMOOTH"
);
}
);
width = 779;
}
);
rightKerningGroup = Ohorn;
unicode = 01AF;
},
{
glyphname = Uhungarumlaut;
layers = (
{
layerId = "95F0E3FF-6822-4CFD-805E-5B95C02D9EC6";
paths = (
{
closed = 1;
nodes = (
"500 -16 OFFCURVE",
"602 79 OFFCURVE",
"602 224 CURVE SMOOTH",
"602 532 LINE",
"602 601 OFFCURVE",
"569 615 OFFCURVE",
"508 615 CURVE SMOOTH",
"479 615 OFFCURVE",
"441 609 OFFCURVE",
"427 606 CURVE",
"427 227 LINE SMOOTH",
"427 164 OFFCURVE",
"389 125 OFFCURVE",
"332 125 CURVE SMOOTH",
"276 125 OFFCURVE",
"237 164 OFFCURVE",
"237 227 CURVE SMOOTH",
"237 532 LINE SMOOTH",
"237 601 OFFCURVE",
"204 615 OFFCURVE",
"143 615 CURVE SMOOTH",
"114 615 OFFCURVE",
"76 609 OFFCURVE",
"62 606 CURVE",
"62 224 LINE SMOOTH",
"62 79 OFFCURVE",
"164 -16 OFFCURVE",
"332 -16 CURVE SMOOTH"
);
},
{
closed = 1;
nodes = (
"305 720 LINE SMOOTH",
"330 741 OFFCURVE",
"341 762 OFFCURVE",
"341 782 CURVE SMOOTH",
"341 821 OFFCURVE",
"302 846 OFFCURVE",
"252 846 CURVE SMOOTH",
"240 846 OFFCURVE",
"226 845 OFFCURVE",
"214 843 CURVE",
"140 743 LINE",
"134 735 OFFCURVE",
"131 725 OFFCURVE",
"131 716 CURVE SMOOTH",
"131 676 OFFCURVE",
"190 653 OFFCURVE",
"228 653 CURVE"
);
},
{
closed = 1;
nodes = (
"531 720 LINE SMOOTH",
"556 741 OFFCURVE",
"567 762 OFFCURVE",
"567 782 CURVE SMOOTH",
"567 821 OFFCURVE",
"528 846 OFFCURVE",
"478 846 CURVE SMOOTH",
"466 846 OFFCURVE",
"452 845 OFFCURVE",
"440 843 CURVE",
"366 743 LINE",
"360 735 OFFCURVE",
"357 725 OFFCURVE",
"357 716 CURVE SMOOTH",
"357 676 OFFCURVE",
"416 653 OFFCURVE",
"454 653 CURVE"
);
}
);
width = 664;
}
);
leftKerningGroup = U;
rightKerningGroup = U;
unicode = 0170;
},
{
glyphname = Umacron;
layers = (
{
layerId = "95F0E3FF-6822-4CFD-805E-5B95C02D9EC6";
paths = (
{
closed = 1;
nodes = (
"500 -16 OFFCURVE",
"602 79 OFFCURVE",
"602 224 CURVE SMOOTH",
"602 532 LINE",
"602 601 OFFCURVE",
"569 615 OFFCURVE",
"508 615 CURVE SMOOTH",
"479 615 OFFCURVE",
"441 609 OFFCURVE",
"427 606 CURVE",
"427 227 LINE SMOOTH",
"427 164 OFFCURVE",
"389 125 OFFCURVE",
"332 125 CURVE SMOOTH",
"276 125 OFFCURVE",
"237 164 OFFCURVE",
"237 227 CURVE SMOOTH",
"237 532 LINE SMOOTH",
"237 601 OFFCURVE",
"204 615 OFFCURVE",
"143 615 CURVE SMOOTH",
"114 615 OFFCURVE",
"76 609 OFFCURVE",
"62 606 CURVE",
"62 224 LINE SMOOTH",
"62 79 OFFCURVE",
"164 -16 OFFCURVE",
"332 -16 CURVE SMOOTH"
);
},
{
closed = 1;
nodes = (
"433 693 LINE",
"466 693 OFFCURVE",
"487 710 OFFCURVE",
"487 759 CURVE SMOOTH",
"487 783 OFFCURVE",
"482 807 OFFCURVE",
"471 821 CURVE",
"206 821 LINE SMOOTH",
"173 821 OFFCURVE",
"151 804 OFFCURVE",
"151 755 CURVE SMOOTH",
"151 731 OFFCURVE",
"161 707 OFFCURVE",
"167 693 CURVE"
);
}
);
width = 664;
}
);
leftKerningGroup = U;
rightKerningGroup = U;
unicode = 016A;
},
{
glyphname = Uogonek;
layers = (
{
layerId = "95F0E3FF-6822-4CFD-805E-5B95C02D9EC6";
paths = (
{
closed = 1;
nodes = (
"424 -202 OFFCURVE",
"446 -166 OFFCURVE",
"446 -128 CURVE SMOOTH",
"446 -111 OFFCURVE",
"443 -98 OFFCURVE",
"439 -86 CURVE",
"401 -86 OFFCURVE",
"380 -70 OFFCURVE",
"380 -43 CURVE SMOOTH",
"380 -28 OFFCURVE",
"383 -19 OFFCURVE",
"389 -11 CURVE",
"523 6 OFFCURVE",
"602 97 OFFCURVE",
"602 224 CURVE SMOOTH",
"602 532 LINE SMOOTH",
"602 601 OFFCURVE",
"569 615 OFFCURVE",
"508 615 CURVE SMOOTH",
"479 615 OFFCURVE",
"441 609 OFFCURVE",
"427 606 CURVE",
"427 227 LINE SMOOTH",
"427 164 OFFCURVE",
"389 125 OFFCURVE",
"332 125 CURVE SMOOTH",
"276 125 OFFCURVE",
"237 164 OFFCURVE",
"237 227 CURVE SMOOTH",
"237 532 LINE SMOOTH",
"237 601 OFFCURVE",
"204 615 OFFCURVE",
"143 615 CURVE SMOOTH",
"114 615 OFFCURVE",
"76 609 OFFCURVE",
"62 606 CURVE",
"62 224 LINE SMOOTH",
"62 102 OFFCURVE",
"134 16 OFFCURVE",
"256 -9 CURVE",
"240 -25 OFFCURVE",
"225 -49 OFFCURVE",
"225 -88 CURVE SMOOTH",
"225 -160 OFFCURVE",
"283 -202 OFFCURVE",
"354 -202 CURVE SMOOTH"
);
}
);
width = 664;
}
);
leftKerningGroup = U;
rightKerningGroup = U;
unicode = 0172;
},
{
glyphname = Uring;
layers = (
{
layerId = "95F0E3FF-6822-4CFD-805E-5B95C02D9EC6";
paths = (
{
closed = 1;
nodes = (
"500 -16 OFFCURVE",
"602 79 OFFCURVE",
"602 224 CURVE SMOOTH",
"602 532 LINE",
"602 601 OFFCURVE",
"569 615 OFFCURVE",
"508 615 CURVE SMOOTH",
"479 615 OFFCURVE",
"441 609 OFFCURVE",
"427 606 CURVE",
"427 227 LINE SMOOTH",
"427 164 OFFCURVE",
"389 125 OFFCURVE",
"332 125 CURVE SMOOTH",
"276 125 OFFCURVE",
"237 164 OFFCURVE",
"237 227 CURVE SMOOTH",
"237 532 LINE SMOOTH",
"237 601 OFFCURVE",
"204 615 OFFCURVE",
"143 615 CURVE SMOOTH",
"114 615 OFFCURVE",
"76 609 OFFCURVE",
"62 606 CURVE",
"62 224 LINE SMOOTH",
"62 79 OFFCURVE",
"164 -16 OFFCURVE",
"332 -16 CURVE SMOOTH"
);
},
{
closed = 1;
nodes = (
"420 646 OFFCURVE",
"473 692 OFFCURVE",
"473 754 CURVE SMOOTH",
"473 816 OFFCURVE",
"420 863 OFFCURVE",
"336 863 CURVE SMOOTH",
"257 863 OFFCURVE",
"204 816 OFFCURVE",
"204 754 CURVE",
"204 692 OFFCURVE",
"257 646 OFFCURVE",
"336 646 CURVE SMOOTH"
);
},
{
closed = 1;
nodes = (
"320 723 OFFCURVE",
"305 735 OFFCURVE",
"305 754 CURVE",
"305 773 OFFCURVE",
"320 785 OFFCURVE",
"337 785 CURVE SMOOTH",
"357 785 OFFCURVE",
"371 773 OFFCURVE",
"371 754 CURVE SMOOTH",
"371 735 OFFCURVE",
"357 723 OFFCURVE",
"337 723 CURVE SMOOTH"
);
}
);
width = 664;
}
);
leftKerningGroup = U;
rightKerningGroup = U;
unicode = 016E;
},
{
glyphname = Utilde;
layers = (
{
layerId = "95F0E3FF-6822-4CFD-805E-5B95C02D9EC6";
paths = (
{
closed = 1;
nodes = (
"500 -16 OFFCURVE",
"602 79 OFFCURVE",
"602 224 CURVE SMOOTH",
"602 532 LINE",
"602 601 OFFCURVE",
"569 615 OFFCURVE",
"508 615 CURVE SMOOTH",
"479 615 OFFCURVE",
"441 609 OFFCURVE",
"427 606 CURVE",
"427 227 LINE SMOOTH",
"427 164 OFFCURVE",
"389 125 OFFCURVE",
"332 125 CURVE SMOOTH",
"276 125 OFFCURVE",
"237 164 OFFCURVE",
"237 227 CURVE SMOOTH",
"237 532 LINE SMOOTH",
"237 601 OFFCURVE",
"204 615 OFFCURVE",
"143 615 CURVE SMOOTH",
"114 615 OFFCURVE",
"76 609 OFFCURVE",
"62 606 CURVE",
"62 224 LINE SMOOTH",
"62 79 OFFCURVE",
"164 -16 OFFCURVE",
"332 -16 CURVE SMOOTH"
);
},
{
closed = 1;
nodes = (
"232 692 OFFCURVE",
"246 714 OFFCURVE",
"275 714 CURVE SMOOTH",
"287 714 OFFCURVE",
"299 710 OFFCURVE",
"317 705 CURVE SMOOTH",
"357 693 LINE SMOOTH",
"379 687 OFFCURVE",
"398 685 OFFCURVE",
"416 685 CURVE SMOOTH",
"472 685 OFFCURVE",
"514 713 OFFCURVE",
"514 772 CURVE SMOOTH",
"514 819 OFFCURVE",
"479 852 OFFCURVE",
"432 852 CURVE",
"425 840 OFFCURVE",
"410 817 OFFCURVE",
"381 817 CURVE SMOOTH",
"370 817 OFFCURVE",
"355 821 OFFCURVE",
"331 828 CURVE",
"276 844 OFFCURVE",
"258 846 OFFCURVE",
"240 846 CURVE SMOOTH",
"193 846 OFFCURVE",
"142 819 OFFCURVE",
"142 759 CURVE SMOOTH",
"142 712 OFFCURVE",
"177 679 OFFCURVE",
"224 679 CURVE"
);
}
);
width = 664;
}
);
leftKerningGroup = U;
rightKerningGroup = U;
unicode = 0168;
},
{
glyphname = V;
layers = (
{
layerId = "95F0E3FF-6822-4CFD-805E-5B95C02D9EC6";
paths = (
{
closed = 1;
nodes = (
"366 -10 OFFCURVE",
"409 4 OFFCURVE",
"428 20 CURVE",
"473 81 OFFCURVE",
"611 452 OFFCURVE",
"611 538 CURVE SMOOTH",
"611 589 OFFCURVE",
"571 609 OFFCURVE",
"522 609 CURVE SMOOTH",
"488 609 OFFCURVE",
"461 600 OFFCURVE",
"437 588 CURVE",
"402 442 OFFCURVE",
"363 286 OFFCURVE",
"327 162 CURVE",
"321 162 LINE",
"281 291 OFFCURVE",
"245 405 OFFCURVE",
"209 536 CURVE SMOOTH",
"194 591 OFFCURVE",
"163 609 OFFCURVE",
"114 609 CURVE SMOOTH",
"74 609 OFFCURVE",
"36 590 OFFCURVE",
"17 572 CURVE",
"60 397 OFFCURVE",
"161 130 OFFCURVE",
"207 37 CURVE SMOOTH",
"221 8 OFFCURVE",
"265 -10 OFFCURVE",
"320 -10 CURVE SMOOTH"
);
}
);
width = 634;
}
);
unicode = 0056;
},
{
glyphname = W;
layers = (
{
layerId = "95F0E3FF-6822-4CFD-805E-5B95C02D9EC6";
paths = (
{
closed = 1;
nodes = (
"316 -8 OFFCURVE",
"359 6 OFFCURVE",
"379 24 CURVE",
"395 81 OFFCURVE",
"417 170 OFFCURVE",
"435 256 CURVE",
"457 168 OFFCURVE",
"478 93 OFFCURVE",
"495 40 CURVE SMOOTH",
"504 10 OFFCURVE",
"552 -8 OFFCURVE",
"614 -8 CURVE SMOOTH",
"662 -8 OFFCURVE",
"713 6 OFFCURVE",
"733 24 CURVE",
"774 112 OFFCURVE",
"832 452 OFFCURVE",
"832 540 CURVE SMOOTH",
"832 591 OFFCURVE",
"790 610 OFFCURVE",
"741 610 CURVE SMOOTH",
"713 610 OFFCURVE",
"687 603 OFFCURVE",
"662 589 CURVE",
"645 444 OFFCURVE",
"632 314 OFFCURVE",
"609 151 CURVE",
"604 151 LINE",
"582 244 OFFCURVE",
"560 317 OFFCURVE",
"531 427 CURVE SMOOTH",
"523 459 OFFCURVE",
"483 476 OFFCURVE",
"427 476 CURVE SMOOTH",
"395 476 OFFCURVE",
"360 465 OFFCURVE",
"345 458 CURVE",
"318 321 OFFCURVE",
"298 258 OFFCURVE",
"275 151 CURVE",
"270 151 LINE",
"263 188 OFFCURVE",
"255 267 OFFCURVE",
"211 538 CURVE SMOOTH",
"203 590 OFFCURVE",
"168 610 OFFCURVE",
"118 610 CURVE SMOOTH",
"79 610 OFFCURVE",
"44 592 OFFCURVE",
"25 575 CURVE",
"42 409 OFFCURVE",
"105 114 OFFCURVE",
"139 40 CURVE SMOOTH",
"153 10 OFFCURVE",
"209 -8 OFFCURVE",
"268 -8 CURVE SMOOTH"
);
}
);
width = 863;
}
);
leftKerningGroup = W;
rightKerningGroup = W;
unicode = 0057;
},
{
glyphname = Wacute;
layers = (
{
layerId = "95F0E3FF-6822-4CFD-805E-5B95C02D9EC6";
paths = (
{
closed = 1;
nodes = (
"320 -8 OFFCURVE",
"363 6 OFFCURVE",
"383 24 CURVE",
"399 81 OFFCURVE",
"421 170 OFFCURVE",
"439 256 CURVE",
"461 168 OFFCURVE",
"482 93 OFFCURVE",
"499 40 CURVE SMOOTH",
"508 10 OFFCURVE",
"556 -8 OFFCURVE",
"618 -8 CURVE SMOOTH",
"666 -8 OFFCURVE",
"717 6 OFFCURVE",
"737 24 CURVE",
"778 112 OFFCURVE",
"836 452 OFFCURVE",
"836 540 CURVE SMOOTH",
"836 591 OFFCURVE",
"794 610 OFFCURVE",
"745 610 CURVE SMOOTH",
"717 610 OFFCURVE",
"691 603 OFFCURVE",
"666 589 CURVE",
"649 444 OFFCURVE",
"636 314 OFFCURVE",
"613 151 CURVE",
"608 151 LINE",
"586 244 OFFCURVE",
"564 317 OFFCURVE",
"535 427 CURVE SMOOTH",
"527 459 OFFCURVE",
"487 476 OFFCURVE",
"431 476 CURVE SMOOTH",
"399 476 OFFCURVE",
"364 465 OFFCURVE",
"349 458 CURVE",
"322 321 OFFCURVE",
"302 258 OFFCURVE",
"279 151 CURVE",
"274 151 LINE",
"267 188 OFFCURVE",
"259 267 OFFCURVE",
"215 538 CURVE SMOOTH",
"207 590 OFFCURVE",
"172 610 OFFCURVE",
"122 610 CURVE SMOOTH",
"83 610 OFFCURVE",
"48 592 OFFCURVE",
"29 575 CURVE",
"46 409 OFFCURVE",
"109 114 OFFCURVE",
"143 40 CURVE SMOOTH",
"157 10 OFFCURVE",
"213 -8 OFFCURVE",
"272 -8 CURVE SMOOTH"
);
},
{
closed = 1;
nodes = (
"535 705 LINE SMOOTH",
"581 723 OFFCURVE",
"603 744 OFFCURVE",
"603 782 CURVE SMOOTH",
"603 816 OFFCURVE",
"577 846 OFFCURVE",
"512 851 CURVE",
"365 763 LINE",
"344 752 OFFCURVE",
"334 734 OFFCURVE",
"334 715 CURVE SMOOTH",
"334 686 OFFCURVE",
"360 659 OFFCURVE",
"398 651 CURVE"
);
}
);
width = 885;
}
);
leftKerningGroup = W;
rightKerningGroup = W;
unicode = 1E82;
},
{
glyphname = Wcircumflex;
layers = (
{
layerId = "95F0E3FF-6822-4CFD-805E-5B95C02D9EC6";
paths = (
{
closed = 1;
nodes = (
"320 -8 OFFCURVE",
"363 6 OFFCURVE",
"383 24 CURVE",
"399 81 OFFCURVE",
"421 170 OFFCURVE",
"439 256 CURVE",
"461 168 OFFCURVE",
"482 93 OFFCURVE",
"499 40 CURVE SMOOTH",
"508 10 OFFCURVE",
"556 -8 OFFCURVE",
"618 -8 CURVE SMOOTH",
"666 -8 OFFCURVE",
"717 6 OFFCURVE",
"737 24 CURVE",
"778 112 OFFCURVE",
"836 452 OFFCURVE",
"836 540 CURVE SMOOTH",
"836 591 OFFCURVE",
"794 610 OFFCURVE",
"745 610 CURVE SMOOTH",
"717 610 OFFCURVE",
"691 603 OFFCURVE",
"666 589 CURVE",
"649 444 OFFCURVE",
"636 314 OFFCURVE",
"613 151 CURVE",
"608 151 LINE",
"586 244 OFFCURVE",
"564 317 OFFCURVE",
"535 427 CURVE SMOOTH",
"527 459 OFFCURVE",
"487 476 OFFCURVE",
"431 476 CURVE SMOOTH",
"399 476 OFFCURVE",
"364 465 OFFCURVE",
"349 458 CURVE",
"322 321 OFFCURVE",
"302 258 OFFCURVE",
"279 151 CURVE",
"274 151 LINE",
"267 188 OFFCURVE",
"259 267 OFFCURVE",
"215 538 CURVE SMOOTH",
"207 590 OFFCURVE",
"172 610 OFFCURVE",
"122 610 CURVE SMOOTH",
"83 610 OFFCURVE",
"48 592 OFFCURVE",
"29 575 CURVE",
"46 409 OFFCURVE",
"109 114 OFFCURVE",
"143 40 CURVE SMOOTH",
"157 10 OFFCURVE",
"213 -8 OFFCURVE",
"272 -8 CURVE SMOOTH"
);
},
{
closed = 1;
nodes = (
"374 693 OFFCURVE",
"395 715 OFFCURVE",
"440 753 CURVE",
"474 721 LINE",
"515 678 OFFCURVE",
"528 673 OFFCURVE",
"554 673 CURVE SMOOTH",
"595 673 OFFCURVE",
"618 702 OFFCURVE",
"618 743 CURVE SMOOTH",
"618 749 OFFCURVE",
"617 755 OFFCURVE",
"616 761 CURVE",
"546 823 LINE SMOOTH",
"494 869 OFFCURVE",
"480 875 OFFCURVE",
"444 875 CURVE SMOOTH",
"418 875 OFFCURVE",
"393 866 OFFCURVE",
"361 843 CURVE SMOOTH",
"312 808 LINE SMOOTH",
"277 783 OFFCURVE",
"264 764 OFFCURVE",
"264 737 CURVE SMOOTH",
"264 699 OFFCURVE",
"297 671 OFFCURVE",
"349 671 CURVE"
);
}
);
width = 885;
}
);
leftKerningGroup = W;
rightKerningGroup = W;
unicode = 0174;
},
{
glyphname = Wdieresis;
layers = (
{
layerId = "95F0E3FF-6822-4CFD-805E-5B95C02D9EC6";
paths = (
{
closed = 1;
nodes = (
"320 -8 OFFCURVE",
"363 6 OFFCURVE",
"383 24 CURVE",
"399 81 OFFCURVE",
"421 170 OFFCURVE",
"439 256 CURVE",
"461 168 OFFCURVE",
"482 93 OFFCURVE",
"499 40 CURVE SMOOTH",
"508 10 OFFCURVE",
"556 -8 OFFCURVE",
"618 -8 CURVE SMOOTH",
"666 -8 OFFCURVE",
"717 6 OFFCURVE",
"737 24 CURVE",
"778 112 OFFCURVE",
"836 452 OFFCURVE",
"836 540 CURVE SMOOTH",
"836 591 OFFCURVE",
"794 610 OFFCURVE",
"745 610 CURVE SMOOTH",
"717 610 OFFCURVE",
"691 603 OFFCURVE",
"666 589 CURVE",
"649 444 OFFCURVE",
"636 314 OFFCURVE",
"613 151 CURVE",
"608 151 LINE",
"586 244 OFFCURVE",
"564 317 OFFCURVE",
"535 427 CURVE SMOOTH",
"527 459 OFFCURVE",
"487 476 OFFCURVE",
"431 476 CURVE SMOOTH",
"399 476 OFFCURVE",
"364 465 OFFCURVE",
"349 458 CURVE",
"322 321 OFFCURVE",
"302 258 OFFCURVE",
"279 151 CURVE",
"274 151 LINE",
"267 188 OFFCURVE",
"259 267 OFFCURVE",
"215 538 CURVE SMOOTH",
"207 590 OFFCURVE",
"172 610 OFFCURVE",
"122 610 CURVE SMOOTH",
"83 610 OFFCURVE",
"48 592 OFFCURVE",
"29 575 CURVE",
"46 409 OFFCURVE",
"109 114 OFFCURVE",
"143 40 CURVE SMOOTH",
"157 10 OFFCURVE",
"213 -8 OFFCURVE",
"272 -8 CURVE SMOOTH"
);
},
{
closed = 1;
nodes = (
"374 669 OFFCURVE",
"409 708 OFFCURVE",
"409 755 CURVE SMOOTH",
"409 801 OFFCURVE",
"374 841 OFFCURVE",
"319 841 CURVE SMOOTH",
"270 841 OFFCURVE",
"232 801 OFFCURVE",
"232 755 CURVE",
"232 708 OFFCURVE",
"270 669 OFFCURVE",
"319 669 CURVE SMOOTH"
);
},
{
closed = 1;
nodes = (
"596 669 OFFCURVE",
"633 708 OFFCURVE",
"633 755 CURVE SMOOTH",
"633 801 OFFCURVE",
"596 841 OFFCURVE",
"545 841 CURVE SMOOTH",
"490 841 OFFCURVE",
"456 801 OFFCURVE",
"456 755 CURVE",
"456 708 OFFCURVE",
"490 669 OFFCURVE",
"545 669 CURVE SMOOTH"
);
}
);
width = 885;
}
);
leftKerningGroup = W;
rightKerningGroup = W;
unicode = 1E84;
},
{
glyphname = Wgrave;
layers = (
{
layerId = "95F0E3FF-6822-4CFD-805E-5B95C02D9EC6";
paths = (
{
closed = 1;
nodes = (
"320 -8 OFFCURVE",
"363 6 OFFCURVE",
"383 24 CURVE",
"399 81 OFFCURVE",
"421 170 OFFCURVE",
"439 256 CURVE",
"461 168 OFFCURVE",
"482 93 OFFCURVE",
"499 40 CURVE SMOOTH",
"508 10 OFFCURVE",
"556 -8 OFFCURVE",
"618 -8 CURVE SMOOTH",
"666 -8 OFFCURVE",
"717 6 OFFCURVE",
"737 24 CURVE",
"778 112 OFFCURVE",
"836 452 OFFCURVE",
"836 540 CURVE SMOOTH",
"836 591 OFFCURVE",
"794 610 OFFCURVE",
"745 610 CURVE SMOOTH",
"717 610 OFFCURVE",
"691 603 OFFCURVE",
"666 589 CURVE",
"649 444 OFFCURVE",
"636 314 OFFCURVE",
"613 151 CURVE",
"608 151 LINE",
"586 244 OFFCURVE",
"564 317 OFFCURVE",
"535 427 CURVE SMOOTH",
"527 459 OFFCURVE",
"487 476 OFFCURVE",
"431 476 CURVE SMOOTH",
"399 476 OFFCURVE",
"364 465 OFFCURVE",
"349 458 CURVE",
"322 321 OFFCURVE",
"302 258 OFFCURVE",
"279 151 CURVE",
"274 151 LINE",
"267 188 OFFCURVE",
"259 267 OFFCURVE",
"215 538 CURVE SMOOTH",
"207 590 OFFCURVE",
"172 610 OFFCURVE",
"122 610 CURVE SMOOTH",
"83 610 OFFCURVE",
"48 592 OFFCURVE",
"29 575 CURVE",
"46 409 OFFCURVE",
"109 114 OFFCURVE",
"143 40 CURVE SMOOTH",
"157 10 OFFCURVE",
"213 -8 OFFCURVE",
"272 -8 CURVE SMOOTH"
);
},
{
closed = 1;
nodes = (
"499 653 OFFCURVE",
"526 683 OFFCURVE",
"526 730 CURVE SMOOTH",
"526 735 OFFCURVE",
"526 741 OFFCURVE",
"525 746 CURVE",
"389 816 LINE SMOOTH",
"362 830 OFFCURVE",
"343 840 OFFCURVE",
"319 840 CURVE SMOOTH",
"274 840 OFFCURVE",
"246 810 OFFCURVE",
"246 768 CURVE SMOOTH",
"246 756 OFFCURVE",
"248 740 OFFCURVE",
"254 726 CURVE",
"408 666 LINE",
"428 658 OFFCURVE",
"447 653 OFFCURVE",
"465 653 CURVE SMOOTH"
);
}
);
width = 885;
}
);
leftKerningGroup = W;
rightKerningGroup = W;
unicode = 1E80;
},
{
glyphname = X;
layers = (
{
layerId = "95F0E3FF-6822-4CFD-805E-5B95C02D9EC6";
paths = (
{
closed = 1;
nodes = (
"149 -8 OFFCURVE",
"159 -7 OFFCURVE",
"169 -6 CURVE",
"295 184 LINE",
"376 56 LINE SMOOTH",
"405 9 OFFCURVE",
"431 -8 OFFCURVE",
"469 -8 CURVE SMOOTH",
"528 -8 OFFCURVE",
"565 23 OFFCURVE",
"575 72 CURVE",
"412 305 LINE",
"515 431 LINE SMOOTH",
"548 472 OFFCURVE",
"569 497 OFFCURVE",
"569 534 CURVE SMOOTH",
"569 577 OFFCURVE",
"532 610 OFFCURVE",
"471 610 CURVE SMOOTH",
"452 610 OFFCURVE",
"431 604 OFFCURVE",
"420 599 CURVE",
"305 429 LINE",
"227 548 LINE SMOOTH",
"197 594 OFFCURVE",
"169 612 OFFCURVE",
"131 612 CURVE SMOOTH",
"72 612 OFFCURVE",
"36 569 OFFCURVE",
"23 532 CURVE",
"182 308 LINE",
"77 173 LINE SMOOTH",
"47 134 OFFCURVE",
"29 110 OFFCURVE",
"29 72 CURVE SMOOTH",
"29 27 OFFCURVE",
"65 -8 OFFCURVE",
"140 -8 CURVE SMOOTH"
);
}
);
width = 601;
}
);
unicode = 0058;
},
{
glyphname = Y;
layers = (
{
layerId = "95F0E3FF-6822-4CFD-805E-5B95C02D9EC6";
paths = (
{
closed = 1;
nodes = (
"333 -5 OFFCURVE",
"369 0 OFFCURVE",
"383 4 CURVE",
"383 207 LINE",
"540 461 OFFCURVE",
"557 503 OFFCURVE",
"557 535 CURVE SMOOTH",
"557 584 OFFCURVE",
"519 609 OFFCURVE",
"473 609 CURVE SMOOTH",
"446 609 OFFCURVE",
"415 602 OFFCURVE",
"391 590 CURVE",
"353 495 OFFCURVE",
"337 449 OFFCURVE",
"300 366 CURVE",
"294 366 LINE",
"211 533 LINE",
"182 592 OFFCURVE",
"153 609 OFFCURVE",
"101 609 CURVE SMOOTH",
"57 609 OFFCURVE",
"27 585 OFFCURVE",
"10 561 CURVE",
"50 460 OFFCURVE",
"145 310 OFFCURVE",
"212 211 CURVE",
"212 76 LINE SMOOTH",
"212 9 OFFCURVE",
"243 -5 OFFCURVE",
"304 -5 CURVE SMOOTH"
);
}
);
width = 574;
}
);
leftKerningGroup = Y;
rightKerningGroup = Y;
unicode = 0059;
},
{
glyphname = Yacute;
layers = (
{
layerId = "95F0E3FF-6822-4CFD-805E-5B95C02D9EC6";
paths = (
{
closed = 1;
nodes = (
"333 -5 OFFCURVE",
"369 0 OFFCURVE",
"383 4 CURVE",
"383 207 LINE",
"540 461 OFFCURVE",
"557 503 OFFCURVE",
"557 535 CURVE SMOOTH",
"557 584 OFFCURVE",
"519 609 OFFCURVE",
"473 609 CURVE SMOOTH",
"446 609 OFFCURVE",
"415 602 OFFCURVE",
"391 590 CURVE",
"353 495 OFFCURVE",
"337 449 OFFCURVE",
"300 366 CURVE",
"294 366 LINE",
"211 533 LINE",
"182 592 OFFCURVE",
"153 609 OFFCURVE",
"101 609 CURVE SMOOTH",
"57 609 OFFCURVE",
"27 585 OFFCURVE",
"10 561 CURVE",
"50 460 OFFCURVE",
"145 310 OFFCURVE",
"212 211 CURVE",
"212 76 LINE SMOOTH",
"212 9 OFFCURVE",
"243 -5 OFFCURVE",
"304 -5 CURVE SMOOTH"
);
},
{
closed = 1;
nodes = (
"378 705 LINE SMOOTH",
"424 723 OFFCURVE",
"446 744 OFFCURVE",
"446 782 CURVE SMOOTH",
"446 816 OFFCURVE",
"420 846 OFFCURVE",
"355 851 CURVE",
"208 763 LINE",
"187 752 OFFCURVE",
"177 734 OFFCURVE",
"177 715 CURVE SMOOTH",
"177 686 OFFCURVE",
"203 659 OFFCURVE",
"241 651 CURVE"
);
}
);
width = 574;
}
);
leftKerningGroup = Y;
rightKerningGroup = Y;
unicode = 00DD;
},
{
glyphname = Ycircumflex;
layers = (
{
layerId = "95F0E3FF-6822-4CFD-805E-5B95C02D9EC6";
paths = (
{
closed = 1;
nodes = (
"333 -5 OFFCURVE",
"369 0 OFFCURVE",
"383 4 CURVE",
"383 207 LINE",
"540 461 OFFCURVE",
"557 503 OFFCURVE",
"557 535 CURVE SMOOTH",
"557 584 OFFCURVE",
"519 609 OFFCURVE",
"473 609 CURVE SMOOTH",
"446 609 OFFCURVE",
"415 602 OFFCURVE",
"391 590 CURVE",
"353 495 OFFCURVE",
"337 449 OFFCURVE",
"300 366 CURVE",
"294 366 LINE",
"211 533 LINE",
"182 592 OFFCURVE",
"153 609 OFFCURVE",
"101 609 CURVE SMOOTH",
"57 609 OFFCURVE",
"27 585 OFFCURVE",
"10 561 CURVE",
"50 460 OFFCURVE",
"145 310 OFFCURVE",
"212 211 CURVE",
"212 76 LINE SMOOTH",
"212 9 OFFCURVE",
"243 -5 OFFCURVE",
"304 -5 CURVE SMOOTH"
);
},
{
closed = 1;
nodes = (
"223 693 OFFCURVE",
"244 715 OFFCURVE",
"289 753 CURVE",
"323 721 LINE",
"364 678 OFFCURVE",
"377 673 OFFCURVE",
"403 673 CURVE SMOOTH",
"444 673 OFFCURVE",
"467 702 OFFCURVE",
"467 743 CURVE SMOOTH",
"467 749 OFFCURVE",
"466 755 OFFCURVE",
"465 761 CURVE",
"395 823 LINE SMOOTH",
"343 869 OFFCURVE",
"329 875 OFFCURVE",
"293 875 CURVE SMOOTH",
"267 875 OFFCURVE",
"242 866 OFFCURVE",
"210 843 CURVE SMOOTH",
"161 808 LINE SMOOTH",
"126 783 OFFCURVE",
"113 764 OFFCURVE",
"113 737 CURVE SMOOTH",
"113 699 OFFCURVE",
"146 671 OFFCURVE",
"198 671 CURVE"
);
}
);
width = 574;
}
);
leftKerningGroup = Y;
rightKerningGroup = Y;
unicode = 0176;
},
{
glyphname = Ydieresis;
layers = (
{
layerId = "95F0E3FF-6822-4CFD-805E-5B95C02D9EC6";
paths = (
{
closed = 1;
nodes = (
"333 -5 OFFCURVE",
"369 0 OFFCURVE",
"383 4 CURVE",
"383 207 LINE",
"540 461 OFFCURVE",
"557 503 OFFCURVE",
"557 535 CURVE SMOOTH",
"557 584 OFFCURVE",
"519 609 OFFCURVE",
"473 609 CURVE SMOOTH",
"446 609 OFFCURVE",
"415 602 OFFCURVE",
"391 590 CURVE",
"353 495 OFFCURVE",
"337 449 OFFCURVE",
"300 366 CURVE",
"294 366 LINE",
"211 533 LINE",
"182 592 OFFCURVE",
"153 609 OFFCURVE",
"101 609 CURVE SMOOTH",
"57 609 OFFCURVE",
"27 585 OFFCURVE",
"10 561 CURVE",
"50 460 OFFCURVE",
"145 310 OFFCURVE",
"212 211 CURVE",
"212 76 LINE SMOOTH",
"212 9 OFFCURVE",
"243 -5 OFFCURVE",
"304 -5 CURVE SMOOTH"
);
},
{
closed = 1;
nodes = (
"232 669 OFFCURVE",
"267 708 OFFCURVE",
"267 755 CURVE SMOOTH",
"267 801 OFFCURVE",
"232 841 OFFCURVE",
"177 841 CURVE SMOOTH",
"128 841 OFFCURVE",
"90 801 OFFCURVE",
"90 755 CURVE",
"90 708 OFFCURVE",
"128 669 OFFCURVE",
"177 669 CURVE SMOOTH"
);
},
{
closed = 1;
nodes = (
"454 669 OFFCURVE",
"491 708 OFFCURVE",
"491 755 CURVE SMOOTH",
"491 801 OFFCURVE",
"454 841 OFFCURVE",
"403 841 CURVE SMOOTH",
"348 841 OFFCURVE",
"314 801 OFFCURVE",
"314 755 CURVE",
"314 708 OFFCURVE",
"348 669 OFFCURVE",
"403 669 CURVE SMOOTH"
);
}
);
width = 574;
}
);
leftKerningGroup = Y;
rightKerningGroup = Y;
unicode = 0178;
},
{
glyphname = Ygrave;
layers = (
{
layerId = "95F0E3FF-6822-4CFD-805E-5B95C02D9EC6";
paths = (
{
closed = 1;
nodes = (
"333 -5 OFFCURVE",
"369 0 OFFCURVE",
"383 4 CURVE",
"383 207 LINE",
"540 461 OFFCURVE",
"557 503 OFFCURVE",
"557 535 CURVE SMOOTH",
"557 584 OFFCURVE",
"519 609 OFFCURVE",
"473 609 CURVE SMOOTH",
"446 609 OFFCURVE",
"415 602 OFFCURVE",
"391 590 CURVE",
"353 495 OFFCURVE",
"337 449 OFFCURVE",
"300 366 CURVE",
"294 366 LINE",
"211 533 LINE",
"182 592 OFFCURVE",
"153 609 OFFCURVE",
"101 609 CURVE SMOOTH",
"57 609 OFFCURVE",
"27 585 OFFCURVE",
"10 561 CURVE",
"50 460 OFFCURVE",
"145 310 OFFCURVE",
"212 211 CURVE",
"212 76 LINE SMOOTH",
"212 9 OFFCURVE",
"243 -5 OFFCURVE",
"304 -5 CURVE SMOOTH"
);
},
{
closed = 1;
nodes = (
"375 653 OFFCURVE",
"402 683 OFFCURVE",
"402 730 CURVE SMOOTH",
"402 735 OFFCURVE",
"402 741 OFFCURVE",
"401 746 CURVE",
"265 816 LINE SMOOTH",
"238 830 OFFCURVE",
"219 840 OFFCURVE",
"195 840 CURVE SMOOTH",
"150 840 OFFCURVE",
"122 810 OFFCURVE",
"122 768 CURVE SMOOTH",
"122 756 OFFCURVE",
"124 740 OFFCURVE",
"130 726 CURVE",
"284 666 LINE",
"304 658 OFFCURVE",
"323 653 OFFCURVE",
"341 653 CURVE SMOOTH"
);
}
);
width = 574;
}
);
leftKerningGroup = Y;
rightKerningGroup = Y;
unicode = 1EF2;
},
{
glyphname = Z;
layers = (
{
layerId = "95F0E3FF-6822-4CFD-805E-5B95C02D9EC6";
paths = (
{
closed = 1;
nodes = (
"467 0 LINE SMOOTH",
"504 0 OFFCURVE",
"530 21 OFFCURVE",
"530 73 CURVE SMOOTH",
"530 101 OFFCURVE",
"520 128 OFFCURVE",
"511 143 CURVE",
"255 143 LINE",
"482 417 LINE SMOOTH",
"506 446 OFFCURVE",
"523 480 OFFCURVE",
"523 513 CURVE SMOOTH",
"523 554 OFFCURVE",
"508 585 OFFCURVE",
"479 609 CURVE",
"106 609 LINE SMOOTH",
"69 609 OFFCURVE",
"43 588 OFFCURVE",
"43 536 CURVE SMOOTH",
"43 508 OFFCURVE",
"53 481 OFFCURVE",
"62 466 CURVE",
"308 466 LINE",
"78 192 LINE",
"54 163 OFFCURVE",
"34 126 OFFCURVE",
"34 93 CURVE SMOOTH",
"34 52 OFFCURVE",
"50 19 OFFCURVE",
"73 0 CURVE"
);
}
);
width = 560;
}
);
leftKerningGroup = Z;
rightKerningGroup = Z;
unicode = 005A;
},
{
glyphname = Zacute;
layers = (
{
layerId = "95F0E3FF-6822-4CFD-805E-5B95C02D9EC6";
paths = (
{
closed = 1;
nodes = (
"467 0 LINE SMOOTH",
"504 0 OFFCURVE",
"530 21 OFFCURVE",
"530 73 CURVE SMOOTH",
"530 101 OFFCURVE",
"520 128 OFFCURVE",
"511 143 CURVE",
"255 143 LINE",
"482 417 LINE SMOOTH",
"506 446 OFFCURVE",
"523 480 OFFCURVE",
"523 513 CURVE SMOOTH",
"523 554 OFFCURVE",
"508 585 OFFCURVE",
"479 609 CURVE",
"106 609 LINE SMOOTH",
"69 609 OFFCURVE",
"43 588 OFFCURVE",
"43 536 CURVE SMOOTH",
"43 508 OFFCURVE",
"53 481 OFFCURVE",
"62 466 CURVE",
"308 466 LINE",
"78 192 LINE",
"54 163 OFFCURVE",
"34 126 OFFCURVE",
"34 93 CURVE SMOOTH",
"34 52 OFFCURVE",
"50 19 OFFCURVE",
"73 0 CURVE"
);
},
{
closed = 1;
nodes = (
"362 705 LINE SMOOTH",
"408 723 OFFCURVE",
"430 744 OFFCURVE",
"430 782 CURVE SMOOTH",
"430 816 OFFCURVE",
"404 846 OFFCURVE",
"339 851 CURVE",
"192 763 LINE",
"171 752 OFFCURVE",
"161 734 OFFCURVE",
"161 715 CURVE SMOOTH",
"161 686 OFFCURVE",
"187 659 OFFCURVE",
"225 651 CURVE"
);
}
);
width = 560;
}
);
leftKerningGroup = Z;
rightKerningGroup = Z;
unicode = 0179;
},
{
glyphname = Zcaron;
layers = (
{
layerId = "95F0E3FF-6822-4CFD-805E-5B95C02D9EC6";
paths = (
{
closed = 1;
nodes = (
"467 0 LINE SMOOTH",
"504 0 OFFCURVE",
"530 21 OFFCURVE",
"530 73 CURVE SMOOTH",
"530 101 OFFCURVE",
"520 128 OFFCURVE",
"511 143 CURVE",
"255 143 LINE",
"482 417 LINE SMOOTH",
"506 446 OFFCURVE",
"523 480 OFFCURVE",
"523 513 CURVE SMOOTH",
"523 554 OFFCURVE",
"508 585 OFFCURVE",
"479 609 CURVE",
"106 609 LINE SMOOTH",
"69 609 OFFCURVE",
"43 588 OFFCURVE",
"43 536 CURVE SMOOTH",
"43 508 OFFCURVE",
"53 481 OFFCURVE",
"62 466 CURVE",
"308 466 LINE",
"78 192 LINE",
"54 163 OFFCURVE",
"34 126 OFFCURVE",
"34 93 CURVE SMOOTH",
"34 52 OFFCURVE",
"50 19 OFFCURVE",
"73 0 CURVE"
);
},
{
closed = 1;
nodes = (
"319 662 OFFCURVE",
"341 670 OFFCURVE",
"357 682 CURVE SMOOTH",
"412 724 LINE SMOOTH",
"448 752 OFFCURVE",
"458 766 OFFCURVE",
"458 793 CURVE SMOOTH",
"458 828 OFFCURVE",
"428 854 OFFCURVE",
"384 854 CURVE",
"289 778 LINE",
"263 803 LINE",
"221 843 OFFCURVE",
"202 851 OFFCURVE",
"176 851 CURVE SMOOTH",
"135 851 OFFCURVE",
"116 819 OFFCURVE",
"116 774 CURVE",
"197 703 LINE SMOOTH",
"231 673 OFFCURVE",
"257 662 OFFCURVE",
"293 662 CURVE SMOOTH"
);
}
);
width = 560;
}
);
leftKerningGroup = Z;
rightKerningGroup = Z;
unicode = 017D;
},
{
glyphname = Zdotaccent;
layers = (
{
layerId = "95F0E3FF-6822-4CFD-805E-5B95C02D9EC6";
paths = (
{
closed = 1;
nodes = (
"467 0 LINE SMOOTH",
"504 0 OFFCURVE",
"530 21 OFFCURVE",
"530 73 CURVE SMOOTH",
"530 101 OFFCURVE",
"520 128 OFFCURVE",
"511 143 CURVE",
"255 143 LINE",
"482 417 LINE SMOOTH",
"506 446 OFFCURVE",
"523 480 OFFCURVE",
"523 513 CURVE SMOOTH",
"523 554 OFFCURVE",
"508 585 OFFCURVE",
"479 609 CURVE",
"106 609 LINE SMOOTH",
"69 609 OFFCURVE",
"43 588 OFFCURVE",
"43 536 CURVE SMOOTH",
"43 508 OFFCURVE",
"53 481 OFFCURVE",
"62 466 CURVE",
"308 466 LINE",
"78 192 LINE",
"54 163 OFFCURVE",
"34 126 OFFCURVE",
"34 93 CURVE SMOOTH",
"34 52 OFFCURVE",
"50 19 OFFCURVE",
"73 0 CURVE"
);
},
{
closed = 1;
nodes = (
"338 667 OFFCURVE",
"374 705 OFFCURVE",
"374 754 CURVE SMOOTH",
"374 803 OFFCURVE",
"338 841 OFFCURVE",
"283 841 CURVE SMOOTH",
"230 841 OFFCURVE",
"194 803 OFFCURVE",
"194 754 CURVE",
"194 705 OFFCURVE",
"230 667 OFFCURVE",
"283 667 CURVE SMOOTH"
);
}
);
width = 560;
}
);
leftKerningGroup = Z;
rightKerningGroup = Z;
unicode = 017B;
},
{
glyphname = uni01CD;
layers = (
{
layerId = "95F0E3FF-6822-4CFD-805E-5B95C02D9EC6";
paths = (
{
closed = 1;
nodes = (
"152 -10 OFFCURVE",
"172 -4 OFFCURVE",
"190 2 CURVE",
"200 42 OFFCURVE",
"211 86 OFFCURVE",
"222 126 CURVE",
"403 126 LINE",
"421 57 LINE SMOOTH",
"434 11 OFFCURVE",
"452 -10 OFFCURVE",
"517 -10 CURVE SMOOTH",
"561 -10 OFFCURVE",
"594 3 OFFCURVE",
"610 21 CURVE",
"569 169 OFFCURVE",
"500 418 OFFCURVE",
"453 556 CURVE SMOOTH",
"439 597 OFFCURVE",
"381 616 OFFCURVE",
"315 616 CURVE SMOOTH",
"269 616 OFFCURVE",
"216 601 OFFCURVE",
"194 588 CURVE",
"166 517 OFFCURVE",
"64 224 OFFCURVE",
"36 117 CURVE SMOOTH",
"29 92 OFFCURVE",
"23 75 OFFCURVE",
"23 56 CURVE SMOOTH",
"23 15 OFFCURVE",
"56 -10 OFFCURVE",
"123 -10 CURVE SMOOTH"
);
},
{
closed = 1;
nodes = (
"270 331 OFFCURVE",
"296 403 OFFCURVE",
"314 459 CURVE",
"320 459 LINE",
"336 405 OFFCURVE",
"356 333 OFFCURVE",
"375 261 CURVE",
"251 261 LINE"
);
},
{
closed = 1;
nodes = (
"340 662 OFFCURVE",
"362 670 OFFCURVE",
"378 682 CURVE SMOOTH",
"433 724 LINE SMOOTH",
"469 752 OFFCURVE",
"479 766 OFFCURVE",
"479 793 CURVE SMOOTH",
"479 828 OFFCURVE",
"449 854 OFFCURVE",
"405 854 CURVE",
"310 778 LINE",
"284 803 LINE",
"242 843 OFFCURVE",
"223 851 OFFCURVE",
"197 851 CURVE SMOOTH",
"156 851 OFFCURVE",
"137 819 OFFCURVE",
"137 774 CURVE",
"218 703 LINE SMOOTH",
"252 673 OFFCURVE",
"278 662 OFFCURVE",
"314 662 CURVE SMOOTH"
);
}
);
width = 627;
}
);
leftKerningGroup = A;
rightKerningGroup = A;
unicode = 01CD;
},
{
glyphname = uni01CF;
layers = (
{
layerId = "95F0E3FF-6822-4CFD-805E-5B95C02D9EC6";
paths = (
{
closed = 1;
nodes = (
"189 -5 OFFCURVE",
"226 0 OFFCURVE",
"240 4 CURVE",
"240 532 LINE",
"240 601 OFFCURVE",
"207 615 OFFCURVE",
"146 615 CURVE SMOOTH",
"117 615 OFFCURVE",
"79 609 OFFCURVE",
"65 606 CURVE",
"65 78 LINE SMOOTH",
"65 9 OFFCURVE",
"97 -5 OFFCURVE",
"159 -5 CURVE SMOOTH"
);
},
{
closed = 1;
nodes = (
"175 662 OFFCURVE",
"197 670 OFFCURVE",
"213 682 CURVE SMOOTH",
"268 724 LINE SMOOTH",
"304 752 OFFCURVE",
"314 766 OFFCURVE",
"314 793 CURVE SMOOTH",
"314 828 OFFCURVE",
"284 854 OFFCURVE",
"240 854 CURVE",
"145 778 LINE",
"119 803 LINE",
"77 843 OFFCURVE",
"58 851 OFFCURVE",
"32 851 CURVE SMOOTH",
"-9 851 OFFCURVE",
"-28 819 OFFCURVE",
"-28 774 CURVE",
"53 703 LINE SMOOTH",
"87 673 OFFCURVE",
"113 662 OFFCURVE",
"149 662 CURVE SMOOTH"
);
}
);
width = 305;
}
);
unicode = 01CF;
},
{
glyphname = uni01D1;
layers = (
{
layerId = "95F0E3FF-6822-4CFD-805E-5B95C02D9EC6";
paths = (
{
closed = 1;
nodes = (
"533 -18 OFFCURVE",
"668 95 OFFCURVE",
"668 304 CURVE SMOOTH",
"668 512 OFFCURVE",
"529 625 OFFCURVE",
"351 625 CURVE SMOOTH",
"173 625 OFFCURVE",
"35 512 OFFCURVE",
"35 304 CURVE",
"35 99 OFFCURVE",
"169 -18 OFFCURVE",
"351 -18 CURVE SMOOTH"
);
},
{
closed = 1;
nodes = (
"269 123 OFFCURVE",
"215 183 OFFCURVE",
"215 304 CURVE",
"215 424 OFFCURVE",
"270 484 OFFCURVE",
"352 484 CURVE SMOOTH",
"435 484 OFFCURVE",
"488 423 OFFCURVE",
"488 304 CURVE SMOOTH",
"488 183 OFFCURVE",
"434 123 OFFCURVE",
"351 123 CURVE SMOOTH"
);
},
{
closed = 1;
nodes = (
"379 662 OFFCURVE",
"401 670 OFFCURVE",
"417 682 CURVE SMOOTH",
"472 724 LINE SMOOTH",
"508 752 OFFCURVE",
"518 766 OFFCURVE",
"518 793 CURVE SMOOTH",
"518 828 OFFCURVE",
"488 854 OFFCURVE",
"444 854 CURVE",
"349 778 LINE",
"323 803 LINE",
"281 843 OFFCURVE",
"262 851 OFFCURVE",
"236 851 CURVE SMOOTH",
"195 851 OFFCURVE",
"176 819 OFFCURVE",
"176 774 CURVE",
"257 703 LINE SMOOTH",
"291 673 OFFCURVE",
"317 662 OFFCURVE",
"353 662 CURVE SMOOTH"
);
}
);
width = 703;
}
);
leftKerningGroup = O;
rightKerningGroup = O;
unicode = 01D1;
},
{
glyphname = uni01D3;
layers = (
{
layerId = "95F0E3FF-6822-4CFD-805E-5B95C02D9EC6";
paths = (
{
closed = 1;
nodes = (
"500 -16 OFFCURVE",
"602 79 OFFCURVE",
"602 224 CURVE SMOOTH",
"602 532 LINE",
"602 601 OFFCURVE",
"569 615 OFFCURVE",
"508 615 CURVE SMOOTH",
"479 615 OFFCURVE",
"441 609 OFFCURVE",
"427 606 CURVE",
"427 227 LINE SMOOTH",
"427 164 OFFCURVE",
"389 125 OFFCURVE",
"332 125 CURVE SMOOTH",
"276 125 OFFCURVE",
"237 164 OFFCURVE",
"237 227 CURVE SMOOTH",
"237 532 LINE SMOOTH",
"237 601 OFFCURVE",
"204 615 OFFCURVE",
"143 615 CURVE SMOOTH",
"114 615 OFFCURVE",
"76 609 OFFCURVE",
"62 606 CURVE",
"62 224 LINE SMOOTH",
"62 79 OFFCURVE",
"164 -16 OFFCURVE",
"332 -16 CURVE SMOOTH"
);
},
{
closed = 1;
nodes = (
"348 662 OFFCURVE",
"370 670 OFFCURVE",
"386 682 CURVE SMOOTH",
"441 724 LINE SMOOTH",
"477 752 OFFCURVE",
"487 766 OFFCURVE",
"487 793 CURVE SMOOTH",
"487 828 OFFCURVE",
"457 854 OFFCURVE",
"413 854 CURVE",
"318 778 LINE",
"292 803 LINE",
"250 843 OFFCURVE",
"231 851 OFFCURVE",
"205 851 CURVE SMOOTH",
"164 851 OFFCURVE",
"145 819 OFFCURVE",
"145 774 CURVE",
"226 703 LINE SMOOTH",
"260 673 OFFCURVE",
"286 662 OFFCURVE",
"322 662 CURVE SMOOTH"
);
}
);
width = 664;
}
);
leftKerningGroup = U;
rightKerningGroup = U;
unicode = 01D3;
},
{
glyphname = uni01D5;
layers = (
{
layerId = "95F0E3FF-6822-4CFD-805E-5B95C02D9EC6";
paths = (
{
closed = 1;
nodes = (
"500 -16 OFFCURVE",
"602 79 OFFCURVE",
"602 224 CURVE SMOOTH",
"602 532 LINE",
"602 601 OFFCURVE",
"569 615 OFFCURVE",
"508 615 CURVE SMOOTH",
"479 615 OFFCURVE",
"441 609 OFFCURVE",
"427 606 CURVE",
"427 227 LINE SMOOTH",
"427 164 OFFCURVE",
"389 125 OFFCURVE",
"332 125 CURVE SMOOTH",
"276 125 OFFCURVE",
"237 164 OFFCURVE",
"237 227 CURVE SMOOTH",
"237 532 LINE SMOOTH",
"237 601 OFFCURVE",
"204 615 OFFCURVE",
"143 615 CURVE SMOOTH",
"114 615 OFFCURVE",
"76 609 OFFCURVE",
"62 606 CURVE",
"62 224 LINE SMOOTH",
"62 79 OFFCURVE",
"164 -16 OFFCURVE",
"332 -16 CURVE SMOOTH"
);
},
{
closed = 1;
nodes = (
"267 669 OFFCURVE",
"302 708 OFFCURVE",
"302 755 CURVE SMOOTH",
"302 801 OFFCURVE",
"267 841 OFFCURVE",
"212 841 CURVE SMOOTH",
"163 841 OFFCURVE",
"125 801 OFFCURVE",
"125 755 CURVE",
"125 708 OFFCURVE",
"163 669 OFFCURVE",
"212 669 CURVE SMOOTH"
);
},
{
closed = 1;
nodes = (
"489 669 OFFCURVE",
"526 708 OFFCURVE",
"526 755 CURVE SMOOTH",
"526 801 OFFCURVE",
"489 841 OFFCURVE",
"438 841 CURVE SMOOTH",
"383 841 OFFCURVE",
"349 801 OFFCURVE",
"349 755 CURVE",
"349 708 OFFCURVE",
"383 669 OFFCURVE",
"438 669 CURVE SMOOTH"
);
},
{
closed = 1;
nodes = (
"441 892 LINE",
"474 892 OFFCURVE",
"495 909 OFFCURVE",
"495 958 CURVE SMOOTH",
"495 982 OFFCURVE",
"490 1006 OFFCURVE",
"479 1020 CURVE",
"214 1020 LINE SMOOTH",
"181 1020 OFFCURVE",
"159 1003 OFFCURVE",
"159 954 CURVE SMOOTH",
"159 930 OFFCURVE",
"169 906 OFFCURVE",
"175 892 CURVE"
);
}
);
width = 664;
}
);
leftKerningGroup = U;
rightKerningGroup = U;
unicode = 01D5;
},
{
glyphname = uni01D7;
layers = (
{
layerId = "95F0E3FF-6822-4CFD-805E-5B95C02D9EC6";
paths = (
{
closed = 1;
nodes = (
"531 -16 OFFCURVE",
"633 79 OFFCURVE",
"633 224 CURVE SMOOTH",
"633 532 LINE",
"633 601 OFFCURVE",
"600 615 OFFCURVE",
"539 615 CURVE SMOOTH",
"510 615 OFFCURVE",
"472 609 OFFCURVE",
"458 606 CURVE",
"458 227 LINE SMOOTH",
"458 164 OFFCURVE",
"420 125 OFFCURVE",
"363 125 CURVE SMOOTH",
"307 125 OFFCURVE",
"268 164 OFFCURVE",
"268 227 CURVE SMOOTH",
"268 532 LINE SMOOTH",
"268 601 OFFCURVE",
"235 615 OFFCURVE",
"174 615 CURVE SMOOTH",
"145 615 OFFCURVE",
"107 609 OFFCURVE",
"93 606 CURVE",
"93 224 LINE SMOOTH",
"93 79 OFFCURVE",
"195 -16 OFFCURVE",
"363 -16 CURVE SMOOTH"
);
},
{
closed = 1;
nodes = (
"198 647 OFFCURVE",
"232 684 OFFCURVE",
"232 729 CURVE SMOOTH",
"232 773 OFFCURVE",
"198 811 OFFCURVE",
"145 811 CURVE SMOOTH",
"98 811 OFFCURVE",
"62 773 OFFCURVE",
"62 729 CURVE",
"62 684 OFFCURVE",
"98 647 OFFCURVE",
"145 647 CURVE SMOOTH"
);
},
{
closed = 1;
nodes = (
"336 648 OFFCURVE",
"341 648 OFFCURVE",
"346 649 CURVE",
"435 721 LINE SMOOTH",
"464 745 OFFCURVE",
"475 768 OFFCURVE",
"475 791 CURVE SMOOTH",
"475 828 OFFCURVE",
"451 858 OFFCURVE",
"402 858 CURVE SMOOTH",
"389 858 OFFCURVE",
"375 856 OFFCURVE",
"359 852 CURVE",
"272 747 LINE",
"261 734 OFFCURVE",
"256 721 OFFCURVE",
"256 708 CURVE SMOOTH",
"256 675 OFFCURVE",
"292 648 OFFCURVE",
"331 648 CURVE SMOOTH"
);
},
{
closed = 1;
nodes = (
"620 647 OFFCURVE",
"656 684 OFFCURVE",
"656 729 CURVE SMOOTH",
"656 773 OFFCURVE",
"620 811 OFFCURVE",
"571 811 CURVE SMOOTH",
"518 811 OFFCURVE",
"486 773 OFFCURVE",
"486 729 CURVE",
"486 684 OFFCURVE",
"518 647 OFFCURVE",
"571 647 CURVE SMOOTH"
);
}
);
width = 718;
}
);
leftKerningGroup = U;
rightKerningGroup = U;
unicode = 01D7;
},
{
glyphname = uni01D9;
layers = (
{
layerId = "95F0E3FF-6822-4CFD-805E-5B95C02D9EC6";
paths = (
{
closed = 1;
nodes = (
"500 -16 OFFCURVE",
"602 79 OFFCURVE",
"602 224 CURVE SMOOTH",
"602 532 LINE",
"602 601 OFFCURVE",
"569 615 OFFCURVE",
"508 615 CURVE SMOOTH",
"479 615 OFFCURVE",
"441 609 OFFCURVE",
"427 606 CURVE",
"427 227 LINE SMOOTH",
"427 164 OFFCURVE",
"389 125 OFFCURVE",
"332 125 CURVE SMOOTH",
"276 125 OFFCURVE",
"237 164 OFFCURVE",
"237 227 CURVE SMOOTH",
"237 532 LINE SMOOTH",
"237 601 OFFCURVE",
"204 615 OFFCURVE",
"143 615 CURVE SMOOTH",
"114 615 OFFCURVE",
"76 609 OFFCURVE",
"62 606 CURVE",
"62 224 LINE SMOOTH",
"62 79 OFFCURVE",
"164 -16 OFFCURVE",
"332 -16 CURVE SMOOTH"
);
},
{
closed = 1;
nodes = (
"238 667 OFFCURVE",
"272 704 OFFCURVE",
"272 749 CURVE SMOOTH",
"272 793 OFFCURVE",
"238 831 OFFCURVE",
"185 831 CURVE SMOOTH",
"138 831 OFFCURVE",
"102 793 OFFCURVE",
"102 749 CURVE",
"102 704 OFFCURVE",
"138 667 OFFCURVE",
"185 667 CURVE SMOOTH"
);
},
{
closed = 1;
nodes = (
"525 667 OFFCURVE",
"561 704 OFFCURVE",
"561 749 CURVE SMOOTH",
"561 793 OFFCURVE",
"525 831 OFFCURVE",
"476 831 CURVE SMOOTH",
"423 831 OFFCURVE",
"391 793 OFFCURVE",
"391 749 CURVE",
"391 704 OFFCURVE",
"423 667 OFFCURVE",
"476 667 CURVE SMOOTH"
);
},
{
closed = 1;
nodes = (
"357 823 OFFCURVE",
"379 831 OFFCURVE",
"395 843 CURVE SMOOTH",
"450 885 LINE SMOOTH",
"486 913 OFFCURVE",
"496 927 OFFCURVE",
"496 954 CURVE SMOOTH",
"496 989 OFFCURVE",
"466 1015 OFFCURVE",
"422 1015 CURVE",
"327 939 LINE",
"301 964 LINE",
"259 1004 OFFCURVE",
"240 1012 OFFCURVE",
"214 1012 CURVE SMOOTH",
"173 1012 OFFCURVE",
"154 980 OFFCURVE",
"154 935 CURVE",
"235 864 LINE SMOOTH",
"269 834 OFFCURVE",
"295 823 OFFCURVE",
"331 823 CURVE SMOOTH"
);
}
);
width = 664;
}
);
leftKerningGroup = U;
rightKerningGroup = U;
unicode = 01D9;
},
{
glyphname = uni01DB;
layers = (
{
layerId = "95F0E3FF-6822-4CFD-805E-5B95C02D9EC6";
paths = (
{
closed = 1;
nodes = (
"531 -16 OFFCURVE",
"633 79 OFFCURVE",
"633 224 CURVE SMOOTH",
"633 532 LINE",
"633 601 OFFCURVE",
"600 615 OFFCURVE",
"539 615 CURVE SMOOTH",
"510 615 OFFCURVE",
"472 609 OFFCURVE",
"458 606 CURVE",
"458 227 LINE SMOOTH",
"458 164 OFFCURVE",
"420 125 OFFCURVE",
"363 125 CURVE SMOOTH",
"307 125 OFFCURVE",
"268 164 OFFCURVE",
"268 227 CURVE SMOOTH",
"268 532 LINE SMOOTH",
"268 601 OFFCURVE",
"235 615 OFFCURVE",
"174 615 CURVE SMOOTH",
"145 615 OFFCURVE",
"107 609 OFFCURVE",
"93 606 CURVE",
"93 224 LINE SMOOTH",
"93 79 OFFCURVE",
"195 -16 OFFCURVE",
"363 -16 CURVE SMOOTH"
);
},
{
closed = 1;
nodes = (
"198 647 OFFCURVE",
"232 684 OFFCURVE",
"232 729 CURVE SMOOTH",
"232 773 OFFCURVE",
"198 811 OFFCURVE",
"145 811 CURVE SMOOTH",
"98 811 OFFCURVE",
"62 773 OFFCURVE",
"62 729 CURVE",
"62 684 OFFCURVE",
"98 647 OFFCURVE",
"145 647 CURVE SMOOTH"
);
},
{
closed = 1;
nodes = (
"426 645 OFFCURVE",
"453 666 OFFCURVE",
"465 712 CURVE",
"404 801 LINE SMOOTH",
"380 836 OFFCURVE",
"358 860 OFFCURVE",
"315 860 CURVE SMOOTH",
"282 860 OFFCURVE",
"244 827 OFFCURVE",
"244 774 CURVE",
"324 684 LINE",
"345 660 OFFCURVE",
"371 645 OFFCURVE",
"396 645 CURVE SMOOTH"
);
},
{
closed = 1;
nodes = (
"620 647 OFFCURVE",
"656 684 OFFCURVE",
"656 729 CURVE SMOOTH",
"656 773 OFFCURVE",
"620 811 OFFCURVE",
"571 811 CURVE SMOOTH",
"518 811 OFFCURVE",
"486 773 OFFCURVE",
"486 729 CURVE",
"486 684 OFFCURVE",
"518 647 OFFCURVE",
"571 647 CURVE SMOOTH"
);
}
);
width = 718;
}
);
leftKerningGroup = U;
rightKerningGroup = U;
unicode = 01DB;
},
{
glyphname = uni021A;
layers = (
{
layerId = "95F0E3FF-6822-4CFD-805E-5B95C02D9EC6";
paths = (
{
closed = 1;
nodes = (
"311 -5 OFFCURVE",
"348 0 OFFCURVE",
"362 4 CURVE",
"362 466 LINE",
"473 466 LINE SMOOTH",
"510 466 OFFCURVE",
"536 487 OFFCURVE",
"536 539 CURVE SMOOTH",
"536 567 OFFCURVE",
"526 594 OFFCURVE",
"517 609 CURVE",
"81 609 LINE SMOOTH",
"44 609 OFFCURVE",
"18 588 OFFCURVE",
"18 536 CURVE SMOOTH",
"18 508 OFFCURVE",
"28 481 OFFCURVE",
"37 466 CURVE",
"187 466 LINE",
"187 78 LINE SMOOTH",
"187 9 OFFCURVE",
"219 -5 OFFCURVE",
"281 -5 CURVE SMOOTH"
);
},
{
closed = 1;
nodes = (
"250 -256 OFFCURVE",
"277 -247 OFFCURVE",
"299 -223 CURVE",
"325 -195 OFFCURVE",
"356 -137 OFFCURVE",
"356 -104 CURVE SMOOTH",
"356 -67 OFFCURVE",
"326 -52 OFFCURVE",
"284 -52 CURVE SMOOTH",
"255 -52 OFFCURVE",
"224 -62 OFFCURVE",
"203 -73 CURVE",
"196 -125 OFFCURVE",
"184 -177 OFFCURVE",
"156 -233 CURVE",
"173 -248 OFFCURVE",
"194 -256 OFFCURVE",
"220 -256 CURVE SMOOTH"
);
}
);
width = 556;
}
);
leftKerningGroup = T;
rightKerningGroup = T;
unicode = 021A;
},
{
glyphname = uni1E0C;
layers = (
{
layerId = "95F0E3FF-6822-4CFD-805E-5B95C02D9EC6";
paths = (
{
closed = 1;
nodes = (
"489 -16 OFFCURVE",
"624 92 OFFCURVE",
"624 304 CURVE SMOOTH",
"624 522 OFFCURVE",
"485 623 OFFCURVE",
"278 623 CURVE SMOOTH",
"227 623 OFFCURVE",
"158 619 OFFCURVE",
"101 600 CURVE SMOOTH",
"75 591 OFFCURVE",
"58 577 OFFCURVE",
"58 549 CURVE SMOOTH",
"58 82 LINE SMOOTH",
"58 46 OFFCURVE",
"77 23 OFFCURVE",
"113 9 CURVE SMOOTH",
"166 -11 OFFCURVE",
"242 -16 OFFCURVE",
"288 -16 CURVE"
);
},
{
closed = 1;
nodes = (
"350 -227 OFFCURVE",
"387 -188 OFFCURVE",
"387 -141 CURVE SMOOTH",
"387 -94 OFFCURVE",
"350 -55 OFFCURVE",
"298 -55 CURVE SMOOTH",
"246 -55 OFFCURVE",
"209 -94 OFFCURVE",
"209 -141 CURVE",
"209 -188 OFFCURVE",
"246 -227 OFFCURVE",
"298 -227 CURVE SMOOTH"
);
},
{
closed = 1;
nodes = (
"271 125 OFFCURVE",
"246 127 OFFCURVE",
"232 130 CURVE",
"232 478 LINE",
"252 481 OFFCURVE",
"271 482 OFFCURVE",
"290 482 CURVE SMOOTH",
"383 482 OFFCURVE",
"444 420 OFFCURVE",
"444 301 CURVE SMOOTH",
"444 176 OFFCURVE",
"380 125 OFFCURVE",
"289 125 CURVE SMOOTH"
);
}
);
width = 659;
}
);
rightKerningGroup = O;
unicode = 1E0C;
},
{
glyphname = uni1E0E;
layers = (
{
layerId = "95F0E3FF-6822-4CFD-805E-5B95C02D9EC6";
paths = (
{
closed = 1;
nodes = (
"489 -16 OFFCURVE",
"624 92 OFFCURVE",
"624 304 CURVE SMOOTH",
"624 522 OFFCURVE",
"485 623 OFFCURVE",
"278 623 CURVE SMOOTH",
"227 623 OFFCURVE",
"158 619 OFFCURVE",
"101 600 CURVE SMOOTH",
"75 591 OFFCURVE",
"58 577 OFFCURVE",
"58 549 CURVE SMOOTH",
"58 82 LINE SMOOTH",
"58 46 OFFCURVE",
"77 23 OFFCURVE",
"113 9 CURVE SMOOTH",
"166 -11 OFFCURVE",
"242 -16 OFFCURVE",
"288 -16 CURVE"
);
},
{
closed = 1;
nodes = (
"421 -214 LINE",
"454 -214 OFFCURVE",
"475 -197 OFFCURVE",
"475 -148 CURVE SMOOTH",
"475 -124 OFFCURVE",
"470 -100 OFFCURVE",
"459 -86 CURVE",
"184 -86 LINE SMOOTH",
"151 -86 OFFCURVE",
"129 -103 OFFCURVE",
"129 -152 CURVE SMOOTH",
"129 -176 OFFCURVE",
"139 -200 OFFCURVE",
"145 -214 CURVE"
);
},
{
closed = 1;
nodes = (
"271 125 OFFCURVE",
"246 127 OFFCURVE",
"232 130 CURVE",
"232 478 LINE",
"252 481 OFFCURVE",
"271 482 OFFCURVE",
"290 482 CURVE SMOOTH",
"383 482 OFFCURVE",
"444 420 OFFCURVE",
"444 301 CURVE SMOOTH",
"444 176 OFFCURVE",
"380 125 OFFCURVE",
"289 125 CURVE SMOOTH"
);
}
);
width = 659;
}
);
rightKerningGroup = O;
unicode = 1E0E;
},
{
glyphname = uni1E20;
layers = (
{
layerId = "95F0E3FF-6822-4CFD-805E-5B95C02D9EC6";
paths = (
{
closed = 1;
nodes = (
"451 -16 OFFCURVE",
"531 2 OFFCURVE",
"568 24 CURVE SMOOTH",
"600 43 OFFCURVE",
"614 58 OFFCURVE",
"614 99 CURVE SMOOTH",
"614 303 LINE",
"614 343 OFFCURVE",
"591 366 OFFCURVE",
"551 366 CURVE SMOOTH",
"382 366 LINE SMOOTH",
"347 366 OFFCURVE",
"323 346 OFFCURVE",
"323 298 CURVE SMOOTH",
"323 271 OFFCURVE",
"332 246 OFFCURVE",
"340 231 CURVE",
"447 231 LINE",
"447 137 LINE",
"435 131 OFFCURVE",
"411 124 OFFCURVE",
"382 124 CURVE SMOOTH",
"292 124 OFFCURVE",
"215 178 OFFCURVE",
"215 301 CURVE SMOOTH",
"215 414 OFFCURVE",
"287 482 OFFCURVE",
"398 482 CURVE SMOOTH",
"460 482 OFFCURVE",
"512 458 OFFCURVE",
"545 438 CURVE",
"567 453 OFFCURVE",
"588 479 OFFCURVE",
"588 513 CURVE SMOOTH",
"588 578 OFFCURVE",
"508 623 OFFCURVE",
"382 623 CURVE SMOOTH",
"205 623 OFFCURVE",
"35 517 OFFCURVE",
"35 298 CURVE SMOOTH",
"35 89 OFFCURVE",
"188 -16 OFFCURVE",
"380 -16 CURVE SMOOTH"
);
},
{
closed = 1;
nodes = (
"465 695 LINE",
"498 695 OFFCURVE",
"519 712 OFFCURVE",
"519 761 CURVE SMOOTH",
"519 785 OFFCURVE",
"514 809 OFFCURVE",
"503 823 CURVE",
"238 823 LINE SMOOTH",
"205 823 OFFCURVE",
"183 806 OFFCURVE",
"183 757 CURVE SMOOTH",
"183 733 OFFCURVE",
"193 709 OFFCURVE",
"199 695 CURVE"
);
}
);
width = 664;
}
);
leftKerningGroup = O;
rightKerningGroup = G;
unicode = 1E20;
},
{
glyphname = uni1E24;
layers = (
{
layerId = "95F0E3FF-6822-4CFD-805E-5B95C02D9EC6";
paths = (
{
closed = 1;
nodes = (
"198 -5 OFFCURVE",
"235 0 OFFCURVE",
"249 4 CURVE",
"249 234 LINE",
"441 234 LINE",
"441 78 LINE SMOOTH",
"441 9 OFFCURVE",
"473 -5 OFFCURVE",
"535 -5 CURVE SMOOTH",
"565 -5 OFFCURVE",
"602 0 OFFCURVE",
"616 4 CURVE",
"616 532 LINE",
"616 601 OFFCURVE",
"583 615 OFFCURVE",
"522 615 CURVE SMOOTH",
"493 615 OFFCURVE",
"455 609 OFFCURVE",
"441 606 CURVE",
"441 372 LINE",
"249 372 LINE",
"249 532 LINE SMOOTH",
"249 601 OFFCURVE",
"216 615 OFFCURVE",
"155 615 CURVE SMOOTH",
"126 615 OFFCURVE",
"88 609 OFFCURVE",
"74 606 CURVE",
"74 78 LINE SMOOTH",
"74 9 OFFCURVE",
"106 -5 OFFCURVE",
"168 -5 CURVE SMOOTH"
);
},
{
closed = 1;
nodes = (
"407 -227 OFFCURVE",
"444 -188 OFFCURVE",
"444 -141 CURVE SMOOTH",
"444 -94 OFFCURVE",
"407 -55 OFFCURVE",
"355 -55 CURVE SMOOTH",
"303 -55 OFFCURVE",
"266 -94 OFFCURVE",
"266 -141 CURVE",
"266 -188 OFFCURVE",
"303 -227 OFFCURVE",
"355 -227 CURVE SMOOTH"
);
}
);
width = 643;
}
);
unicode = 1E24;
},
{
glyphname = uni1E2A;
layers = (
{
layerId = "95F0E3FF-6822-4CFD-805E-5B95C02D9EC6";
paths = (
{
closed = 1;
nodes = (
"198 -5 OFFCURVE",
"235 0 OFFCURVE",
"249 4 CURVE",
"249 234 LINE",
"441 234 LINE",
"441 78 LINE SMOOTH",
"441 9 OFFCURVE",
"473 -5 OFFCURVE",
"535 -5 CURVE SMOOTH",
"565 -5 OFFCURVE",
"602 0 OFFCURVE",
"616 4 CURVE",
"616 532 LINE",
"616 601 OFFCURVE",
"583 615 OFFCURVE",
"522 615 CURVE SMOOTH",
"493 615 OFFCURVE",
"455 609 OFFCURVE",
"441 606 CURVE",
"441 372 LINE",
"249 372 LINE",
"249 532 LINE SMOOTH",
"249 601 OFFCURVE",
"216 615 OFFCURVE",
"155 615 CURVE SMOOTH",
"126 615 OFFCURVE",
"88 609 OFFCURVE",
"74 606 CURVE",
"74 78 LINE SMOOTH",
"74 9 OFFCURVE",
"106 -5 OFFCURVE",
"168 -5 CURVE SMOOTH"
);
},
{
closed = 1;
nodes = (
"468 -226 OFFCURVE",
"531 -180 OFFCURVE",
"531 -120 CURVE SMOOTH",
"531 -85 OFFCURVE",
"505 -48 OFFCURVE",
"451 -48 CURVE SMOOTH",
"445 -48 OFFCURVE",
"440 -48 OFFCURVE",
"433 -49 CURVE",
"425 -78 OFFCURVE",
"398 -101 OFFCURVE",
"357 -101 CURVE SMOOTH",
"316 -101 OFFCURVE",
"288 -78 OFFCURVE",
"281 -49 CURVE",
"274 -48 OFFCURVE",
"269 -48 OFFCURVE",
"263 -48 CURVE SMOOTH",
"209 -48 OFFCURVE",
"183 -85 OFFCURVE",
"183 -120 CURVE SMOOTH",
"183 -180 OFFCURVE",
"246 -226 OFFCURVE",
"357 -226 CURVE"
);
}
);
width = 643;
}
);
unicode = 1E2A;
},
{
glyphname = uni1E36;
layers = (
{
layerId = "95F0E3FF-6822-4CFD-805E-5B95C02D9EC6";
paths = (
{
closed = 1;
nodes = (
"419 -3 LINE",
"456 -3 OFFCURVE",
"481 17 OFFCURVE",
"481 70 CURVE SMOOTH",
"481 97 OFFCURVE",
"471 123 OFFCURVE",
"462 138 CURVE",
"233 138 LINE",
"233 533 LINE SMOOTH",
"233 602 OFFCURVE",
"200 616 OFFCURVE",
"139 616 CURVE SMOOTH",
"110 616 OFFCURVE",
"72 610 OFFCURVE",
"58 607 CURVE",
"58 90 LINE SMOOTH",
"58 33 OFFCURVE",
"94 -3 OFFCURVE",
"151 -3 CURVE SMOOTH"
);
},
{
closed = 1;
nodes = (
"327 -227 OFFCURVE",
"364 -188 OFFCURVE",
"364 -141 CURVE SMOOTH",
"364 -94 OFFCURVE",
"327 -55 OFFCURVE",
"275 -55 CURVE SMOOTH",
"223 -55 OFFCURVE",
"186 -94 OFFCURVE",
"186 -141 CURVE",
"186 -188 OFFCURVE",
"223 -227 OFFCURVE",
"275 -227 CURVE SMOOTH"
);
}
);
width = 506;
}
);
rightKerningGroup = L;
unicode = 1E36;
},
{
glyphname = uni1E38;
layers = (
{
layerId = "95F0E3FF-6822-4CFD-805E-5B95C02D9EC6";
paths = (
{
closed = 1;
nodes = (
"426 -3 LINE",
"463 -3 OFFCURVE",
"488 17 OFFCURVE",
"488 70 CURVE SMOOTH",
"488 97 OFFCURVE",
"478 123 OFFCURVE",
"469 138 CURVE",
"240 138 LINE",
"240 533 LINE SMOOTH",
"240 602 OFFCURVE",
"207 616 OFFCURVE",
"146 616 CURVE SMOOTH",
"117 616 OFFCURVE",
"79 610 OFFCURVE",
"65 607 CURVE",
"65 90 LINE SMOOTH",
"65 33 OFFCURVE",
"101 -3 OFFCURVE",
"158 -3 CURVE SMOOTH"
);
},
{
closed = 1;
nodes = (
"324 -227 OFFCURVE",
"361 -188 OFFCURVE",
"361 -141 CURVE SMOOTH",
"361 -94 OFFCURVE",
"324 -55 OFFCURVE",
"272 -55 CURVE SMOOTH",
"220 -55 OFFCURVE",
"183 -94 OFFCURVE",
"183 -141 CURVE",
"183 -188 OFFCURVE",
"220 -227 OFFCURVE",
"272 -227 CURVE SMOOTH"
);
},
{
closed = 1;
nodes = (
"280 695 LINE",
"313 695 OFFCURVE",
"334 712 OFFCURVE",
"334 761 CURVE SMOOTH",
"334 785 OFFCURVE",
"329 809 OFFCURVE",
"318 823 CURVE",
"53 823 LINE SMOOTH",
"20 823 OFFCURVE",
"-2 806 OFFCURVE",
"-2 757 CURVE SMOOTH",
"-2 733 OFFCURVE",
"8 709 OFFCURVE",
"14 695 CURVE"
);
}
);
width = 513;
}
);
rightKerningGroup = L;
unicode = 1E38;
},
{
glyphname = uni1E3A;
layers = (
{
layerId = "95F0E3FF-6822-4CFD-805E-5B95C02D9EC6";
paths = (
{
closed = 1;
nodes = (
"419 -3 LINE",
"456 -3 OFFCURVE",
"481 17 OFFCURVE",
"481 70 CURVE SMOOTH",
"481 97 OFFCURVE",
"471 123 OFFCURVE",
"462 138 CURVE",
"233 138 LINE",
"233 533 LINE SMOOTH",
"233 602 OFFCURVE",
"200 616 OFFCURVE",
"139 616 CURVE SMOOTH",
"110 616 OFFCURVE",
"72 610 OFFCURVE",
"58 607 CURVE",
"58 90 LINE SMOOTH",
"58 33 OFFCURVE",
"94 -3 OFFCURVE",
"151 -3 CURVE SMOOTH"
);
},
{
closed = 1;
nodes = (
"385 -214 LINE",
"418 -214 OFFCURVE",
"439 -197 OFFCURVE",
"439 -148 CURVE SMOOTH",
"439 -124 OFFCURVE",
"434 -100 OFFCURVE",
"423 -86 CURVE",
"148 -86 LINE SMOOTH",
"115 -86 OFFCURVE",
"93 -103 OFFCURVE",
"93 -152 CURVE SMOOTH",
"93 -176 OFFCURVE",
"103 -200 OFFCURVE",
"109 -214 CURVE"
);
}
);
width = 506;
}
);
rightKerningGroup = L;
unicode = 1E3A;
},
{
glyphname = uni1E42;
layers = (
{
layerId = "95F0E3FF-6822-4CFD-805E-5B95C02D9EC6";
paths = (
{
closed = 1;
nodes = (
"172 -8 OFFCURVE",
"203 -2 OFFCURVE",
"220 4 CURVE",
"228 155 OFFCURVE",
"225 246 OFFCURVE",
"233 403 CURVE",
"238 403 LINE",
"251 348 OFFCURVE",
"275 283 OFFCURVE",
"312 165 CURVE SMOOTH",
"321 136 OFFCURVE",
"354 125 OFFCURVE",
"402 125 CURVE SMOOTH",
"438 125 OFFCURVE",
"466 135 OFFCURVE",
"483 149 CURVE",
"519 272 OFFCURVE",
"545 346 OFFCURVE",
"558 398 CURVE",
"563 398 LINE",
"567 320 OFFCURVE",
"567 201 OFFCURVE",
"575 56 CURVE SMOOTH",
"578 5 OFFCURVE",
"617 -8 OFFCURVE",
"667 -8 CURVE SMOOTH",
"706 -8 OFFCURVE",
"727 -2 OFFCURVE",
"750 11 CURVE",
"745 109 OFFCURVE",
"716 473 OFFCURVE",
"701 554 CURVE SMOOTH",
"694 590 OFFCURVE",
"650 610 OFFCURVE",
"585 610 CURVE SMOOTH",
"547 610 OFFCURVE",
"514 601 OFFCURVE",
"494 591 CURVE",
"468 521 OFFCURVE",
"434 408 OFFCURVE",
"402 297 CURVE",
"397 297 LINE",
"375 367 OFFCURVE",
"342 476 OFFCURVE",
"318 540 CURVE SMOOTH",
"300 589 OFFCURVE",
"261 610 OFFCURVE",
"191 610 CURVE SMOOTH",
"126 610 OFFCURVE",
"91 584 OFFCURVE",
"80 567 CURVE",
"51 57 LINE",
"51 8 OFFCURVE",
"86 -8 OFFCURVE",
"144 -8 CURVE SMOOTH"
);
},
{
closed = 1;
nodes = (
"454 -227 OFFCURVE",
"491 -188 OFFCURVE",
"491 -141 CURVE SMOOTH",
"491 -94 OFFCURVE",
"454 -55 OFFCURVE",
"402 -55 CURVE SMOOTH",
"350 -55 OFFCURVE",
"313 -94 OFFCURVE",
"313 -141 CURVE",
"313 -188 OFFCURVE",
"350 -227 OFFCURVE",
"402 -227 CURVE SMOOTH"
);
}
);
width = 806;
}
);
leftKerningGroup = M;
rightKerningGroup = M;
unicode = 1E42;
},
{
glyphname = uni1E44;
layers = (
{
layerId = "95F0E3FF-6822-4CFD-805E-5B95C02D9EC6";
paths = (
{
closed = 1;
nodes = (
"552 -8 OFFCURVE",
"588 3 OFFCURVE",
"607 21 CURVE",
"607 535 LINE SMOOTH",
"607 601 OFFCURVE",
"576 615 OFFCURVE",
"517 615 CURVE SMOOTH",
"488 615 OFFCURVE",
"453 610 OFFCURVE",
"439 606 CURVE",
"439 444 LINE SMOOTH",
"439 372 OFFCURVE",
"440 300 OFFCURVE",
"445 228 CURVE",
"440 227 LINE",
"421 275 OFFCURVE",
"407 308 OFFCURVE",
"387 349 CURVE SMOOTH",
"287 551 LINE SMOOTH",
"260 606 OFFCURVE",
"212 615 OFFCURVE",
"163 615 CURVE SMOOTH",
"119 615 OFFCURVE",
"76 601 OFFCURVE",
"58 575 CURVE",
"58 75 LINE SMOOTH",
"58 9 OFFCURVE",
"89 -5 OFFCURVE",
"148 -5 CURVE SMOOTH",
"177 -5 OFFCURVE",
"212 0 OFFCURVE",
"226 4 CURVE",
"226 159 LINE SMOOTH",
"226 230 OFFCURVE",
"226 307 OFFCURVE",
"221 379 CURVE",
"227 380 LINE",
"246 332 OFFCURVE",
"260 299 OFFCURVE",
"280 258 CURVE SMOOTH",
"379 56 LINE SMOOTH",
"407 0 OFFCURVE",
"454 -8 OFFCURVE",
"503 -8 CURVE SMOOTH"
);
},
{
closed = 1;
nodes = (
"386 670 OFFCURVE",
"422 708 OFFCURVE",
"422 757 CURVE SMOOTH",
"422 806 OFFCURVE",
"386 844 OFFCURVE",
"331 844 CURVE SMOOTH",
"278 844 OFFCURVE",
"242 806 OFFCURVE",
"242 757 CURVE",
"242 708 OFFCURVE",
"278 670 OFFCURVE",
"331 670 CURVE SMOOTH"
);
}
);
width = 665;
}
);
unicode = 1E44;
},
{
glyphname = uni1E46;
layers = (
{
layerId = "95F0E3FF-6822-4CFD-805E-5B95C02D9EC6";
paths = (
{
closed = 1;
nodes = (
"552 -8 OFFCURVE",
"588 3 OFFCURVE",
"607 21 CURVE",
"607 535 LINE SMOOTH",
"607 601 OFFCURVE",
"576 615 OFFCURVE",
"517 615 CURVE SMOOTH",
"488 615 OFFCURVE",
"453 610 OFFCURVE",
"439 606 CURVE",
"439 444 LINE SMOOTH",
"439 372 OFFCURVE",
"440 300 OFFCURVE",
"445 228 CURVE",
"440 227 LINE",
"421 275 OFFCURVE",
"407 308 OFFCURVE",
"387 349 CURVE SMOOTH",
"287 551 LINE SMOOTH",
"260 606 OFFCURVE",
"212 615 OFFCURVE",
"163 615 CURVE SMOOTH",
"119 615 OFFCURVE",
"76 601 OFFCURVE",
"58 575 CURVE",
"58 75 LINE SMOOTH",
"58 9 OFFCURVE",
"89 -5 OFFCURVE",
"148 -5 CURVE SMOOTH",
"177 -5 OFFCURVE",
"212 0 OFFCURVE",
"226 4 CURVE",
"226 159 LINE SMOOTH",
"226 230 OFFCURVE",
"226 307 OFFCURVE",
"221 379 CURVE",
"227 380 LINE",
"246 332 OFFCURVE",
"260 299 OFFCURVE",
"280 258 CURVE SMOOTH",
"379 56 LINE SMOOTH",
"407 0 OFFCURVE",
"454 -8 OFFCURVE",
"503 -8 CURVE SMOOTH"
);
},
{
closed = 1;
nodes = (
"389 -227 OFFCURVE",
"426 -188 OFFCURVE",
"426 -141 CURVE SMOOTH",
"426 -94 OFFCURVE",
"389 -55 OFFCURVE",
"337 -55 CURVE SMOOTH",
"285 -55 OFFCURVE",
"248 -94 OFFCURVE",
"248 -141 CURVE",
"248 -188 OFFCURVE",
"285 -227 OFFCURVE",
"337 -227 CURVE SMOOTH"
);
}
);
width = 665;
}
);
unicode = 1E46;
},
{
glyphname = uni1E48;
layers = (
{
layerId = "95F0E3FF-6822-4CFD-805E-5B95C02D9EC6";
paths = (
{
closed = 1;
nodes = (
"552 -8 OFFCURVE",
"588 3 OFFCURVE",
"607 21 CURVE",
"607 535 LINE SMOOTH",
"607 601 OFFCURVE",
"576 615 OFFCURVE",
"517 615 CURVE SMOOTH",
"488 615 OFFCURVE",
"453 610 OFFCURVE",
"439 606 CURVE",
"439 444 LINE SMOOTH",
"439 372 OFFCURVE",
"440 300 OFFCURVE",
"445 228 CURVE",
"440 227 LINE",
"421 275 OFFCURVE",
"407 308 OFFCURVE",
"387 349 CURVE SMOOTH",
"287 551 LINE SMOOTH",
"260 606 OFFCURVE",
"212 615 OFFCURVE",
"163 615 CURVE SMOOTH",
"119 615 OFFCURVE",
"76 601 OFFCURVE",
"58 575 CURVE",
"58 75 LINE SMOOTH",
"58 9 OFFCURVE",
"89 -5 OFFCURVE",
"148 -5 CURVE SMOOTH",
"177 -5 OFFCURVE",
"212 0 OFFCURVE",
"226 4 CURVE",
"226 159 LINE SMOOTH",
"226 230 OFFCURVE",
"226 307 OFFCURVE",
"221 379 CURVE",
"227 380 LINE",
"246 332 OFFCURVE",
"260 299 OFFCURVE",
"280 258 CURVE SMOOTH",
"379 56 LINE SMOOTH",
"407 0 OFFCURVE",
"454 -8 OFFCURVE",
"503 -8 CURVE SMOOTH"
);
},
{
closed = 1;
nodes = (
"459 -214 LINE",
"492 -214 OFFCURVE",
"513 -197 OFFCURVE",
"513 -148 CURVE SMOOTH",
"513 -124 OFFCURVE",
"508 -100 OFFCURVE",
"497 -86 CURVE",
"222 -86 LINE SMOOTH",
"189 -86 OFFCURVE",
"167 -103 OFFCURVE",
"167 -152 CURVE SMOOTH",
"167 -176 OFFCURVE",
"177 -200 OFFCURVE",
"183 -214 CURVE"
);
}
);
width = 665;
}
);
unicode = 1E48;
},
{
glyphname = uni1E5A;
layers = (
{
layerId = "95F0E3FF-6822-4CFD-805E-5B95C02D9EC6";
paths = (
{
closed = 1;
nodes = (
"520 -8 OFFCURVE",
"559 18 OFFCURVE",
"572 64 CURVE",
"545 110 OFFCURVE",
"494 169 OFFCURVE",
"446 234 CURVE",
"505 266 OFFCURVE",
"554 325 OFFCURVE",
"554 408 CURVE SMOOTH",
"554 540 OFFCURVE",
"460 623 OFFCURVE",
"276 623 CURVE SMOOTH",
"208 623 OFFCURVE",
"146 616 OFFCURVE",
"101 600 CURVE SMOOTH",
"75 591 OFFCURVE",
"58 577 OFFCURVE",
"58 549 CURVE SMOOTH",
"58 78 LINE SMOOTH",
"58 9 OFFCURVE",
"90 -5 OFFCURVE",
"151 -5 CURVE SMOOTH",
"181 -5 OFFCURVE",
"218 0 OFFCURVE",
"232 4 CURVE",
"232 196 LINE",
"285 196 LINE",
"369 61 LINE SMOOTH",
"394 20 OFFCURVE",
"418 -8 OFFCURVE",
"476 -8 CURVE SMOOTH"
);
},
{
closed = 1;
nodes = (
"352 -227 OFFCURVE",
"389 -188 OFFCURVE",
"389 -141 CURVE SMOOTH",
"389 -94 OFFCURVE",
"352 -55 OFFCURVE",
"300 -55 CURVE SMOOTH",
"248 -55 OFFCURVE",
"211 -94 OFFCURVE",
"211 -141 CURVE",
"211 -188 OFFCURVE",
"248 -227 OFFCURVE",
"300 -227 CURVE SMOOTH"
);
},
{
closed = 1;
nodes = (
"231 479 LINE",
"245 481 OFFCURVE",
"255 483 OFFCURVE",
"275 483 CURVE SMOOTH",
"345 483 OFFCURVE",
"377 457 OFFCURVE",
"377 406 CURVE SMOOTH",
"377 355 OFFCURVE",
"345 329 OFFCURVE",
"295 329 CURVE SMOOTH",
"231 329 LINE"
);
}
);
width = 602;
}
);
rightKerningGroup = R;
unicode = 1E5A;
},
{
glyphname = uni1E5C;
layers = (
{
layerId = "95F0E3FF-6822-4CFD-805E-5B95C02D9EC6";
paths = (
{
closed = 1;
nodes = (
"520 -8 OFFCURVE",
"559 18 OFFCURVE",
"572 64 CURVE",
"545 110 OFFCURVE",
"494 169 OFFCURVE",
"446 234 CURVE",
"505 266 OFFCURVE",
"554 325 OFFCURVE",
"554 408 CURVE SMOOTH",
"554 540 OFFCURVE",
"460 623 OFFCURVE",
"276 623 CURVE SMOOTH",
"208 623 OFFCURVE",
"146 616 OFFCURVE",
"101 600 CURVE SMOOTH",
"75 591 OFFCURVE",
"58 577 OFFCURVE",
"58 549 CURVE SMOOTH",
"58 78 LINE SMOOTH",
"58 9 OFFCURVE",
"90 -5 OFFCURVE",
"151 -5 CURVE SMOOTH",
"181 -5 OFFCURVE",
"218 0 OFFCURVE",
"232 4 CURVE",
"232 196 LINE",
"285 196 LINE",
"369 61 LINE SMOOTH",
"394 20 OFFCURVE",
"418 -8 OFFCURVE",
"476 -8 CURVE SMOOTH"
);
},
{
closed = 1;
nodes = (
"352 -227 OFFCURVE",
"389 -188 OFFCURVE",
"389 -141 CURVE SMOOTH",
"389 -94 OFFCURVE",
"352 -55 OFFCURVE",
"300 -55 CURVE SMOOTH",
"248 -55 OFFCURVE",
"211 -94 OFFCURVE",
"211 -141 CURVE",
"211 -188 OFFCURVE",
"248 -227 OFFCURVE",
"300 -227 CURVE SMOOTH"
);
},
{
closed = 1;
nodes = (
"231 479 LINE",
"245 481 OFFCURVE",
"255 483 OFFCURVE",
"275 483 CURVE SMOOTH",
"345 483 OFFCURVE",
"377 457 OFFCURVE",
"377 406 CURVE SMOOTH",
"377 355 OFFCURVE",
"345 329 OFFCURVE",
"295 329 CURVE SMOOTH",
"231 329 LINE"
);
},
{
closed = 1;
nodes = (
"398 695 LINE",
"431 695 OFFCURVE",
"452 712 OFFCURVE",
"452 761 CURVE SMOOTH",
"452 785 OFFCURVE",
"447 809 OFFCURVE",
"436 823 CURVE",
"171 823 LINE SMOOTH",
"138 823 OFFCURVE",
"116 806 OFFCURVE",
"116 757 CURVE SMOOTH",
"116 733 OFFCURVE",
"126 709 OFFCURVE",
"132 695 CURVE"
);
}
);
width = 602;
}
);
rightKerningGroup = R;
unicode = 1E5C;
},
{
glyphname = uni1E5E;
layers = (
{
layerId = "95F0E3FF-6822-4CFD-805E-5B95C02D9EC6";
paths = (
{
closed = 1;
nodes = (
"520 -8 OFFCURVE",
"559 18 OFFCURVE",
"572 64 CURVE",
"545 110 OFFCURVE",
"494 169 OFFCURVE",
"446 234 CURVE",
"505 266 OFFCURVE",
"554 325 OFFCURVE",
"554 408 CURVE SMOOTH",
"554 540 OFFCURVE",
"460 623 OFFCURVE",
"276 623 CURVE SMOOTH",
"208 623 OFFCURVE",
"146 616 OFFCURVE",
"101 600 CURVE SMOOTH",
"75 591 OFFCURVE",
"58 577 OFFCURVE",
"58 549 CURVE SMOOTH",
"58 78 LINE SMOOTH",
"58 9 OFFCURVE",
"90 -5 OFFCURVE",
"151 -5 CURVE SMOOTH",
"181 -5 OFFCURVE",
"218 0 OFFCURVE",
"232 4 CURVE",
"232 196 LINE",
"285 196 LINE",
"369 61 LINE SMOOTH",
"394 20 OFFCURVE",
"418 -8 OFFCURVE",
"476 -8 CURVE SMOOTH"
);
},
{
closed = 1;
nodes = (
"431 -214 LINE",
"464 -214 OFFCURVE",
"485 -197 OFFCURVE",
"485 -148 CURVE SMOOTH",
"485 -124 OFFCURVE",
"480 -100 OFFCURVE",
"469 -86 CURVE",
"194 -86 LINE SMOOTH",
"161 -86 OFFCURVE",
"139 -103 OFFCURVE",
"139 -152 CURVE SMOOTH",
"139 -176 OFFCURVE",
"149 -200 OFFCURVE",
"155 -214 CURVE"
);
},
{
closed = 1;
nodes = (
"231 479 LINE",
"245 481 OFFCURVE",
"255 483 OFFCURVE",
"275 483 CURVE SMOOTH",
"345 483 OFFCURVE",
"377 457 OFFCURVE",
"377 406 CURVE SMOOTH",
"377 355 OFFCURVE",
"345 329 OFFCURVE",
"295 329 CURVE SMOOTH",
"231 329 LINE"
);
}
);
width = 602;
}
);
rightKerningGroup = R;
unicode = 1E5E;
},
{
glyphname = uni1E60;
layers = (
{
layerId = "95F0E3FF-6822-4CFD-805E-5B95C02D9EC6";
paths = (
{
closed = 1;
nodes = (
"433 -16 OFFCURVE",
"525 61 OFFCURVE",
"525 174 CURVE SMOOTH",
"525 281 OFFCURVE",
"456 337 OFFCURVE",
"330 377 CURVE SMOOTH",
"277 394 LINE SMOOTH",
"243 405 OFFCURVE",
"225 416 OFFCURVE",
"225 436 CURVE SMOOTH",
"225 461 OFFCURVE",
"252 480 OFFCURVE",
"312 480 CURVE SMOOTH",
"370 480 OFFCURVE",
"423 464 OFFCURVE",
"452 445 CURVE",
"474 462 OFFCURVE",
"493 487 OFFCURVE",
"493 521 CURVE SMOOTH",
"493 591 OFFCURVE",
"409 623 OFFCURVE",
"293 623 CURVE SMOOTH",
"136 623 OFFCURVE",
"44 549 OFFCURVE",
"44 436 CURVE SMOOTH",
"44 319 OFFCURVE",
"124 280 OFFCURVE",
"241 241 CURVE SMOOTH",
"283 227 LINE",
"322 214 OFFCURVE",
"344 203 OFFCURVE",
"344 176 CURVE SMOOTH",
"344 149 OFFCURVE",
"320 126 OFFCURVE",
"255 126 CURVE SMOOTH",
"191 126 OFFCURVE",
"135 151 OFFCURVE",
"98 180 CURVE",
"71 165 OFFCURVE",
"44 138 OFFCURVE",
"44 99 CURVE SMOOTH",
"44 24 OFFCURVE",
"139 -16 OFFCURVE",
"261 -16 CURVE SMOOTH"
);
},
{
closed = 1;
nodes = (
"345 670 OFFCURVE",
"381 708 OFFCURVE",
"381 757 CURVE SMOOTH",
"381 806 OFFCURVE",
"345 844 OFFCURVE",
"290 844 CURVE SMOOTH",
"237 844 OFFCURVE",
"201 806 OFFCURVE",
"201 757 CURVE",
"201 708 OFFCURVE",
"237 670 OFFCURVE",
"290 670 CURVE SMOOTH"
);
}
);
width = 543;
}
);
unicode = 1E60;
},
{
glyphname = uni1E62;
layers = (
{
layerId = "95F0E3FF-6822-4CFD-805E-5B95C02D9EC6";
paths = (
{
closed = 1;
nodes = (
"433 -16 OFFCURVE",
"525 61 OFFCURVE",
"525 174 CURVE SMOOTH",
"525 281 OFFCURVE",
"456 337 OFFCURVE",
"330 377 CURVE SMOOTH",
"277 394 LINE SMOOTH",
"243 405 OFFCURVE",
"225 416 OFFCURVE",
"225 436 CURVE SMOOTH",
"225 461 OFFCURVE",
"252 480 OFFCURVE",
"312 480 CURVE SMOOTH",
"370 480 OFFCURVE",
"423 464 OFFCURVE",
"452 445 CURVE",
"474 462 OFFCURVE",
"493 487 OFFCURVE",
"493 521 CURVE SMOOTH",
"493 591 OFFCURVE",
"409 623 OFFCURVE",
"293 623 CURVE SMOOTH",
"136 623 OFFCURVE",
"44 549 OFFCURVE",
"44 436 CURVE SMOOTH",
"44 319 OFFCURVE",
"124 280 OFFCURVE",
"241 241 CURVE SMOOTH",
"283 227 LINE",
"322 214 OFFCURVE",
"344 203 OFFCURVE",
"344 176 CURVE SMOOTH",
"344 149 OFFCURVE",
"320 126 OFFCURVE",
"255 126 CURVE SMOOTH",
"191 126 OFFCURVE",
"135 151 OFFCURVE",
"98 180 CURVE",
"71 165 OFFCURVE",
"44 138 OFFCURVE",
"44 99 CURVE SMOOTH",
"44 24 OFFCURVE",
"139 -16 OFFCURVE",
"261 -16 CURVE SMOOTH"
);
},
{
closed = 1;
nodes = (
"342 -227 OFFCURVE",
"379 -188 OFFCURVE",
"379 -141 CURVE SMOOTH",
"379 -94 OFFCURVE",
"342 -55 OFFCURVE",
"290 -55 CURVE SMOOTH",
"238 -55 OFFCURVE",
"201 -94 OFFCURVE",
"201 -141 CURVE",
"201 -188 OFFCURVE",
"238 -227 OFFCURVE",
"290 -227 CURVE SMOOTH"
);
}
);
width = 543;
}
);
unicode = 1E62;
},
{
glyphname = uni1E6C;
layers = (
{
layerId = "95F0E3FF-6822-4CFD-805E-5B95C02D9EC6";
paths = (
{
closed = 1;
nodes = (
"311 -5 OFFCURVE",
"348 0 OFFCURVE",
"362 4 CURVE",
"362 466 LINE",
"473 466 LINE SMOOTH",
"510 466 OFFCURVE",
"536 487 OFFCURVE",
"536 539 CURVE SMOOTH",
"536 567 OFFCURVE",
"526 594 OFFCURVE",
"517 609 CURVE",
"81 609 LINE SMOOTH",
"44 609 OFFCURVE",
"18 588 OFFCURVE",
"18 536 CURVE SMOOTH",
"18 508 OFFCURVE",
"28 481 OFFCURVE",
"37 466 CURVE",
"187 466 LINE",
"187 78 LINE SMOOTH",
"187 9 OFFCURVE",
"219 -5 OFFCURVE",
"281 -5 CURVE SMOOTH"
);
},
{
closed = 1;
nodes = (
"335 -227 OFFCURVE",
"372 -188 OFFCURVE",
"372 -141 CURVE SMOOTH",
"372 -94 OFFCURVE",
"335 -55 OFFCURVE",
"283 -55 CURVE SMOOTH",
"231 -55 OFFCURVE",
"194 -94 OFFCURVE",
"194 -141 CURVE",
"194 -188 OFFCURVE",
"231 -227 OFFCURVE",
"283 -227 CURVE SMOOTH"
);
}
);
width = 556;
}
);
leftKerningGroup = T;
rightKerningGroup = T;
unicode = 1E6C;
},
{
glyphname = uni1E6E;
layers = (
{
layerId = "95F0E3FF-6822-4CFD-805E-5B95C02D9EC6";
paths = (
{
closed = 1;
nodes = (
"311 -5 OFFCURVE",
"348 0 OFFCURVE",
"362 4 CURVE",
"362 466 LINE",
"473 466 LINE SMOOTH",
"510 466 OFFCURVE",
"536 487 OFFCURVE",
"536 539 CURVE SMOOTH",
"536 567 OFFCURVE",
"526 594 OFFCURVE",
"517 609 CURVE",
"81 609 LINE SMOOTH",
"44 609 OFFCURVE",
"18 588 OFFCURVE",
"18 536 CURVE SMOOTH",
"18 508 OFFCURVE",
"28 481 OFFCURVE",
"37 466 CURVE",
"187 466 LINE",
"187 78 LINE SMOOTH",
"187 9 OFFCURVE",
"219 -5 OFFCURVE",
"281 -5 CURVE SMOOTH"
);
},
{
closed = 1;
nodes = (
"398 -214 LINE",
"431 -214 OFFCURVE",
"452 -197 OFFCURVE",
"452 -148 CURVE SMOOTH",
"452 -124 OFFCURVE",
"447 -100 OFFCURVE",
"436 -86 CURVE",
"161 -86 LINE SMOOTH",
"128 -86 OFFCURVE",
"106 -103 OFFCURVE",
"106 -152 CURVE SMOOTH",
"106 -176 OFFCURVE",
"116 -200 OFFCURVE",
"122 -214 CURVE"
);
}
);
width = 556;
}
);
leftKerningGroup = T;
rightKerningGroup = T;
unicode = 1E6E;
},
{
glyphname = uni1E8E;
layers = (
{
layerId = "95F0E3FF-6822-4CFD-805E-5B95C02D9EC6";
paths = (
{
closed = 1;
nodes = (
"333 -5 OFFCURVE",
"369 0 OFFCURVE",
"383 4 CURVE",
"383 207 LINE",
"540 461 OFFCURVE",
"557 503 OFFCURVE",
"557 535 CURVE SMOOTH",
"557 584 OFFCURVE",
"519 609 OFFCURVE",
"473 609 CURVE SMOOTH",
"446 609 OFFCURVE",
"415 602 OFFCURVE",
"391 590 CURVE",
"353 495 OFFCURVE",
"337 449 OFFCURVE",
"300 366 CURVE",
"294 366 LINE",
"211 533 LINE",
"182 592 OFFCURVE",
"153 609 OFFCURVE",
"101 609 CURVE SMOOTH",
"57 609 OFFCURVE",
"27 585 OFFCURVE",
"10 561 CURVE",
"50 460 OFFCURVE",
"145 310 OFFCURVE",
"212 211 CURVE",
"212 76 LINE SMOOTH",
"212 9 OFFCURVE",
"243 -5 OFFCURVE",
"304 -5 CURVE SMOOTH"
);
},
{
closed = 1;
nodes = (
"343 670 OFFCURVE",
"379 708 OFFCURVE",
"379 757 CURVE SMOOTH",
"379 806 OFFCURVE",
"343 844 OFFCURVE",
"288 844 CURVE SMOOTH",
"235 844 OFFCURVE",
"199 806 OFFCURVE",
"199 757 CURVE",
"199 708 OFFCURVE",
"235 670 OFFCURVE",
"288 670 CURVE SMOOTH"
);
}
);
width = 574;
}
);
leftKerningGroup = Y;
rightKerningGroup = Y;
unicode = 1E8E;
},
{
glyphname = uni1E92;
layers = (
{
layerId = "95F0E3FF-6822-4CFD-805E-5B95C02D9EC6";
paths = (
{
closed = 1;
nodes = (
"467 0 LINE SMOOTH",
"504 0 OFFCURVE",
"530 21 OFFCURVE",
"530 73 CURVE SMOOTH",
"530 101 OFFCURVE",
"520 128 OFFCURVE",
"511 143 CURVE",
"255 143 LINE",
"482 417 LINE SMOOTH",
"506 446 OFFCURVE",
"523 480 OFFCURVE",
"523 513 CURVE SMOOTH",
"523 554 OFFCURVE",
"508 585 OFFCURVE",
"479 609 CURVE",
"106 609 LINE SMOOTH",
"69 609 OFFCURVE",
"43 588 OFFCURVE",
"43 536 CURVE SMOOTH",
"43 508 OFFCURVE",
"53 481 OFFCURVE",
"62 466 CURVE",
"308 466 LINE",
"78 192 LINE",
"54 163 OFFCURVE",
"34 126 OFFCURVE",
"34 93 CURVE SMOOTH",
"34 52 OFFCURVE",
"50 19 OFFCURVE",
"73 0 CURVE"
);
},
{
closed = 1;
nodes = (
"339 670 OFFCURVE",
"375 708 OFFCURVE",
"375 757 CURVE SMOOTH",
"375 806 OFFCURVE",
"339 844 OFFCURVE",
"284 844 CURVE SMOOTH",
"231 844 OFFCURVE",
"195 806 OFFCURVE",
"195 757 CURVE",
"195 708 OFFCURVE",
"231 670 OFFCURVE",
"284 670 CURVE SMOOTH"
);
}
);
width = 560;
}
);
leftKerningGroup = Z;
rightKerningGroup = Z;
unicode = 1E92;
},
{
glyphname = uni1EA0;
layers = (
{
layerId = "95F0E3FF-6822-4CFD-805E-5B95C02D9EC6";
paths = (
{
closed = 1;
nodes = (
"152 -10 OFFCURVE",
"172 -4 OFFCURVE",
"190 2 CURVE",
"200 42 OFFCURVE",
"211 86 OFFCURVE",
"222 126 CURVE",
"403 126 LINE",
"421 57 LINE SMOOTH",
"434 11 OFFCURVE",
"452 -10 OFFCURVE",
"517 -10 CURVE SMOOTH",
"561 -10 OFFCURVE",
"594 3 OFFCURVE",
"610 21 CURVE",
"569 169 OFFCURVE",
"500 418 OFFCURVE",
"453 556 CURVE SMOOTH",
"439 597 OFFCURVE",
"381 616 OFFCURVE",
"315 616 CURVE SMOOTH",
"269 616 OFFCURVE",
"216 601 OFFCURVE",
"194 588 CURVE",
"166 517 OFFCURVE",
"64 224 OFFCURVE",
"36 117 CURVE SMOOTH",
"29 92 OFFCURVE",
"23 75 OFFCURVE",
"23 56 CURVE SMOOTH",
"23 15 OFFCURVE",
"56 -10 OFFCURVE",
"123 -10 CURVE SMOOTH"
);
},
{
closed = 1;
nodes = (
"369 -222 OFFCURVE",
"406 -183 OFFCURVE",
"406 -136 CURVE SMOOTH",
"406 -89 OFFCURVE",
"369 -50 OFFCURVE",
"317 -50 CURVE SMOOTH",
"265 -50 OFFCURVE",
"228 -89 OFFCURVE",
"228 -136 CURVE SMOOTH",
"228 -183 OFFCURVE",
"265 -222 OFFCURVE",
"317 -222 CURVE SMOOTH"
);
},
{
closed = 1;
nodes = (
"270 331 OFFCURVE",
"296 403 OFFCURVE",
"314 459 CURVE",
"320 459 LINE",
"336 405 OFFCURVE",
"356 333 OFFCURVE",
"375 261 CURVE",
"251 261 LINE"
);
}
);
width = 627;
}
);
leftKerningGroup = A;
rightKerningGroup = A;
unicode = 1EA0;
},
{
glyphname = uni1EA2;
layers = (
{
layerId = "95F0E3FF-6822-4CFD-805E-5B95C02D9EC6";
paths = (
{
closed = 1;
nodes = (
"152 -10 OFFCURVE",
"172 -4 OFFCURVE",
"190 2 CURVE",
"200 42 OFFCURVE",
"211 86 OFFCURVE",
"222 126 CURVE",
"403 126 LINE",
"421 57 LINE SMOOTH",
"434 11 OFFCURVE",
"452 -10 OFFCURVE",
"517 -10 CURVE SMOOTH",
"561 -10 OFFCURVE",
"594 3 OFFCURVE",
"610 21 CURVE",
"569 169 OFFCURVE",
"500 418 OFFCURVE",
"453 556 CURVE SMOOTH",
"439 597 OFFCURVE",
"381 616 OFFCURVE",
"315 616 CURVE SMOOTH",
"269 616 OFFCURVE",
"216 601 OFFCURVE",
"194 588 CURVE",
"166 517 OFFCURVE",
"64 224 OFFCURVE",
"36 117 CURVE SMOOTH",
"29 92 OFFCURVE",
"23 75 OFFCURVE",
"23 56 CURVE SMOOTH",
"23 15 OFFCURVE",
"56 -10 OFFCURVE",
"123 -10 CURVE SMOOTH"
);
},
{
closed = 1;
nodes = (
"270 331 OFFCURVE",
"296 403 OFFCURVE",
"314 459 CURVE",
"320 459 LINE",
"336 405 OFFCURVE",
"356 333 OFFCURVE",
"375 261 CURVE",
"251 261 LINE"
);
},
{
closed = 1;
nodes = (
"324 635 OFFCURVE",
"338 639 OFFCURVE",
"346 645 CURVE",
"346 667 OFFCURVE",
"350 678 OFFCURVE",
"374 693 CURVE SMOOTH",
"407 714 OFFCURVE",
"419 736 OFFCURVE",
"419 769 CURVE SMOOTH",
"419 815 OFFCURVE",
"381 852 OFFCURVE",
"314 852 CURVE",
"253 852 OFFCURVE",
"225 827 OFFCURVE",
"225 797 CURVE SMOOTH",
"225 774 OFFCURVE",
"241 758 OFFCURVE",
"256 754 CURVE",
"267 763 OFFCURVE",
"285 775 OFFCURVE",
"309 775 CURVE SMOOTH",
"323 775 OFFCURVE",
"330 770 OFFCURVE",
"330 762 CURVE SMOOTH",
"330 756 OFFCURVE",
"327 750 OFFCURVE",
"313 740 CURVE SMOOTH",
"293 726 LINE SMOOTH",
"272 712 OFFCURVE",
"261 697 OFFCURVE",
"261 678 CURVE SMOOTH",
"261 652 OFFCURVE",
"281 635 OFFCURVE",
"310 635 CURVE SMOOTH"
);
}
);
width = 627;
}
);
leftKerningGroup = A;
rightKerningGroup = A;
unicode = 1EA2;
},
{
glyphname = uni1EA4;
layers = (
{
layerId = "95F0E3FF-6822-4CFD-805E-5B95C02D9EC6";
paths = (
{
closed = 1;
nodes = (
"152 -10 OFFCURVE",
"172 -4 OFFCURVE",
"190 2 CURVE",
"200 42 OFFCURVE",
"211 86 OFFCURVE",
"222 126 CURVE",
"403 126 LINE",
"421 57 LINE SMOOTH",
"434 11 OFFCURVE",
"452 -10 OFFCURVE",
"517 -10 CURVE SMOOTH",
"561 -10 OFFCURVE",
"594 3 OFFCURVE",
"610 21 CURVE",
"569 169 OFFCURVE",
"500 418 OFFCURVE",
"453 556 CURVE SMOOTH",
"439 597 OFFCURVE",
"381 616 OFFCURVE",
"315 616 CURVE SMOOTH",
"269 616 OFFCURVE",
"216 601 OFFCURVE",
"194 588 CURVE",
"166 517 OFFCURVE",
"64 224 OFFCURVE",
"36 117 CURVE SMOOTH",
"29 92 OFFCURVE",
"23 75 OFFCURVE",
"23 56 CURVE SMOOTH",
"23 15 OFFCURVE",
"56 -10 OFFCURVE",
"123 -10 CURVE SMOOTH"
);
},
{
closed = 1;
nodes = (
"270 331 OFFCURVE",
"296 403 OFFCURVE",
"314 459 CURVE",
"320 459 LINE",
"336 405 OFFCURVE",
"356 333 OFFCURVE",
"375 261 CURVE",
"251 261 LINE"
);
},
{
closed = 1;
nodes = (
"252 683 OFFCURVE",
"283 703 OFFCURVE",
"324 734 CURVE",
"347 713 LINE",
"391 673 OFFCURVE",
"408 665 OFFCURVE",
"434 665 CURVE SMOOTH",
"475 665 OFFCURVE",
"494 697 OFFCURVE",
"494 742 CURVE",
"413 813 LINE",
"378 844 OFFCURVE",
"358 854 OFFCURVE",
"322 854 CURVE SMOOTH",
"296 854 OFFCURVE",
"267 841 OFFCURVE",
"234 818 CURVE SMOOTH",
"198 792 LINE SMOOTH",
"162 767 OFFCURVE",
"152 750 OFFCURVE",
"152 723 CURVE SMOOTH",
"152 688 OFFCURVE",
"183 662 OFFCURVE",
"223 662 CURVE"
);
},
{
closed = 1;
nodes = (
"603 862 LINE SMOOTH",
"629 883 OFFCURVE",
"638 904 OFFCURVE",
"638 926 CURVE SMOOTH",
"638 969 OFFCURVE",
"607 987 OFFCURVE",
"568 987 CURVE SMOOTH",
"558 987 OFFCURVE",
"546 985 OFFCURVE",
"536 983 CURVE",
"464 895 LINE",
"455 885 OFFCURVE",
"451 873 OFFCURVE",
"451 861 CURVE SMOOTH",
"451 826 OFFCURVE",
"491 802 OFFCURVE",
"526 800 CURVE"
);
}
);
width = 627;
}
);
leftKerningGroup = A;
rightKerningGroup = A;
unicode = 1EA4;
},
{
glyphname = uni1EA6;
layers = (
{
layerId = "95F0E3FF-6822-4CFD-805E-5B95C02D9EC6";
paths = (
{
closed = 1;
nodes = (
"152 -10 OFFCURVE",
"172 -4 OFFCURVE",
"190 2 CURVE",
"200 42 OFFCURVE",
"211 86 OFFCURVE",
"222 126 CURVE",
"403 126 LINE",
"421 57 LINE SMOOTH",
"434 11 OFFCURVE",
"452 -10 OFFCURVE",
"517 -10 CURVE SMOOTH",
"561 -10 OFFCURVE",
"594 3 OFFCURVE",
"610 21 CURVE",
"569 169 OFFCURVE",
"500 418 OFFCURVE",
"453 556 CURVE SMOOTH",
"439 597 OFFCURVE",
"381 616 OFFCURVE",
"315 616 CURVE SMOOTH",
"269 616 OFFCURVE",
"216 601 OFFCURVE",
"194 588 CURVE",
"166 517 OFFCURVE",
"64 224 OFFCURVE",
"36 117 CURVE SMOOTH",
"29 92 OFFCURVE",
"23 75 OFFCURVE",
"23 56 CURVE SMOOTH",
"23 15 OFFCURVE",
"56 -10 OFFCURVE",
"123 -10 CURVE SMOOTH"
);
},
{
closed = 1;
nodes = (
"270 331 OFFCURVE",
"296 403 OFFCURVE",
"314 459 CURVE",
"320 459 LINE",
"336 405 OFFCURVE",
"356 333 OFFCURVE",
"375 261 CURVE",
"251 261 LINE"
);
},
{
closed = 1;
nodes = (
"252 683 OFFCURVE",
"283 703 OFFCURVE",
"324 734 CURVE",
"347 713 LINE",
"391 673 OFFCURVE",
"408 665 OFFCURVE",
"434 665 CURVE SMOOTH",
"475 665 OFFCURVE",
"494 697 OFFCURVE",
"494 742 CURVE",
"413 813 LINE",
"378 844 OFFCURVE",
"358 854 OFFCURVE",
"322 854 CURVE SMOOTH",
"296 854 OFFCURVE",
"267 841 OFFCURVE",
"234 818 CURVE SMOOTH",
"198 792 LINE SMOOTH",
"162 767 OFFCURVE",
"152 750 OFFCURVE",
"152 723 CURVE SMOOTH",
"152 688 OFFCURVE",
"183 662 OFFCURVE",
"223 662 CURVE"
);
},
{
closed = 1;
nodes = (
"576 802 OFFCURVE",
"601 821 OFFCURVE",
"610 863 CURVE",
"549 940 LINE SMOOTH",
"525 970 OFFCURVE",
"507 986 OFFCURVE",
"472 986 CURVE SMOOTH",
"439 986 OFFCURVE",
"406 958 OFFCURVE",
"405 910 CURVE",
"483 834 LINE",
"504 814 OFFCURVE",
"525 802 OFFCURVE",
"549 802 CURVE"
);
}
);
width = 627;
}
);
leftKerningGroup = A;
rightKerningGroup = A;
unicode = 1EA6;
},
{
glyphname = uni1EA8;
layers = (
{
layerId = "95F0E3FF-6822-4CFD-805E-5B95C02D9EC6";
paths = (
{
closed = 1;
nodes = (
"152 -10 OFFCURVE",
"172 -4 OFFCURVE",
"190 2 CURVE",
"200 42 OFFCURVE",
"211 86 OFFCURVE",
"222 126 CURVE",
"403 126 LINE",
"421 57 LINE SMOOTH",
"434 11 OFFCURVE",
"452 -10 OFFCURVE",
"517 -10 CURVE SMOOTH",
"561 -10 OFFCURVE",
"594 3 OFFCURVE",
"610 21 CURVE",
"569 169 OFFCURVE",
"500 418 OFFCURVE",
"453 556 CURVE SMOOTH",
"439 597 OFFCURVE",
"381 616 OFFCURVE",
"315 616 CURVE SMOOTH",
"269 616 OFFCURVE",
"216 601 OFFCURVE",
"194 588 CURVE",
"166 517 OFFCURVE",
"64 224 OFFCURVE",
"36 117 CURVE SMOOTH",
"29 92 OFFCURVE",
"23 75 OFFCURVE",
"23 56 CURVE SMOOTH",
"23 15 OFFCURVE",
"56 -10 OFFCURVE",
"123 -10 CURVE SMOOTH"
);
},
{
closed = 1;
nodes = (
"270 331 OFFCURVE",
"296 403 OFFCURVE",
"314 459 CURVE",
"320 459 LINE",
"336 405 OFFCURVE",
"356 333 OFFCURVE",
"375 261 CURVE",
"251 261 LINE"
);
},
{
closed = 1;
nodes = (
"252 683 OFFCURVE",
"283 703 OFFCURVE",
"324 734 CURVE",
"347 713 LINE",
"391 673 OFFCURVE",
"408 665 OFFCURVE",
"434 665 CURVE SMOOTH",
"475 665 OFFCURVE",
"494 697 OFFCURVE",
"494 742 CURVE",
"413 813 LINE",
"378 844 OFFCURVE",
"358 854 OFFCURVE",
"322 854 CURVE SMOOTH",
"296 854 OFFCURVE",
"267 841 OFFCURVE",
"234 818 CURVE SMOOTH",
"198 792 LINE SMOOTH",
"162 767 OFFCURVE",
"152 750 OFFCURVE",
"152 723 CURVE SMOOTH",
"152 688 OFFCURVE",
"183 662 OFFCURVE",
"223 662 CURVE"
);
},
{
closed = 1;
nodes = (
"532 790 OFFCURVE",
"546 794 OFFCURVE",
"554 800 CURVE",
"554 822 OFFCURVE",
"558 833 OFFCURVE",
"582 848 CURVE SMOOTH",
"615 869 OFFCURVE",
"627 891 OFFCURVE",
"627 924 CURVE SMOOTH",
"627 970 OFFCURVE",
"589 1007 OFFCURVE",
"522 1007 CURVE",
"461 1007 OFFCURVE",
"433 982 OFFCURVE",
"433 952 CURVE SMOOTH",
"433 929 OFFCURVE",
"449 913 OFFCURVE",
"464 909 CURVE",
"475 918 OFFCURVE",
"493 930 OFFCURVE",
"517 930 CURVE SMOOTH",
"531 930 OFFCURVE",
"538 925 OFFCURVE",
"538 917 CURVE SMOOTH",
"538 911 OFFCURVE",
"535 905 OFFCURVE",
"521 895 CURVE SMOOTH",
"501 881 LINE SMOOTH",
"480 867 OFFCURVE",
"469 852 OFFCURVE",
"469 833 CURVE SMOOTH",
"469 807 OFFCURVE",
"489 790 OFFCURVE",
"518 790 CURVE SMOOTH"
);
}
);
width = 627;
}
);
leftKerningGroup = A;
rightKerningGroup = A;
unicode = 1EA8;
},
{
glyphname = uni1EAA;
layers = (
{
layerId = "95F0E3FF-6822-4CFD-805E-5B95C02D9EC6";
paths = (
{
closed = 1;
nodes = (
"152 -10 OFFCURVE",
"172 -4 OFFCURVE",
"190 2 CURVE",
"200 42 OFFCURVE",
"211 86 OFFCURVE",
"222 126 CURVE",
"403 126 LINE",
"421 57 LINE SMOOTH",
"434 11 OFFCURVE",
"452 -10 OFFCURVE",
"517 -10 CURVE SMOOTH",
"561 -10 OFFCURVE",
"594 3 OFFCURVE",
"610 21 CURVE",
"569 169 OFFCURVE",
"500 418 OFFCURVE",
"453 556 CURVE SMOOTH",
"439 597 OFFCURVE",
"381 616 OFFCURVE",
"315 616 CURVE SMOOTH",
"269 616 OFFCURVE",
"216 601 OFFCURVE",
"194 588 CURVE",
"166 517 OFFCURVE",
"64 224 OFFCURVE",
"36 117 CURVE SMOOTH",
"29 92 OFFCURVE",
"23 75 OFFCURVE",
"23 56 CURVE SMOOTH",
"23 15 OFFCURVE",
"56 -10 OFFCURVE",
"123 -10 CURVE SMOOTH"
);
},
{
closed = 1;
nodes = (
"270 331 OFFCURVE",
"296 403 OFFCURVE",
"314 459 CURVE",
"320 459 LINE",
"336 405 OFFCURVE",
"356 333 OFFCURVE",
"375 261 CURVE",
"251 261 LINE"
);
},
{
closed = 1;
nodes = (
"252 673 OFFCURVE",
"283 693 OFFCURVE",
"324 724 CURVE",
"347 703 LINE",
"391 663 OFFCURVE",
"408 655 OFFCURVE",
"434 655 CURVE SMOOTH",
"475 655 OFFCURVE",
"494 687 OFFCURVE",
"494 732 CURVE",
"413 803 LINE",
"378 834 OFFCURVE",
"358 844 OFFCURVE",
"322 844 CURVE SMOOTH",
"296 844 OFFCURVE",
"267 831 OFFCURVE",
"234 808 CURVE SMOOTH",
"198 782 LINE SMOOTH",
"162 757 OFFCURVE",
"152 740 OFFCURVE",
"152 713 CURVE SMOOTH",
"152 678 OFFCURVE",
"183 652 OFFCURVE",
"223 652 CURVE"
);
},
{
closed = 1;
nodes = (
"242 881 OFFCURVE",
"255 901 OFFCURVE",
"281 901 CURVE SMOOTH",
"292 901 OFFCURVE",
"303 897 OFFCURVE",
"319 893 CURVE SMOOTH",
"355 882 LINE SMOOTH",
"375 876 OFFCURVE",
"392 875 OFFCURVE",
"409 875 CURVE SMOOTH",
"459 875 OFFCURVE",
"497 900 OFFCURVE",
"497 953 CURVE SMOOTH",
"497 995 OFFCURVE",
"465 1025 OFFCURVE",
"423 1025 CURVE",
"417 1014 OFFCURVE",
"403 994 OFFCURVE",
"377 994 CURVE SMOOTH",
"367 994 OFFCURVE",
"353 997 OFFCURVE",
"332 1004 CURVE",
"282 1018 OFFCURVE",
"266 1020 OFFCURVE",
"250 1020 CURVE SMOOTH",
"207 1020 OFFCURVE",
"161 995 OFFCURVE",
"161 941 CURVE SMOOTH",
"161 899 OFFCURVE",
"193 869 OFFCURVE",
"235 869 CURVE"
);
}
);
width = 627;
}
);
leftKerningGroup = A;
rightKerningGroup = A;
unicode = 1EAA;
},
